<?xml version="1.0" encoding="UTF-8"?>
<svg width="760" height="520" xmlns="http://www.w3.org/2000/svg">
  <defs>
    <linearGradient id="water" x1="0" y1="0" x2="0" y2="1">
      <stop offset="0%" stop-color="#5B9BD5"/><stop offset="100%" stop-color="#3A7FBF"/>
    </linearGradient>
    <filter id="sh"><feDropShadow dx="0" dy="1" stdDeviation="1.5" flood-opacity="0.35"/></filter>
  </defs><rect width="760" height="520" fill="url(#water)"/><line x1="0" y1="15" x2="760" y2="15" stroke="rgba(255,255,255,0.05)" stroke-width="1"/><line x1="0" y1="40" x2="760" y2="40" stroke="rgba(255,255,255,0.05)" stroke-width="1"/><line x1="0" y1="65" x2="760" y2="65" stroke="rgba(255,255,255,0.05)" stroke-width="1"/><line x1="0" y1="90" x2="760" y2="90" stroke="rgba(255,255,255,0.05)" stroke-width="1"/><line x1="0" y1="115" x2="760" y2="115" stroke="rgba(255,255,255,0.05)" stroke-width="1"/><line x1="0" y1="140" x2="760" y2="140" stroke="rgba(255,255,255,0.05)" stroke-width="1"/><line x1="0" y1="165" x2="760" y2="165" stroke="rgba(255,255,255,0.05)" stroke-width="1"/><line x1="0" y1="190" x2="760" y2="190" stroke="rgba(255,255,255,0.05)" stroke-width="1"/><line x1="0" y1="215" x2="760" y2="215" stroke="rgba(255,255,255,0.05)" stroke-width="1"/><line x1="0" y1="240" x2="760" y2="240" stroke="rgba(255,255,255,0.05)" stroke-width="1"/><line x1="0" y1="265" x2="760" y2="265" stroke="rgba(255,255,255,0.05)" stroke-width="1"/><line x1="0" y1="290" x2="760" y2="290" stroke="rgba(255,255,255,0.05)" stroke-width="1"/><line x1="0" y1="315" x2="760" y2="315" stroke="rgba(255,255,255,0.05)" stroke-width="1"/><line x1="0" y1="340" x2="760" y2="340" stroke="rgba(255,255,255,0.05)" stroke-width="1"/><line x1="0" y1="365" x2="760" y2="365" stroke="rgba(255,255,255,0.05)" stroke-width="1"/><line x1="0" y1="390" x2="760" y2="390" stroke="rgba(255,255,255,0.05)" stroke-width="1"/><line x1="0" y1="415" x2="760" y2="415" stroke="rgba(255,255,255,0.05)" stroke-width="1"/><line x1="0" y1="440" x2="760" y2="440" stroke="rgba(255,255,255,0.05)" stroke-width="1"/><line x1="0" y1="465" x2="760" y2="465" stroke="rgba(255,255,255,0.05)" stroke-width="1"/><line x1="0" y1="490" x2="760" y2="490" stroke="rgba(255,255,255,0.05)" stroke-width="1"/><line x1="0" y1="515" x2="760" y2="515" stroke="rgba(255,255,255,0.05)" stroke-width="1"/><polygon points="80,280 260,260 260,430 80,430 80,280" fill="#8BBF6E" stroke="#5A9A45" stroke-width="1.5"/><polygon points="300,120 440,100 460,290 300,290 300,120" fill="#8BBF6E" stroke="#5A9A45" stroke-width="1.5"/><polygon points="480,60 680,80 700,230 520,240 460,100 480,60" fill="#8BBF6E" stroke="#5A9A45" stroke-width="1.5"/><polygon points="590,310 740,300 760,460 580,470 590,310" fill="#8BBF6E" stroke="#5A9A45" stroke-width="1.5"/><circle cx="170" cy="365" r="8" fill="#4A8A3A" opacity="0.8"/><circle cx="179" cy="369" r="8" fill="#4A8A3A" opacity="0.8"/><circle cx="163" cy="370" r="8" fill="#4A8A3A" opacity="0.8"/><circle cx="155" cy="375" r="8" fill="#4A8A3A" opacity="0.8"/><circle cx="164" cy="379" r="8" fill="#4A8A3A" opacity="0.8"/><circle cx="148" cy="380" r="8" fill="#4A8A3A" opacity="0.8"/><polygon points="370,182 357,205 383,205" fill="#9B8F7A" stroke="#7A6E5C" stroke-width="1"/><polygon points="370,182 365,195 375,195" fill="rgba(255,255,255,0.55)"/><polygon points="390,172 377,195 403,195" fill="#9B8F7A" stroke="#7A6E5C" stroke-width="1"/><polygon points="390,172 385,185 395,185" fill="rgba(255,255,255,0.55)"/><polygon points="560,102 547,125 573,125" fill="#9B8F7A" stroke="#7A6E5C" stroke-width="1"/><polygon points="560,102 555,115 565,115" fill="rgba(255,255,255,0.55)"/><polygon points="540,112 527,135 553,135" fill="#9B8F7A" stroke="#7A6E5C" stroke-width="1"/><polygon points="540,112 535,125 545,125" fill="rgba(255,255,255,0.55)"/><line x1="130" y1="380" x2="200" y2="380" stroke="#A08040" stroke-width="5" stroke-linecap="round" opacity="0.6"/><line x1="130" y1="380" x2="200" y2="380" stroke="#E8D5A3" stroke-width="3" stroke-linecap="round" stroke-dasharray="7,5"/><rect x="145" y="371" width="40" height="15" rx="4" fill="rgba(240,220,160,0.9)"/><text x="165" y="382" text-anchor="middle" font-family="Arial,sans-serif" font-size="7.5" font-weight="bold" fill="#5A3A08">Rt.1</text><line x1="200" y1="380" x2="200" y2="300" stroke="#A08040" stroke-width="5" stroke-linecap="round" opacity="0.6"/><line x1="200" y1="380" x2="200" y2="300" stroke="#E8D5A3" stroke-width="3" stroke-linecap="round" stroke-dasharray="7,5"/><rect x="180" y="331" width="40" height="15" rx="4" fill="rgba(240,220,160,0.9)"/><text x="200" y="342" text-anchor="middle" font-family="Arial,sans-serif" font-size="7.5" font-weight="bold" fill="#5A3A08">Rt.2</text><line x1="200" y1="300" x2="130" y2="300" stroke="#A08040" stroke-width="5" stroke-linecap="round" opacity="0.6"/><line x1="200" y1="300" x2="130" y2="300" stroke="#E8D5A3" stroke-width="3" stroke-linecap="round" stroke-dasharray="7,5"/><rect x="145" y="291" width="40" height="15" rx="4" fill="rgba(240,220,160,0.9)"/><text x="165" y="302" text-anchor="middle" font-family="Arial,sans-serif" font-size="7.5" font-weight="bold" fill="#5A3A08">Rt.3</text><line x1="130" y1="300" x2="130" y2="380" stroke="#A08040" stroke-width="5" stroke-linecap="round" opacity="0.6"/><line x1="130" y1="300" x2="130" y2="380" stroke="#E8D5A3" stroke-width="3" stroke-linecap="round" stroke-dasharray="7,5"/><rect x="110" y="331" width="40" height="15" rx="4" fill="rgba(240,220,160,0.9)"/><text x="130" y="342" text-anchor="middle" font-family="Arial,sans-serif" font-size="7.5" font-weight="bold" fill="#5A3A08">Rt.3b</text><line x1="330" y1="250" x2="410" y2="250" stroke="#A08040" stroke-width="5" stroke-linecap="round" opacity="0.6"/><line x1="330" y1="250" x2="410" y2="250" stroke="#E8D5A3" stroke-width="3" stroke-linecap="round" stroke-dasharray="7,5"/><rect x="350" y="241" width="40" height="15" rx="4" fill="rgba(240,220,160,0.9)"/><text x="370" y="252" text-anchor="middle" font-family="Arial,sans-serif" font-size="7.5" font-weight="bold" fill="#5A3A08">Rt.4</text><line x1="410" y1="250" x2="410" y2="170" stroke="#A08040" stroke-width="5" stroke-linecap="round" opacity="0.6"/><line x1="410" y1="250" x2="410" y2="170" stroke="#E8D5A3" stroke-width="3" stroke-linecap="round" stroke-dasharray="7,5"/><rect x="390" y="201" width="40" height="15" rx="4" fill="rgba(240,220,160,0.9)"/><text x="410" y="212" text-anchor="middle" font-family="Arial,sans-serif" font-size="7.5" font-weight="bold" fill="#5A3A08">Rt.5</text><line x1="410" y1="170" x2="330" y2="170" stroke="#A08040" stroke-width="5" stroke-linecap="round" opacity="0.6"/><line x1="410" y1="170" x2="330" y2="170" stroke="#E8D5A3" stroke-width="3" stroke-linecap="round" stroke-dasharray="7,5"/><rect x="350" y="161" width="40" height="15" rx="4" fill="rgba(240,220,160,0.9)"/><text x="370" y="172" text-anchor="middle" font-family="Arial,sans-serif" font-size="7.5" font-weight="bold" fill="#5A3A08">Rt.6</text><line x1="330" y1="170" x2="330" y2="250" stroke="#A08040" stroke-width="5" stroke-linecap="round" opacity="0.6"/><line x1="330" y1="170" x2="330" y2="250" stroke="#E8D5A3" stroke-width="3" stroke-linecap="round" stroke-dasharray="7,5"/><rect x="310" y="201" width="40" height="15" rx="4" fill="rgba(240,220,160,0.9)"/><text x="330" y="212" text-anchor="middle" font-family="Arial,sans-serif" font-size="7.5" font-weight="bold" fill="#5A3A08">Rt.6b</text><line x1="530" y1="130" x2="610" y2="130" stroke="#A08040" stroke-width="5" stroke-linecap="round" opacity="0.6"/><line x1="530" y1="130" x2="610" y2="130" stroke="#E8D5A3" stroke-width="3" stroke-linecap="round" stroke-dasharray="7,5"/><rect x="550" y="121" width="40" height="15" rx="4" fill="rgba(240,220,160,0.9)"/><text x="570" y="132" text-anchor="middle" font-family="Arial,sans-serif" font-size="7.5" font-weight="bold" fill="#5A3A08">Rt.9</text><line x1="610" y1="130" x2="610" y2="200" stroke="#A08040" stroke-width="5" stroke-linecap="round" opacity="0.6"/><line x1="610" y1="130" x2="610" y2="200" stroke="#E8D5A3" stroke-width="3" stroke-linecap="round" stroke-dasharray="7,5"/><rect x="590" y="156" width="40" height="15" rx="4" fill="rgba(240,220,160,0.9)"/><text x="610" y="167" text-anchor="middle" font-family="Arial,sans-serif" font-size="7.5" font-weight="bold" fill="#5A3A08">Rt.10</text><line x1="610" y1="200" x2="530" y2="200" stroke="#A08040" stroke-width="5" stroke-linecap="round" opacity="0.6"/><line x1="610" y1="200" x2="530" y2="200" stroke="#E8D5A3" stroke-width="3" stroke-linecap="round" stroke-dasharray="7,5"/><rect x="550" y="191" width="40" height="15" rx="4" fill="rgba(240,220,160,0.9)"/><text x="570" y="202" text-anchor="middle" font-family="Arial,sans-serif" font-size="7.5" font-weight="bold" fill="#5A3A08">Rt.11</text><line x1="530" y1="200" x2="530" y2="130" stroke="#A08040" stroke-width="5" stroke-linecap="round" opacity="0.6"/><line x1="530" y1="200" x2="530" y2="130" stroke="#E8D5A3" stroke-width="3" stroke-linecap="round" stroke-dasharray="7,5"/><rect x="510" y="156" width="40" height="15" rx="4" fill="rgba(240,220,160,0.9)"/><text x="530" y="167" text-anchor="middle" font-family="Arial,sans-serif" font-size="7.5" font-weight="bold" fill="#5A3A08">Rt.12</text><line x1="630" y1="360" x2="690" y2="360" stroke="#A08040" stroke-width="5" stroke-linecap="round" opacity="0.6"/><line x1="630" y1="360" x2="690" y2="360" stroke="#E8D5A3" stroke-width="3" stroke-linecap="round" stroke-dasharray="7,5"/><rect x="640" y="351" width="40" height="15" rx="4" fill="rgba(240,220,160,0.9)"/><text x="660" y="362" text-anchor="middle" font-family="Arial,sans-serif" font-size="7.5" font-weight="bold" fill="#5A3A08">Rt.15</text><line x1="690" y1="360" x2="690" y2="430" stroke="#A08040" stroke-width="5" stroke-linecap="round" opacity="0.6"/><line x1="690" y1="360" x2="690" y2="430" stroke="#E8D5A3" stroke-width="3" stroke-linecap="round" stroke-dasharray="7,5"/><rect x="670" y="386" width="40" height="15" rx="4" fill="rgba(240,220,160,0.9)"/><text x="690" y="397" text-anchor="middle" font-family="Arial,sans-serif" font-size="7.5" font-weight="bold" fill="#5A3A08">Rt.16</text><line x1="690" y1="430" x2="630" y2="430" stroke="#A08040" stroke-width="5" stroke-linecap="round" opacity="0.6"/><line x1="690" y1="430" x2="630" y2="430" stroke="#E8D5A3" stroke-width="3" stroke-linecap="round" stroke-dasharray="7,5"/><rect x="640" y="421" width="40" height="15" rx="4" fill="rgba(240,220,160,0.9)"/><text x="660" y="432" text-anchor="middle" font-family="Arial,sans-serif" font-size="7.5" font-weight="bold" fill="#5A3A08">Rt.17</text><line x1="630" y1="430" x2="630" y2="360" stroke="#A08040" stroke-width="5" stroke-linecap="round" opacity="0.6"/><line x1="630" y1="430" x2="630" y2="360" stroke="#E8D5A3" stroke-width="3" stroke-linecap="round" stroke-dasharray="7,5"/><rect x="610" y="386" width="40" height="15" rx="4" fill="rgba(240,220,160,0.9)"/><text x="630" y="397" text-anchor="middle" font-family="Arial,sans-serif" font-size="7.5" font-weight="bold" fill="#5A3A08">Rt.17b</text><line x1="200" y1="380" x2="330" y2="250" stroke="#A08040" stroke-width="5" stroke-linecap="round" opacity="0.6"/><line x1="200" y1="380" x2="330" y2="250" stroke="#E8D5A3" stroke-width="3" stroke-linecap="round" stroke-dasharray="7,5"/><rect x="245" y="306" width="40" height="15" rx="4" fill="rgba(240,220,160,0.9)"/><text x="265" y="317" text-anchor="middle" font-family="Arial,sans-serif" font-size="7.5" font-weight="bold" fill="#5A3A08">between islands</text><line x1="410" y1="250" x2="530" y2="130" stroke="#A08040" stroke-width="5" stroke-linecap="round" opacity="0.6"/><line x1="410" y1="250" x2="530" y2="130" stroke="#E8D5A3" stroke-width="3" stroke-linecap="round" stroke-dasharray="7,5"/><rect x="450" y="181" width="40" height="15" rx="4" fill="rgba(240,220,160,0.9)"/><text x="470" y="192" text-anchor="middle" font-family="Arial,sans-serif" font-size="7.5" font-weight="bold" fill="#5A3A08">between islands</text><line x1="530" y1="200" x2="630" y2="360" stroke="#A08040" stroke-width="5" stroke-linecap="round" opacity="0.6"/><line x1="530" y1="200" x2="630" y2="360" stroke="#E8D5A3" stroke-width="3" stroke-linecap="round" stroke-dasharray="7,5"/><rect x="560" y="271" width="40" height="15" rx="4" fill="rgba(240,220,160,0.9)"/><text x="580" y="282" text-anchor="middle" font-family="Arial,sans-serif" font-size="7.5" font-weight="bold" fill="#5A3A08">between islands</text><rect x="122" y="372" width="16" height="16" rx="3" fill="white" stroke="#FD7D24" stroke-width="1.5" filter="url(#sh)"/><rect x="126" y="372" width="8" height="5" rx="1" fill="#FD7D24" opacity="0.85"/><text x="130" y="400" text-anchor="middle" font-family="Arial,sans-serif" font-size="8" font-weight="600" fill="white" stroke="rgba(0,40,0,0.9)" stroke-width="3" paint-order="stroke">Iki Town</text><text x="130" y="400" text-anchor="middle" font-family="Arial,sans-serif" font-size="8" font-weight="600" fill="#111">Iki Town</text><rect x="189" y="369" width="22" height="22" rx="3" fill="white" stroke="#FD7D24" stroke-width="2.5" filter="url(#sh)"/><rect x="196" y="369" width="8" height="6" rx="1" fill="#FD7D24" opacity="0.85"/><line x1="200" y1="364" x2="200" y2="369" stroke="#FD7D24" stroke-width="1.5"/><text x="200" y="403" text-anchor="middle" font-family="Arial,sans-serif" font-size="9" font-weight="bold" fill="white" stroke="rgba(0,40,0,0.9)" stroke-width="3" paint-order="stroke">Hau'oli City</text><text x="200" y="403" text-anchor="middle" font-family="Arial,sans-serif" font-size="9" font-weight="bold" fill="#111">Hau'oli City</text><rect x="189" y="289" width="22" height="22" rx="3" fill="white" stroke="#FD7D24" stroke-width="2.5" filter="url(#sh)"/><rect x="196" y="289" width="8" height="6" rx="1" fill="#FD7D24" opacity="0.85"/><line x1="200" y1="284" x2="200" y2="289" stroke="#FD7D24" stroke-width="1.5"/><text x="200" y="323" text-anchor="middle" font-family="Arial,sans-serif" font-size="9" font-weight="bold" fill="white" stroke="rgba(0,40,0,0.9)" stroke-width="3" paint-order="stroke">Heahea City</text><text x="200" y="323" text-anchor="middle" font-family="Arial,sans-serif" font-size="9" font-weight="bold" fill="#111">Heahea City</text><rect x="122" y="292" width="16" height="16" rx="3" fill="white" stroke="#FD7D24" stroke-width="1.5" filter="url(#sh)"/><rect x="126" y="292" width="8" height="5" rx="1" fill="#FD7D24" opacity="0.85"/><text x="130" y="320" text-anchor="middle" font-family="Arial,sans-serif" font-size="8" font-weight="600" fill="white" stroke="rgba(0,40,0,0.9)" stroke-width="3" paint-order="stroke">Paniola Town</text><text x="130" y="320" text-anchor="middle" font-family="Arial,sans-serif" font-size="8" font-weight="600" fill="#111">Paniola Town</text><rect x="319" y="239" width="22" height="22" rx="3" fill="white" stroke="#FD7D24" stroke-width="2.5" filter="url(#sh)"/><rect x="326" y="239" width="8" height="6" rx="1" fill="#FD7D24" opacity="0.85"/><line x1="330" y1="234" x2="330" y2="239" stroke="#FD7D24" stroke-width="1.5"/><text x="330" y="273" text-anchor="middle" font-family="Arial,sans-serif" font-size="9" font-weight="bold" fill="white" stroke="rgba(0,40,0,0.9)" stroke-width="3" paint-order="stroke">Konikoni City</text><text x="330" y="273" text-anchor="middle" font-family="Arial,sans-serif" font-size="9" font-weight="bold" fill="#111">Konikoni City</text><rect x="399" y="239" width="22" height="22" rx="3" fill="white" stroke="#FD7D24" stroke-width="2.5" filter="url(#sh)"/><rect x="406" y="239" width="8" height="6" rx="1" fill="#FD7D24" opacity="0.85"/><line x1="410" y1="234" x2="410" y2="239" stroke="#FD7D24" stroke-width="1.5"/><text x="410" y="273" text-anchor="middle" font-family="Arial,sans-serif" font-size="9" font-weight="bold" fill="white" stroke="rgba(0,40,0,0.9)" stroke-width="3" paint-order="stroke">Malie City</text><text x="410" y="273" text-anchor="middle" font-family="Arial,sans-serif" font-size="9" font-weight="bold" fill="#111">Malie City</text><rect x="402" y="162" width="16" height="16" rx="3" fill="white" stroke="#FD7D24" stroke-width="1.5" filter="url(#sh)"/><rect x="406" y="162" width="8" height="5" rx="1" fill="#FD7D24" opacity="0.85"/><text x="410" y="190" text-anchor="middle" font-family="Arial,sans-serif" font-size="8" font-weight="600" fill="white" stroke="rgba(0,40,0,0.9)" stroke-width="3" paint-order="stroke">Tapu Village</text><text x="410" y="190" text-anchor="middle" font-family="Arial,sans-serif" font-size="8" font-weight="600" fill="#111">Tapu Village</text><rect x="322" y="162" width="16" height="16" rx="3" fill="white" stroke="#FD7D24" stroke-width="1.5" filter="url(#sh)"/><rect x="326" y="162" width="8" height="5" rx="1" fill="#FD7D24" opacity="0.85"/><text x="330" y="190" text-anchor="middle" font-family="Arial,sans-serif" font-size="8" font-weight="600" fill="white" stroke="rgba(0,40,0,0.9)" stroke-width="3" paint-order="stroke">Po Town</text><text x="330" y="190" text-anchor="middle" font-family="Arial,sans-serif" font-size="8" font-weight="600" fill="#111">Po Town</text><rect x="519" y="119" width="22" height="22" rx="3" fill="white" stroke="#FD7D24" stroke-width="2.5" filter="url(#sh)"/><rect x="526" y="119" width="8" height="6" rx="1" fill="#FD7D24" opacity="0.85"/><line x1="530" y1="114" x2="530" y2="119" stroke="#FD7D24" stroke-width="1.5"/><text x="530" y="153" text-anchor="middle" font-family="Arial,sans-serif" font-size="9" font-weight="bold" fill="white" stroke="rgba(0,40,0,0.9)" stroke-width="3" paint-order="stroke">Seafolk Village</text><text x="530" y="153" text-anchor="middle" font-family="Arial,sans-serif" font-size="9" font-weight="bold" fill="#111">Seafolk Village</text><rect x="602" y="122" width="16" height="16" rx="3" fill="white" stroke="#FD7D24" stroke-width="1.5" filter="url(#sh)"/><rect x="606" y="122" width="8" height="5" rx="1" fill="#FD7D24" opacity="0.85"/><text x="610" y="150" text-anchor="middle" font-family="Arial,sans-serif" font-size="8" font-weight="600" fill="white" stroke="rgba(0,40,0,0.9)" stroke-width="3" paint-order="stroke">Poni Wilds</text><text x="610" y="150" text-anchor="middle" font-family="Arial,sans-serif" font-size="8" font-weight="600" fill="#111">Poni Wilds</text><rect x="602" y="192" width="16" height="16" rx="3" fill="white" stroke="#FD7D24" stroke-width="1.5" filter="url(#sh)"/><rect x="606" y="192" width="8" height="5" rx="1" fill="#FD7D24" opacity="0.85"/><text x="610" y="220" text-anchor="middle" font-family="Arial,sans-serif" font-size="8" font-weight="600" fill="white" stroke="rgba(0,40,0,0.9)" stroke-width="3" paint-order="stroke">Altar of the Sunne</text><text x="610" y="220" text-anchor="middle" font-family="Arial,sans-serif" font-size="8" font-weight="600" fill="#111">Altar of the Sunne</text><rect x="522" y="192" width="16" height="16" rx="3" fill="white" stroke="#FD7D24" stroke-width="1.5" filter="url(#sh)"/><rect x="526" y="192" width="8" height="5" rx="1" fill="#FD7D24" opacity="0.85"/><text x="530" y="220" text-anchor="middle" font-family="Arial,sans-serif" font-size="8" font-weight="600" fill="white" stroke="rgba(0,40,0,0.9)" stroke-width="3" paint-order="stroke">Resolution Cave</text><text x="530" y="220" text-anchor="middle" font-family="Arial,sans-serif" font-size="8" font-weight="600" fill="#111">Resolution Cave</text><rect x="622" y="352" width="16" height="16" rx="3" fill="white" stroke="#FD7D24" stroke-width="1.5" filter="url(#sh)"/><rect x="626" y="352" width="8" height="5" rx="1" fill="#FD7D24" opacity="0.85"/><text x="630" y="380" text-anchor="middle" font-family="Arial,sans-serif" font-size="8" font-weight="600" fill="white" stroke="rgba(0,40,0,0.9)" stroke-width="3" paint-order="stroke">Aether Paradise</text><text x="630" y="380" text-anchor="middle" font-family="Arial,sans-serif" font-size="8" font-weight="600" fill="#111">Aether Paradise</text><rect x="682" y="352" width="16" height="16" rx="3" fill="white" stroke="#FD7D24" stroke-width="1.5" filter="url(#sh)"/><rect x="686" y="352" width="8" height="5" rx="1" fill="#FD7D24" opacity="0.85"/><text x="690" y="380" text-anchor="middle" font-family="Arial,sans-serif" font-size="8" font-weight="600" fill="white" stroke="rgba(0,40,0,0.9)" stroke-width="3" paint-order="stroke">Battle Tree</text><text x="690" y="380" text-anchor="middle" font-family="Arial,sans-serif" font-size="8" font-weight="600" fill="#111">Battle Tree</text><rect x="682" y="422" width="16" height="16" rx="3" fill="white" stroke="#FD7D24" stroke-width="1.5" filter="url(#sh)"/><rect x="686" y="422" width="8" height="5" rx="1" fill="#FD7D24" opacity="0.85"/><text x="690" y="450" text-anchor="middle" font-family="Arial,sans-serif" font-size="8" font-weight="600" fill="white" stroke="rgba(0,40,0,0.9)" stroke-width="3" paint-order="stroke">Festival Plaza</text><text x="690" y="450" text-anchor="middle" font-family="Arial,sans-serif" font-size="8" font-weight="600" fill="#111">Festival Plaza</text><rect x="622" y="422" width="16" height="16" rx="3" fill="white" stroke="#FD7D24" stroke-width="1.5" filter="url(#sh)"/><rect x="626" y="422" width="8" height="5" rx="1" fill="#FD7D24" opacity="0.85"/><text x="630" y="450" text-anchor="middle" font-family="Arial,sans-serif" font-size="8" font-weight="600" fill="white" stroke="rgba(0,40,0,0.9)" stroke-width="3" paint-order="stroke">Battle Royal Dome</text><text x="630" y="450" text-anchor="middle" font-family="Arial,sans-serif" font-size="8" font-weight="600" fill="#111">Battle Royal Dome</text><rect x="0" y="494" width="760" height="26" fill="rgba(0,0,0,0.5)"/><text x="10" y="511" font-family="Arial,sans-serif" font-size="11" font-weight="bold" fill="rgba(255,255,255,0.9)">Sun · Moon · Ultra Sun · Ultra Moon</text>
</svg>