<?xml version="1.0" encoding="UTF-8"?>
<svg width="760" height="520" xmlns="http://www.w3.org/2000/svg">
  <defs>
    <linearGradient id="water" x1="0" y1="0" x2="0" y2="1">
      <stop offset="0%" stop-color="#5B9BD5"/><stop offset="100%" stop-color="#3A7FBF"/>
    </linearGradient>
    <filter id="sh"><feDropShadow dx="0" dy="1" stdDeviation="1.5" flood-opacity="0.35"/></filter>
  </defs><rect width="760" height="520" fill="url(#water)"/><line x1="0" y1="15" x2="760" y2="15" stroke="rgba(255,255,255,0.05)" stroke-width="1"/><line x1="0" y1="40" x2="760" y2="40" stroke="rgba(255,255,255,0.05)" stroke-width="1"/><line x1="0" y1="65" x2="760" y2="65" stroke="rgba(255,255,255,0.05)" stroke-width="1"/><line x1="0" y1="90" x2="760" y2="90" stroke="rgba(255,255,255,0.05)" stroke-width="1"/><line x1="0" y1="115" x2="760" y2="115" stroke="rgba(255,255,255,0.05)" stroke-width="1"/><line x1="0" y1="140" x2="760" y2="140" stroke="rgba(255,255,255,0.05)" stroke-width="1"/><line x1="0" y1="165" x2="760" y2="165" stroke="rgba(255,255,255,0.05)" stroke-width="1"/><line x1="0" y1="190" x2="760" y2="190" stroke="rgba(255,255,255,0.05)" stroke-width="1"/><line x1="0" y1="215" x2="760" y2="215" stroke="rgba(255,255,255,0.05)" stroke-width="1"/><line x1="0" y1="240" x2="760" y2="240" stroke="rgba(255,255,255,0.05)" stroke-width="1"/><line x1="0" y1="265" x2="760" y2="265" stroke="rgba(255,255,255,0.05)" stroke-width="1"/><line x1="0" y1="290" x2="760" y2="290" stroke="rgba(255,255,255,0.05)" stroke-width="1"/><line x1="0" y1="315" x2="760" y2="315" stroke="rgba(255,255,255,0.05)" stroke-width="1"/><line x1="0" y1="340" x2="760" y2="340" stroke="rgba(255,255,255,0.05)" stroke-width="1"/><line x1="0" y1="365" x2="760" y2="365" stroke="rgba(255,255,255,0.05)" stroke-width="1"/><line x1="0" y1="390" x2="760" y2="390" stroke="rgba(255,255,255,0.05)" stroke-width="1"/><line x1="0" y1="415" x2="760" y2="415" stroke="rgba(255,255,255,0.05)" stroke-width="1"/><line x1="0" y1="440" x2="760" y2="440" stroke="rgba(255,255,255,0.05)" stroke-width="1"/><line x1="0" y1="465" x2="760" y2="465" stroke="rgba(255,255,255,0.05)" stroke-width="1"/><line x1="0" y1="490" x2="760" y2="490" stroke="rgba(255,255,255,0.05)" stroke-width="1"/><line x1="0" y1="515" x2="760" y2="515" stroke="rgba(255,255,255,0.05)" stroke-width="1"/><polygon points="80,60 620,60 620,470 80,470 80,60" fill="#8BBF6E" stroke="#5A9A45" stroke-width="1.5"/><rect x="0" y="0" width="80" height="520" fill="url(#water)" rx="5" opacity="0.85"/><rect x="620" y="0" width="140" height="520" fill="url(#water)" rx="5" opacity="0.85"/><rect x="80" y="450" width="540" height="70" fill="url(#water)" rx="5" opacity="0.85"/><polygon points="330,162 317,185 343,185" fill="#9B8F7A" stroke="#7A6E5C" stroke-width="1"/><polygon points="330,162 325,175 335,175" fill="rgba(255,255,255,0.55)"/><polygon points="310,152 297,175 323,175" fill="#9B8F7A" stroke="#7A6E5C" stroke-width="1"/><polygon points="310,152 305,165 315,165" fill="rgba(255,255,255,0.55)"/><polygon points="350,152 337,175 363,175" fill="#9B8F7A" stroke="#7A6E5C" stroke-width="1"/><polygon points="350,152 345,165 355,165" fill="rgba(255,255,255,0.55)"/><circle cx="230" cy="280" r="8" fill="#4A8A3A" opacity="0.8"/><circle cx="239" cy="284" r="8" fill="#4A8A3A" opacity="0.8"/><circle cx="223" cy="285" r="8" fill="#4A8A3A" opacity="0.8"/><circle cx="250" cy="290" r="8" fill="#4A8A3A" opacity="0.8"/><circle cx="259" cy="294" r="8" fill="#4A8A3A" opacity="0.8"/><circle cx="243" cy="295" r="8" fill="#4A8A3A" opacity="0.8"/><circle cx="450" cy="280" r="8" fill="#4A8A3A" opacity="0.8"/><circle cx="459" cy="284" r="8" fill="#4A8A3A" opacity="0.8"/><circle cx="443" cy="285" r="8" fill="#4A8A3A" opacity="0.8"/><circle cx="430" cy="290" r="8" fill="#4A8A3A" opacity="0.8"/><circle cx="439" cy="294" r="8" fill="#4A8A3A" opacity="0.8"/><circle cx="423" cy="295" r="8" fill="#4A8A3A" opacity="0.8"/><line x1="160" y1="430" x2="270" y2="430" stroke="#A08040" stroke-width="5" stroke-linecap="round" opacity="0.6"/><line x1="160" y1="430" x2="270" y2="430" stroke="#E8D5A3" stroke-width="3" stroke-linecap="round" stroke-dasharray="7,5"/><rect x="195" y="421" width="40" height="15" rx="4" fill="rgba(240,220,160,0.9)"/><text x="215" y="432" text-anchor="middle" font-family="Arial,sans-serif" font-size="7.5" font-weight="bold" fill="#5A3A08">Rt.1</text><line x1="270" y1="430" x2="380" y2="430" stroke="#A08040" stroke-width="5" stroke-linecap="round" opacity="0.6"/><line x1="270" y1="430" x2="380" y2="430" stroke="#E8D5A3" stroke-width="3" stroke-linecap="round" stroke-dasharray="7,5"/><rect x="305" y="421" width="40" height="15" rx="4" fill="rgba(240,220,160,0.9)"/><text x="325" y="432" text-anchor="middle" font-family="Arial,sans-serif" font-size="7.5" font-weight="bold" fill="#5A3A08">Rt.2</text><line x1="380" y1="430" x2="490" y2="430" stroke="#A08040" stroke-width="5" stroke-linecap="round" opacity="0.6"/><line x1="380" y1="430" x2="490" y2="430" stroke="#E8D5A3" stroke-width="3" stroke-linecap="round" stroke-dasharray="7,5"/><rect x="415" y="421" width="40" height="15" rx="4" fill="rgba(240,220,160,0.9)"/><text x="435" y="432" text-anchor="middle" font-family="Arial,sans-serif" font-size="7.5" font-weight="bold" fill="#5A3A08">Rt.3</text><line x1="490" y1="430" x2="490" y2="330" stroke="#A08040" stroke-width="5" stroke-linecap="round" opacity="0.6"/><line x1="490" y1="430" x2="490" y2="330" stroke="#E8D5A3" stroke-width="3" stroke-linecap="round" stroke-dasharray="7,5"/><rect x="470" y="371" width="40" height="15" rx="4" fill="rgba(240,220,160,0.9)"/><text x="490" y="382" text-anchor="middle" font-family="Arial,sans-serif" font-size="7.5" font-weight="bold" fill="#5A3A08">Rt.4</text><line x1="490" y1="330" x2="380" y2="330" stroke="#A08040" stroke-width="5" stroke-linecap="round" opacity="0.6"/><line x1="490" y1="330" x2="380" y2="330" stroke="#E8D5A3" stroke-width="3" stroke-linecap="round" stroke-dasharray="7,5"/><rect x="415" y="321" width="40" height="15" rx="4" fill="rgba(240,220,160,0.9)"/><text x="435" y="332" text-anchor="middle" font-family="Arial,sans-serif" font-size="7.5" font-weight="bold" fill="#5A3A08">Rt.4b</text><line x1="380" y1="330" x2="270" y2="330" stroke="#A08040" stroke-width="5" stroke-linecap="round" opacity="0.6"/><line x1="380" y1="330" x2="270" y2="330" stroke="#E8D5A3" stroke-width="3" stroke-linecap="round" stroke-dasharray="7,5"/><rect x="305" y="321" width="40" height="15" rx="4" fill="rgba(240,220,160,0.9)"/><text x="325" y="332" text-anchor="middle" font-family="Arial,sans-serif" font-size="7.5" font-weight="bold" fill="#5A3A08">Wild Area South</text><line x1="270" y1="330" x2="160" y2="330" stroke="#A08040" stroke-width="5" stroke-linecap="round" opacity="0.6"/><line x1="270" y1="330" x2="160" y2="330" stroke="#E8D5A3" stroke-width="3" stroke-linecap="round" stroke-dasharray="7,5"/><rect x="195" y="321" width="40" height="15" rx="4" fill="rgba(240,220,160,0.9)"/><text x="215" y="332" text-anchor="middle" font-family="Arial,sans-serif" font-size="7.5" font-weight="bold" fill="#5A3A08">Rt.5</text><line x1="160" y1="330" x2="160" y2="230" stroke="#A08040" stroke-width="5" stroke-linecap="round" opacity="0.6"/><line x1="160" y1="330" x2="160" y2="230" stroke="#E8D5A3" stroke-width="3" stroke-linecap="round" stroke-dasharray="7,5"/><rect x="140" y="271" width="40" height="15" rx="4" fill="rgba(240,220,160,0.9)"/><text x="160" y="282" text-anchor="middle" font-family="Arial,sans-serif" font-size="7.5" font-weight="bold" fill="#5A3A08">Rt.6</text><line x1="160" y1="230" x2="270" y2="230" stroke="#A08040" stroke-width="5" stroke-linecap="round" opacity="0.6"/><line x1="160" y1="230" x2="270" y2="230" stroke="#E8D5A3" stroke-width="3" stroke-linecap="round" stroke-dasharray="7,5"/><rect x="195" y="221" width="40" height="15" rx="4" fill="rgba(240,220,160,0.9)"/><text x="215" y="232" text-anchor="middle" font-family="Arial,sans-serif" font-size="7.5" font-weight="bold" fill="#5A3A08">Rt.7</text><line x1="270" y1="230" x2="380" y2="230" stroke="#A08040" stroke-width="5" stroke-linecap="round" opacity="0.6"/><line x1="270" y1="230" x2="380" y2="230" stroke="#E8D5A3" stroke-width="3" stroke-linecap="round" stroke-dasharray="7,5"/><rect x="305" y="221" width="40" height="15" rx="4" fill="rgba(240,220,160,0.9)"/><text x="325" y="232" text-anchor="middle" font-family="Arial,sans-serif" font-size="7.5" font-weight="bold" fill="#5A3A08">Wild Area North</text><line x1="380" y1="230" x2="490" y2="230" stroke="#A08040" stroke-width="5" stroke-linecap="round" opacity="0.6"/><line x1="380" y1="230" x2="490" y2="230" stroke="#E8D5A3" stroke-width="3" stroke-linecap="round" stroke-dasharray="7,5"/><rect x="415" y="221" width="40" height="15" rx="4" fill="rgba(240,220,160,0.9)"/><text x="435" y="232" text-anchor="middle" font-family="Arial,sans-serif" font-size="7.5" font-weight="bold" fill="#5A3A08">Rt.8</text><line x1="490" y1="230" x2="490" y2="130" stroke="#A08040" stroke-width="5" stroke-linecap="round" opacity="0.6"/><line x1="490" y1="230" x2="490" y2="130" stroke="#E8D5A3" stroke-width="3" stroke-linecap="round" stroke-dasharray="7,5"/><rect x="470" y="171" width="40" height="15" rx="4" fill="rgba(240,220,160,0.9)"/><text x="490" y="182" text-anchor="middle" font-family="Arial,sans-serif" font-size="7.5" font-weight="bold" fill="#5A3A08">Rt.9</text><line x1="490" y1="130" x2="380" y2="130" stroke="#A08040" stroke-width="5" stroke-linecap="round" opacity="0.6"/><line x1="490" y1="130" x2="380" y2="130" stroke="#E8D5A3" stroke-width="3" stroke-linecap="round" stroke-dasharray="7,5"/><rect x="415" y="121" width="40" height="15" rx="4" fill="rgba(240,220,160,0.9)"/><text x="435" y="132" text-anchor="middle" font-family="Arial,sans-serif" font-size="7.5" font-weight="bold" fill="#5A3A08">Rt.9b</text><line x1="380" y1="130" x2="270" y2="130" stroke="#A08040" stroke-width="5" stroke-linecap="round" opacity="0.6"/><line x1="380" y1="130" x2="270" y2="130" stroke="#E8D5A3" stroke-width="3" stroke-linecap="round" stroke-dasharray="7,5"/><rect x="305" y="121" width="40" height="15" rx="4" fill="rgba(240,220,160,0.9)"/><text x="325" y="132" text-anchor="middle" font-family="Arial,sans-serif" font-size="7.5" font-weight="bold" fill="#5A3A08">Rt.10</text><line x1="270" y1="130" x2="160" y2="130" stroke="#A08040" stroke-width="5" stroke-linecap="round" opacity="0.6"/><line x1="270" y1="130" x2="160" y2="130" stroke="#E8D5A3" stroke-width="3" stroke-linecap="round" stroke-dasharray="7,5"/><rect x="195" y="121" width="40" height="15" rx="4" fill="rgba(240,220,160,0.9)"/><text x="215" y="132" text-anchor="middle" font-family="Arial,sans-serif" font-size="7.5" font-weight="bold" fill="#5A3A08">Rt.10b</text><line x1="160" y1="130" x2="160" y2="230" stroke="#A08040" stroke-width="5" stroke-linecap="round" opacity="0.6"/><line x1="160" y1="130" x2="160" y2="230" stroke="#E8D5A3" stroke-width="3" stroke-linecap="round" stroke-dasharray="7,5"/><rect x="140" y="171" width="40" height="15" rx="4" fill="rgba(240,220,160,0.9)"/><text x="160" y="182" text-anchor="middle" font-family="Arial,sans-serif" font-size="7.5" font-weight="bold" fill="#5A3A08">Rt.10c</text><line x1="270" y1="430" x2="270" y2="330" stroke="#A08040" stroke-width="5" stroke-linecap="round" opacity="0.6"/><line x1="270" y1="430" x2="270" y2="330" stroke="#E8D5A3" stroke-width="3" stroke-linecap="round" stroke-dasharray="7,5"/><rect x="250" y="371" width="40" height="15" rx="4" fill="rgba(240,220,160,0.9)"/><text x="270" y="382" text-anchor="middle" font-family="Arial,sans-serif" font-size="7.5" font-weight="bold" fill="#5A3A08">Cut 1</text><line x1="380" y1="430" x2="380" y2="330" stroke="#A08040" stroke-width="5" stroke-linecap="round" opacity="0.6"/><line x1="380" y1="430" x2="380" y2="330" stroke="#E8D5A3" stroke-width="3" stroke-linecap="round" stroke-dasharray="7,5"/><rect x="360" y="371" width="40" height="15" rx="4" fill="rgba(240,220,160,0.9)"/><text x="380" y="382" text-anchor="middle" font-family="Arial,sans-serif" font-size="7.5" font-weight="bold" fill="#5A3A08">Cut 2</text><line x1="270" y1="330" x2="270" y2="230" stroke="#A08040" stroke-width="5" stroke-linecap="round" opacity="0.6"/><line x1="270" y1="330" x2="270" y2="230" stroke="#E8D5A3" stroke-width="3" stroke-linecap="round" stroke-dasharray="7,5"/><rect x="250" y="271" width="40" height="15" rx="4" fill="rgba(240,220,160,0.9)"/><text x="270" y="282" text-anchor="middle" font-family="Arial,sans-serif" font-size="7.5" font-weight="bold" fill="#5A3A08">Cut 3</text><line x1="380" y1="330" x2="380" y2="230" stroke="#A08040" stroke-width="5" stroke-linecap="round" opacity="0.6"/><line x1="380" y1="330" x2="380" y2="230" stroke="#E8D5A3" stroke-width="3" stroke-linecap="round" stroke-dasharray="7,5"/><rect x="360" y="271" width="40" height="15" rx="4" fill="rgba(240,220,160,0.9)"/><text x="380" y="282" text-anchor="middle" font-family="Arial,sans-serif" font-size="7.5" font-weight="bold" fill="#5A3A08">Cut 4</text><rect x="152" y="422" width="16" height="16" rx="3" fill="white" stroke="#5DAA56" stroke-width="1.5" filter="url(#sh)"/><rect x="156" y="422" width="8" height="5" rx="1" fill="#5DAA56" opacity="0.85"/><text x="160" y="450" text-anchor="middle" font-family="Arial,sans-serif" font-size="8" font-weight="600" fill="white" stroke="rgba(0,40,0,0.9)" stroke-width="3" paint-order="stroke">Postwick</text><text x="160" y="450" text-anchor="middle" font-family="Arial,sans-serif" font-size="8" font-weight="600" fill="#111">Postwick</text><rect x="262" y="422" width="16" height="16" rx="3" fill="white" stroke="#5DAA56" stroke-width="1.5" filter="url(#sh)"/><rect x="266" y="422" width="8" height="5" rx="1" fill="#5DAA56" opacity="0.85"/><text x="270" y="450" text-anchor="middle" font-family="Arial,sans-serif" font-size="8" font-weight="600" fill="white" stroke="rgba(0,40,0,0.9)" stroke-width="3" paint-order="stroke">Wedgehurst</text><text x="270" y="450" text-anchor="middle" font-family="Arial,sans-serif" font-size="8" font-weight="600" fill="#111">Wedgehurst</text><rect x="369" y="419" width="22" height="22" rx="3" fill="white" stroke="#5DAA56" stroke-width="2.5" filter="url(#sh)"/><rect x="376" y="419" width="8" height="6" rx="1" fill="#5DAA56" opacity="0.85"/><line x1="380" y1="414" x2="380" y2="419" stroke="#5DAA56" stroke-width="1.5"/><text x="380" y="453" text-anchor="middle" font-family="Arial,sans-serif" font-size="9" font-weight="bold" fill="white" stroke="rgba(0,40,0,0.9)" stroke-width="3" paint-order="stroke">Motostoke</text><text x="380" y="453" text-anchor="middle" font-family="Arial,sans-serif" font-size="9" font-weight="bold" fill="#111">Motostoke</text><rect x="479" y="419" width="22" height="22" rx="3" fill="white" stroke="#5DAA56" stroke-width="2.5" filter="url(#sh)"/><rect x="486" y="419" width="8" height="6" rx="1" fill="#5DAA56" opacity="0.85"/><line x1="490" y1="414" x2="490" y2="419" stroke="#5DAA56" stroke-width="1.5"/><text x="490" y="453" text-anchor="middle" font-family="Arial,sans-serif" font-size="9" font-weight="bold" fill="white" stroke="rgba(0,40,0,0.9)" stroke-width="3" paint-order="stroke">Turffield</text><text x="490" y="453" text-anchor="middle" font-family="Arial,sans-serif" font-size="9" font-weight="bold" fill="#111">Turffield</text><rect x="479" y="319" width="22" height="22" rx="3" fill="white" stroke="#5DAA56" stroke-width="2.5" filter="url(#sh)"/><rect x="486" y="319" width="8" height="6" rx="1" fill="#5DAA56" opacity="0.85"/><line x1="490" y1="314" x2="490" y2="319" stroke="#5DAA56" stroke-width="1.5"/><text x="490" y="353" text-anchor="middle" font-family="Arial,sans-serif" font-size="9" font-weight="bold" fill="white" stroke="rgba(0,40,0,0.9)" stroke-width="3" paint-order="stroke">Hulbury</text><text x="490" y="353" text-anchor="middle" font-family="Arial,sans-serif" font-size="9" font-weight="bold" fill="#111">Hulbury</text><rect x="369" y="319" width="22" height="22" rx="3" fill="white" stroke="#5DAA56" stroke-width="2.5" filter="url(#sh)"/><rect x="376" y="319" width="8" height="6" rx="1" fill="#5DAA56" opacity="0.85"/><line x1="380" y1="314" x2="380" y2="319" stroke="#5DAA56" stroke-width="1.5"/><text x="380" y="353" text-anchor="middle" font-family="Arial,sans-serif" font-size="9" font-weight="bold" fill="white" stroke="rgba(0,40,0,0.9)" stroke-width="3" paint-order="stroke">Hammerlocke</text><text x="380" y="353" text-anchor="middle" font-family="Arial,sans-serif" font-size="9" font-weight="bold" fill="#111">Hammerlocke</text><rect x="259" y="319" width="22" height="22" rx="3" fill="white" stroke="#5DAA56" stroke-width="2.5" filter="url(#sh)"/><rect x="266" y="319" width="8" height="6" rx="1" fill="#5DAA56" opacity="0.85"/><line x1="270" y1="314" x2="270" y2="319" stroke="#5DAA56" stroke-width="1.5"/><text x="270" y="353" text-anchor="middle" font-family="Arial,sans-serif" font-size="9" font-weight="bold" fill="white" stroke="rgba(0,40,0,0.9)" stroke-width="3" paint-order="stroke">Stow-on-Side</text><text x="270" y="353" text-anchor="middle" font-family="Arial,sans-serif" font-size="9" font-weight="bold" fill="#111">Stow-on-Side</text><rect x="149" y="319" width="22" height="22" rx="3" fill="white" stroke="#5DAA56" stroke-width="2.5" filter="url(#sh)"/><rect x="156" y="319" width="8" height="6" rx="1" fill="#5DAA56" opacity="0.85"/><line x1="160" y1="314" x2="160" y2="319" stroke="#5DAA56" stroke-width="1.5"/><text x="160" y="353" text-anchor="middle" font-family="Arial,sans-serif" font-size="9" font-weight="bold" fill="white" stroke="rgba(0,40,0,0.9)" stroke-width="3" paint-order="stroke">Ballonlea</text><text x="160" y="353" text-anchor="middle" font-family="Arial,sans-serif" font-size="9" font-weight="bold" fill="#111">Ballonlea</text><rect x="149" y="219" width="22" height="22" rx="3" fill="white" stroke="#5DAA56" stroke-width="2.5" filter="url(#sh)"/><rect x="156" y="219" width="8" height="6" rx="1" fill="#5DAA56" opacity="0.85"/><line x1="160" y1="214" x2="160" y2="219" stroke="#5DAA56" stroke-width="1.5"/><text x="160" y="253" text-anchor="middle" font-family="Arial,sans-serif" font-size="9" font-weight="bold" fill="white" stroke="rgba(0,40,0,0.9)" stroke-width="3" paint-order="stroke">Circhester</text><text x="160" y="253" text-anchor="middle" font-family="Arial,sans-serif" font-size="9" font-weight="bold" fill="#111">Circhester</text><rect x="262" y="222" width="16" height="16" rx="3" fill="white" stroke="#5DAA56" stroke-width="1.5" filter="url(#sh)"/><rect x="266" y="222" width="8" height="5" rx="1" fill="#5DAA56" opacity="0.85"/><text x="270" y="250" text-anchor="middle" font-family="Arial,sans-serif" font-size="8" font-weight="600" fill="white" stroke="rgba(0,40,0,0.9)" stroke-width="3" paint-order="stroke">Spikemuth</text><text x="270" y="250" text-anchor="middle" font-family="Arial,sans-serif" font-size="8" font-weight="600" fill="#111">Spikemuth</text><rect x="369" y="219" width="22" height="22" rx="3" fill="white" stroke="#5DAA56" stroke-width="2.5" filter="url(#sh)"/><rect x="376" y="219" width="8" height="6" rx="1" fill="#5DAA56" opacity="0.85"/><line x1="380" y1="214" x2="380" y2="219" stroke="#5DAA56" stroke-width="1.5"/><text x="380" y="253" text-anchor="middle" font-family="Arial,sans-serif" font-size="9" font-weight="bold" fill="white" stroke="rgba(0,40,0,0.9)" stroke-width="3" paint-order="stroke">Wyndon</text><text x="380" y="253" text-anchor="middle" font-family="Arial,sans-serif" font-size="9" font-weight="bold" fill="#111">Wyndon</text><rect x="482" y="222" width="16" height="16" rx="3" fill="white" stroke="#5DAA56" stroke-width="1.5" filter="url(#sh)"/><rect x="486" y="222" width="8" height="5" rx="1" fill="#5DAA56" opacity="0.85"/><text x="490" y="250" text-anchor="middle" font-family="Arial,sans-serif" font-size="8" font-weight="600" fill="white" stroke="rgba(0,40,0,0.9)" stroke-width="3" paint-order="stroke">Pokémon League</text><text x="490" y="250" text-anchor="middle" font-family="Arial,sans-serif" font-size="8" font-weight="600" fill="#111">Pokémon League</text><rect x="482" y="122" width="16" height="16" rx="3" fill="white" stroke="#5DAA56" stroke-width="1.5" filter="url(#sh)"/><rect x="486" y="122" width="8" height="5" rx="1" fill="#5DAA56" opacity="0.85"/><text x="490" y="150" text-anchor="middle" font-family="Arial,sans-serif" font-size="8" font-weight="600" fill="white" stroke="rgba(0,40,0,0.9)" stroke-width="3" paint-order="stroke">Freezington</text><text x="490" y="150" text-anchor="middle" font-family="Arial,sans-serif" font-size="8" font-weight="600" fill="#111">Freezington</text><rect x="372" y="122" width="16" height="16" rx="3" fill="white" stroke="#5DAA56" stroke-width="1.5" filter="url(#sh)"/><rect x="376" y="122" width="8" height="5" rx="1" fill="#5DAA56" opacity="0.85"/><text x="380" y="150" text-anchor="middle" font-family="Arial,sans-serif" font-size="8" font-weight="600" fill="white" stroke="rgba(0,40,0,0.9)" stroke-width="3" paint-order="stroke">Slumbering Weald</text><text x="380" y="150" text-anchor="middle" font-family="Arial,sans-serif" font-size="8" font-weight="600" fill="#111">Slumbering Weald</text><rect x="262" y="122" width="16" height="16" rx="3" fill="white" stroke="#5DAA56" stroke-width="1.5" filter="url(#sh)"/><rect x="266" y="122" width="8" height="5" rx="1" fill="#5DAA56" opacity="0.85"/><text x="270" y="150" text-anchor="middle" font-family="Arial,sans-serif" font-size="8" font-weight="600" fill="white" stroke="rgba(0,40,0,0.9)" stroke-width="3" paint-order="stroke">Isle of Armor</text><text x="270" y="150" text-anchor="middle" font-family="Arial,sans-serif" font-size="8" font-weight="600" fill="#111">Isle of Armor</text><rect x="152" y="122" width="16" height="16" rx="3" fill="white" stroke="#5DAA56" stroke-width="1.5" filter="url(#sh)"/><rect x="156" y="122" width="8" height="5" rx="1" fill="#5DAA56" opacity="0.85"/><text x="160" y="150" text-anchor="middle" font-family="Arial,sans-serif" font-size="8" font-weight="600" fill="white" stroke="rgba(0,40,0,0.9)" stroke-width="3" paint-order="stroke">Crown Tundra</text><text x="160" y="150" text-anchor="middle" font-family="Arial,sans-serif" font-size="8" font-weight="600" fill="#111">Crown Tundra</text><rect x="0" y="494" width="760" height="26" fill="rgba(0,0,0,0.5)"/><text x="10" y="511" font-family="Arial,sans-serif" font-size="11" font-weight="bold" fill="rgba(255,255,255,0.9)">Sword · Shield</text>
</svg>