<?xml version="1.0" encoding="UTF-8"?>
<svg width="760" height="520" xmlns="http://www.w3.org/2000/svg">
  <defs>
    <linearGradient id="water" x1="0" y1="0" x2="0" y2="1">
      <stop offset="0%" stop-color="#5B9BD5"/><stop offset="100%" stop-color="#3A7FBF"/>
    </linearGradient>
    <filter id="sh"><feDropShadow dx="0" dy="1" stdDeviation="1.5" flood-opacity="0.35"/></filter>
  </defs><rect width="760" height="520" fill="url(#water)"/><line x1="0" y1="15" x2="760" y2="15" stroke="rgba(255,255,255,0.05)" stroke-width="1"/><line x1="0" y1="40" x2="760" y2="40" stroke="rgba(255,255,255,0.05)" stroke-width="1"/><line x1="0" y1="65" x2="760" y2="65" stroke="rgba(255,255,255,0.05)" stroke-width="1"/><line x1="0" y1="90" x2="760" y2="90" stroke="rgba(255,255,255,0.05)" stroke-width="1"/><line x1="0" y1="115" x2="760" y2="115" stroke="rgba(255,255,255,0.05)" stroke-width="1"/><line x1="0" y1="140" x2="760" y2="140" stroke="rgba(255,255,255,0.05)" stroke-width="1"/><line x1="0" y1="165" x2="760" y2="165" stroke="rgba(255,255,255,0.05)" stroke-width="1"/><line x1="0" y1="190" x2="760" y2="190" stroke="rgba(255,255,255,0.05)" stroke-width="1"/><line x1="0" y1="215" x2="760" y2="215" stroke="rgba(255,255,255,0.05)" stroke-width="1"/><line x1="0" y1="240" x2="760" y2="240" stroke="rgba(255,255,255,0.05)" stroke-width="1"/><line x1="0" y1="265" x2="760" y2="265" stroke="rgba(255,255,255,0.05)" stroke-width="1"/><line x1="0" y1="290" x2="760" y2="290" stroke="rgba(255,255,255,0.05)" stroke-width="1"/><line x1="0" y1="315" x2="760" y2="315" stroke="rgba(255,255,255,0.05)" stroke-width="1"/><line x1="0" y1="340" x2="760" y2="340" stroke="rgba(255,255,255,0.05)" stroke-width="1"/><line x1="0" y1="365" x2="760" y2="365" stroke="rgba(255,255,255,0.05)" stroke-width="1"/><line x1="0" y1="390" x2="760" y2="390" stroke="rgba(255,255,255,0.05)" stroke-width="1"/><line x1="0" y1="415" x2="760" y2="415" stroke="rgba(255,255,255,0.05)" stroke-width="1"/><line x1="0" y1="440" x2="760" y2="440" stroke="rgba(255,255,255,0.05)" stroke-width="1"/><line x1="0" y1="465" x2="760" y2="465" stroke="rgba(255,255,255,0.05)" stroke-width="1"/><line x1="0" y1="490" x2="760" y2="490" stroke="rgba(255,255,255,0.05)" stroke-width="1"/><line x1="0" y1="515" x2="760" y2="515" stroke="rgba(255,255,255,0.05)" stroke-width="1"/><polygon points="60,60 700,60 700,470 60,470 60,60" fill="#8BBF6E" stroke="#5A9A45" stroke-width="1.5"/><rect x="0" y="0" width="60" height="520" fill="url(#water)" rx="5" opacity="0.85"/><rect x="700" y="0" width="60" height="520" fill="url(#water)" rx="5" opacity="0.85"/><rect x="60" y="440" width="640" height="80" fill="url(#water)" rx="5" opacity="0.85"/><rect x="60" y="60" width="150" height="180" fill="url(#water)" rx="5" opacity="0.85"/><polygon points="300,127 287,150 313,150" fill="#9B8F7A" stroke="#7A6E5C" stroke-width="1"/><polygon points="300,127 295,140 305,140" fill="rgba(255,255,255,0.55)"/><polygon points="320,117 307,140 333,140" fill="#9B8F7A" stroke="#7A6E5C" stroke-width="1"/><polygon points="320,117 315,130 325,130" fill="rgba(255,255,255,0.55)"/><polygon points="340,107 327,130 353,130" fill="#9B8F7A" stroke="#7A6E5C" stroke-width="1"/><polygon points="340,107 335,120 345,120" fill="rgba(255,255,255,0.55)"/><polygon points="360,117 347,140 373,140" fill="#9B8F7A" stroke="#7A6E5C" stroke-width="1"/><polygon points="360,117 355,130 365,130" fill="rgba(255,255,255,0.55)"/><polygon points="380,127 367,150 393,150" fill="#9B8F7A" stroke="#7A6E5C" stroke-width="1"/><polygon points="380,127 375,140 385,140" fill="rgba(255,255,255,0.55)"/><circle cx="170" cy="285" r="8" fill="#4A8A3A" opacity="0.8"/><circle cx="179" cy="289" r="8" fill="#4A8A3A" opacity="0.8"/><circle cx="163" cy="290" r="8" fill="#4A8A3A" opacity="0.8"/><circle cx="190" cy="295" r="8" fill="#4A8A3A" opacity="0.8"/><circle cx="199" cy="299" r="8" fill="#4A8A3A" opacity="0.8"/><circle cx="183" cy="300" r="8" fill="#4A8A3A" opacity="0.8"/><polygon points="500,222 487,245 513,245" fill="#9B8F7A" stroke="#7A6E5C" stroke-width="1"/><polygon points="500,222 495,235 505,235" fill="rgba(255,255,255,0.55)"/><polygon points="520,212 507,235 533,235" fill="#9B8F7A" stroke="#7A6E5C" stroke-width="1"/><polygon points="520,212 515,225 525,225" fill="rgba(255,255,255,0.55)"/><line x1="200" y1="430" x2="330" y2="430" stroke="#A08040" stroke-width="5" stroke-linecap="round" opacity="0.6"/><line x1="200" y1="430" x2="330" y2="430" stroke="#E8D5A3" stroke-width="3" stroke-linecap="round" stroke-dasharray="7,5"/><rect x="245" y="421" width="40" height="15" rx="4" fill="rgba(240,220,160,0.9)"/><text x="265" y="432" text-anchor="middle" font-family="Arial,sans-serif" font-size="7.5" font-weight="bold" fill="#5A3A08">to Fieldlands</text><line x1="330" y1="430" x2="460" y2="430" stroke="#A08040" stroke-width="5" stroke-linecap="round" opacity="0.6"/><line x1="330" y1="430" x2="460" y2="430" stroke="#E8D5A3" stroke-width="3" stroke-linecap="round" stroke-dasharray="7,5"/><rect x="375" y="421" width="40" height="15" rx="4" fill="rgba(240,220,160,0.9)"/><text x="395" y="432" text-anchor="middle" font-family="Arial,sans-serif" font-size="7.5" font-weight="bold" fill="#5A3A08">to Mirelands</text><line x1="460" y1="430" x2="460" y2="310" stroke="#A08040" stroke-width="5" stroke-linecap="round" opacity="0.6"/><line x1="460" y1="430" x2="460" y2="310" stroke="#E8D5A3" stroke-width="3" stroke-linecap="round" stroke-dasharray="7,5"/><rect x="440" y="361" width="40" height="15" rx="4" fill="rgba(240,220,160,0.9)"/><text x="460" y="372" text-anchor="middle" font-family="Arial,sans-serif" font-size="7.5" font-weight="bold" fill="#5A3A08">to Coastlands</text><line x1="460" y1="310" x2="330" y2="310" stroke="#A08040" stroke-width="5" stroke-linecap="round" opacity="0.6"/><line x1="460" y1="310" x2="330" y2="310" stroke="#E8D5A3" stroke-width="3" stroke-linecap="round" stroke-dasharray="7,5"/><rect x="375" y="301" width="40" height="15" rx="4" fill="rgba(240,220,160,0.9)"/><text x="395" y="312" text-anchor="middle" font-family="Arial,sans-serif" font-size="7.5" font-weight="bold" fill="#5A3A08">to Highlands</text><line x1="330" y1="310" x2="200" y2="310" stroke="#A08040" stroke-width="5" stroke-linecap="round" opacity="0.6"/><line x1="330" y1="310" x2="200" y2="310" stroke="#E8D5A3" stroke-width="3" stroke-linecap="round" stroke-dasharray="7,5"/><rect x="245" y="301" width="40" height="15" rx="4" fill="rgba(240,220,160,0.9)"/><text x="265" y="312" text-anchor="middle" font-family="Arial,sans-serif" font-size="7.5" font-weight="bold" fill="#5A3A08">to Icelands</text><line x1="200" y1="310" x2="200" y2="430" stroke="#A08040" stroke-width="5" stroke-linecap="round" opacity="0.6"/><line x1="200" y1="310" x2="200" y2="430" stroke="#E8D5A3" stroke-width="3" stroke-linecap="round" stroke-dasharray="7,5"/><rect x="180" y="361" width="40" height="15" rx="4" fill="rgba(240,220,160,0.9)"/><text x="200" y="372" text-anchor="middle" font-family="Arial,sans-serif" font-size="7.5" font-weight="bold" fill="#5A3A08">back</text><line x1="330" y1="430" x2="330" y2="310" stroke="#A08040" stroke-width="5" stroke-linecap="round" opacity="0.6"/><line x1="330" y1="430" x2="330" y2="310" stroke="#E8D5A3" stroke-width="3" stroke-linecap="round" stroke-dasharray="7,5"/><rect x="310" y="361" width="40" height="15" rx="4" fill="rgba(240,220,160,0.9)"/><text x="330" y="372" text-anchor="middle" font-family="Arial,sans-serif" font-size="7.5" font-weight="bold" fill="#5A3A08">Central Path</text><line x1="200" y1="310" x2="200" y2="190" stroke="#A08040" stroke-width="5" stroke-linecap="round" opacity="0.6"/><line x1="200" y1="310" x2="200" y2="190" stroke="#E8D5A3" stroke-width="3" stroke-linecap="round" stroke-dasharray="7,5"/><rect x="180" y="241" width="40" height="15" rx="4" fill="rgba(240,220,160,0.9)"/><text x="200" y="252" text-anchor="middle" font-family="Arial,sans-serif" font-size="7.5" font-weight="bold" fill="#5A3A08">to Galaxy HQ</text><line x1="330" y1="310" x2="330" y2="190" stroke="#A08040" stroke-width="5" stroke-linecap="round" opacity="0.6"/><line x1="330" y1="310" x2="330" y2="190" stroke="#E8D5A3" stroke-width="3" stroke-linecap="round" stroke-dasharray="7,5"/><rect x="310" y="241" width="40" height="15" rx="4" fill="rgba(240,220,160,0.9)"/><text x="330" y="252" text-anchor="middle" font-family="Arial,sans-serif" font-size="7.5" font-weight="bold" fill="#5A3A08">to Temple</text><line x1="460" y1="310" x2="460" y2="190" stroke="#A08040" stroke-width="5" stroke-linecap="round" opacity="0.6"/><line x1="460" y1="310" x2="460" y2="190" stroke="#E8D5A3" stroke-width="3" stroke-linecap="round" stroke-dasharray="7,5"/><rect x="440" y="241" width="40" height="15" rx="4" fill="rgba(240,220,160,0.9)"/><text x="460" y="252" text-anchor="middle" font-family="Arial,sans-serif" font-size="7.5" font-weight="bold" fill="#5A3A08">to Summit</text><line x1="200" y1="190" x2="330" y2="190" stroke="#A08040" stroke-width="5" stroke-linecap="round" opacity="0.6"/><line x1="200" y1="190" x2="330" y2="190" stroke="#E8D5A3" stroke-width="3" stroke-linecap="round" stroke-dasharray="7,5"/><rect x="245" y="181" width="40" height="15" rx="4" fill="rgba(240,220,160,0.9)"/><text x="265" y="192" text-anchor="middle" font-family="Arial,sans-serif" font-size="7.5" font-weight="bold" fill="#5A3A08">Upper Traverse</text><line x1="330" y1="190" x2="460" y2="190" stroke="#A08040" stroke-width="5" stroke-linecap="round" opacity="0.6"/><line x1="330" y1="190" x2="460" y2="190" stroke="#E8D5A3" stroke-width="3" stroke-linecap="round" stroke-dasharray="7,5"/><rect x="375" y="181" width="40" height="15" rx="4" fill="rgba(240,220,160,0.9)"/><text x="395" y="192" text-anchor="middle" font-family="Arial,sans-serif" font-size="7.5" font-weight="bold" fill="#5A3A08">Ridge Trail</text><line x1="460" y1="190" x2="590" y2="190" stroke="#A08040" stroke-width="5" stroke-linecap="round" opacity="0.6"/><line x1="460" y1="190" x2="590" y2="190" stroke="#E8D5A3" stroke-width="3" stroke-linecap="round" stroke-dasharray="7,5"/><rect x="505" y="181" width="40" height="15" rx="4" fill="rgba(240,220,160,0.9)"/><text x="525" y="192" text-anchor="middle" font-family="Arial,sans-serif" font-size="7.5" font-weight="bold" fill="#5A3A08">Eastern Reach</text><line x1="590" y1="190" x2="590" y2="310" stroke="#A08040" stroke-width="5" stroke-linecap="round" opacity="0.6"/><line x1="590" y1="190" x2="590" y2="310" stroke="#E8D5A3" stroke-width="3" stroke-linecap="round" stroke-dasharray="7,5"/><rect x="570" y="241" width="40" height="15" rx="4" fill="rgba(240,220,160,0.9)"/><text x="590" y="252" text-anchor="middle" font-family="Arial,sans-serif" font-size="7.5" font-weight="bold" fill="#5A3A08">Cliffside</text><line x1="590" y1="310" x2="460" y2="310" stroke="#A08040" stroke-width="5" stroke-linecap="round" opacity="0.6"/><line x1="590" y1="310" x2="460" y2="310" stroke="#E8D5A3" stroke-width="3" stroke-linecap="round" stroke-dasharray="7,5"/><rect x="505" y="301" width="40" height="15" rx="4" fill="rgba(240,220,160,0.9)"/><text x="525" y="312" text-anchor="middle" font-family="Arial,sans-serif" font-size="7.5" font-weight="bold" fill="#5A3A08">Coast Return</text><rect x="189" y="419" width="22" height="22" rx="3" fill="white" stroke="#9EB7B8" stroke-width="2.5" filter="url(#sh)"/><rect x="196" y="419" width="8" height="6" rx="1" fill="#9EB7B8" opacity="0.85"/><line x1="200" y1="414" x2="200" y2="419" stroke="#9EB7B8" stroke-width="1.5"/><text x="200" y="453" text-anchor="middle" font-family="Arial,sans-serif" font-size="9" font-weight="bold" fill="white" stroke="rgba(0,40,0,0.9)" stroke-width="3" paint-order="stroke">Jubilife Village</text><text x="200" y="453" text-anchor="middle" font-family="Arial,sans-serif" font-size="9" font-weight="bold" fill="#111">Jubilife Village</text><rect x="319" y="419" width="22" height="22" rx="3" fill="white" stroke="#9EB7B8" stroke-width="2.5" filter="url(#sh)"/><rect x="326" y="419" width="8" height="6" rx="1" fill="#9EB7B8" opacity="0.85"/><line x1="330" y1="414" x2="330" y2="419" stroke="#9EB7B8" stroke-width="1.5"/><text x="330" y="453" text-anchor="middle" font-family="Arial,sans-serif" font-size="9" font-weight="bold" fill="white" stroke="rgba(0,40,0,0.9)" stroke-width="3" paint-order="stroke">Obsidian Fieldlands</text><text x="330" y="453" text-anchor="middle" font-family="Arial,sans-serif" font-size="9" font-weight="bold" fill="#111">Obsidian Fieldlands</text><rect x="452" y="422" width="16" height="16" rx="3" fill="white" stroke="#9EB7B8" stroke-width="1.5" filter="url(#sh)"/><rect x="456" y="422" width="8" height="5" rx="1" fill="#9EB7B8" opacity="0.85"/><text x="460" y="450" text-anchor="middle" font-family="Arial,sans-serif" font-size="8" font-weight="600" fill="white" stroke="rgba(0,40,0,0.9)" stroke-width="3" paint-order="stroke">Crimson Mirelands</text><text x="460" y="450" text-anchor="middle" font-family="Arial,sans-serif" font-size="8" font-weight="600" fill="#111">Crimson Mirelands</text><rect x="452" y="302" width="16" height="16" rx="3" fill="white" stroke="#9EB7B8" stroke-width="1.5" filter="url(#sh)"/><rect x="456" y="302" width="8" height="5" rx="1" fill="#9EB7B8" opacity="0.85"/><text x="460" y="330" text-anchor="middle" font-family="Arial,sans-serif" font-size="8" font-weight="600" fill="white" stroke="rgba(0,40,0,0.9)" stroke-width="3" paint-order="stroke">Cobalt Coastlands</text><text x="460" y="330" text-anchor="middle" font-family="Arial,sans-serif" font-size="8" font-weight="600" fill="#111">Cobalt Coastlands</text><rect x="319" y="299" width="22" height="22" rx="3" fill="white" stroke="#9EB7B8" stroke-width="2.5" filter="url(#sh)"/><rect x="326" y="299" width="8" height="6" rx="1" fill="#9EB7B8" opacity="0.85"/><line x1="330" y1="294" x2="330" y2="299" stroke="#9EB7B8" stroke-width="1.5"/><text x="330" y="333" text-anchor="middle" font-family="Arial,sans-serif" font-size="9" font-weight="bold" fill="white" stroke="rgba(0,40,0,0.9)" stroke-width="3" paint-order="stroke">Coronet Highlands</text><text x="330" y="333" text-anchor="middle" font-family="Arial,sans-serif" font-size="9" font-weight="bold" fill="#111">Coronet Highlands</text><rect x="192" y="302" width="16" height="16" rx="3" fill="white" stroke="#9EB7B8" stroke-width="1.5" filter="url(#sh)"/><rect x="196" y="302" width="8" height="5" rx="1" fill="#9EB7B8" opacity="0.85"/><text x="200" y="330" text-anchor="middle" font-family="Arial,sans-serif" font-size="8" font-weight="600" fill="white" stroke="rgba(0,40,0,0.9)" stroke-width="3" paint-order="stroke">Alabaster Icelands</text><text x="200" y="330" text-anchor="middle" font-family="Arial,sans-serif" font-size="8" font-weight="600" fill="#111">Alabaster Icelands</text><rect x="192" y="182" width="16" height="16" rx="3" fill="white" stroke="#9EB7B8" stroke-width="1.5" filter="url(#sh)"/><rect x="196" y="182" width="8" height="5" rx="1" fill="#9EB7B8" opacity="0.85"/><text x="200" y="210" text-anchor="middle" font-family="Arial,sans-serif" font-size="8" font-weight="600" fill="white" stroke="rgba(0,40,0,0.9)" stroke-width="3" paint-order="stroke">Galaxy Hall</text><text x="200" y="210" text-anchor="middle" font-family="Arial,sans-serif" font-size="8" font-weight="600" fill="#111">Galaxy Hall</text><rect x="319" y="179" width="22" height="22" rx="3" fill="white" stroke="#9EB7B8" stroke-width="2.5" filter="url(#sh)"/><rect x="326" y="179" width="8" height="6" rx="1" fill="#9EB7B8" opacity="0.85"/><line x1="330" y1="174" x2="330" y2="179" stroke="#9EB7B8" stroke-width="1.5"/><text x="330" y="213" text-anchor="middle" font-family="Arial,sans-serif" font-size="9" font-weight="bold" fill="white" stroke="rgba(0,40,0,0.9)" stroke-width="3" paint-order="stroke">Temple of Sinnoh</text><text x="330" y="213" text-anchor="middle" font-family="Arial,sans-serif" font-size="9" font-weight="bold" fill="#111">Temple of Sinnoh</text><rect x="452" y="182" width="16" height="16" rx="3" fill="white" stroke="#9EB7B8" stroke-width="1.5" filter="url(#sh)"/><rect x="456" y="182" width="8" height="5" rx="1" fill="#9EB7B8" opacity="0.85"/><text x="460" y="210" text-anchor="middle" font-family="Arial,sans-serif" font-size="8" font-weight="600" fill="white" stroke="rgba(0,40,0,0.9)" stroke-width="3" paint-order="stroke">Pearl/Diamond Clan</text><text x="460" y="210" text-anchor="middle" font-family="Arial,sans-serif" font-size="8" font-weight="600" fill="#111">Pearl/Diamond Clan</text><rect x="582" y="182" width="16" height="16" rx="3" fill="white" stroke="#9EB7B8" stroke-width="1.5" filter="url(#sh)"/><rect x="586" y="182" width="8" height="5" rx="1" fill="#9EB7B8" opacity="0.85"/><text x="590" y="210" text-anchor="middle" font-family="Arial,sans-serif" font-size="8" font-weight="600" fill="white" stroke="rgba(0,40,0,0.9)" stroke-width="3" paint-order="stroke">Firespit Island</text><text x="590" y="210" text-anchor="middle" font-family="Arial,sans-serif" font-size="8" font-weight="600" fill="#111">Firespit Island</text><rect x="582" y="302" width="16" height="16" rx="3" fill="white" stroke="#9EB7B8" stroke-width="1.5" filter="url(#sh)"/><rect x="586" y="302" width="8" height="5" rx="1" fill="#9EB7B8" opacity="0.85"/><text x="590" y="330" text-anchor="middle" font-family="Arial,sans-serif" font-size="8" font-weight="600" fill="white" stroke="rgba(0,40,0,0.9)" stroke-width="3" paint-order="stroke">Arena's Mire</text><text x="590" y="330" text-anchor="middle" font-family="Arial,sans-serif" font-size="8" font-weight="600" fill="#111">Arena's Mire</text><rect x="192" y="362" width="16" height="16" rx="3" fill="white" stroke="#9EB7B8" stroke-width="1.5" filter="url(#sh)"/><rect x="196" y="362" width="8" height="5" rx="1" fill="#9EB7B8" opacity="0.85"/><text x="200" y="390" text-anchor="middle" font-family="Arial,sans-serif" font-size="8" font-weight="600" fill="white" stroke="rgba(0,40,0,0.9)" stroke-width="3" paint-order="stroke">Camp Jubilife</text><text x="200" y="390" text-anchor="middle" font-family="Arial,sans-serif" font-size="8" font-weight="600" fill="#111">Camp Jubilife</text><rect x="322" y="362" width="16" height="16" rx="3" fill="white" stroke="#9EB7B8" stroke-width="1.5" filter="url(#sh)"/><rect x="326" y="362" width="8" height="5" rx="1" fill="#9EB7B8" opacity="0.85"/><text x="330" y="390" text-anchor="middle" font-family="Arial,sans-serif" font-size="8" font-weight="600" fill="white" stroke="rgba(0,40,0,0.9)" stroke-width="3" paint-order="stroke">Fieldlands Camp</text><text x="330" y="390" text-anchor="middle" font-family="Arial,sans-serif" font-size="8" font-weight="600" fill="#111">Fieldlands Camp</text><rect x="452" y="362" width="16" height="16" rx="3" fill="white" stroke="#9EB7B8" stroke-width="1.5" filter="url(#sh)"/><rect x="456" y="362" width="8" height="5" rx="1" fill="#9EB7B8" opacity="0.85"/><text x="460" y="390" text-anchor="middle" font-family="Arial,sans-serif" font-size="8" font-weight="600" fill="white" stroke="rgba(0,40,0,0.9)" stroke-width="3" paint-order="stroke">Mirelands Camp</text><text x="460" y="390" text-anchor="middle" font-family="Arial,sans-serif" font-size="8" font-weight="600" fill="#111">Mirelands Camp</text><rect x="0" y="494" width="760" height="26" fill="rgba(0,0,0,0.5)"/><text x="10" y="511" font-family="Arial,sans-serif" font-size="11" font-weight="bold" fill="rgba(255,255,255,0.9)">Pokémon Legends: Arceus</text>
</svg>