<?xml version="1.0" encoding="UTF-8"?>
<svg width="760" height="520" xmlns="http://www.w3.org/2000/svg">
  <defs>
    <linearGradient id="water" x1="0" y1="0" x2="0" y2="1">
      <stop offset="0%" stop-color="#5B9BD5"/><stop offset="100%" stop-color="#3A7FBF"/>
    </linearGradient>
    <filter id="sh"><feDropShadow dx="0" dy="1" stdDeviation="1.5" flood-opacity="0.35"/></filter>
  </defs><rect width="760" height="520" fill="url(#water)"/><line x1="0" y1="15" x2="760" y2="15" stroke="rgba(255,255,255,0.05)" stroke-width="1"/><line x1="0" y1="40" x2="760" y2="40" stroke="rgba(255,255,255,0.05)" stroke-width="1"/><line x1="0" y1="65" x2="760" y2="65" stroke="rgba(255,255,255,0.05)" stroke-width="1"/><line x1="0" y1="90" x2="760" y2="90" stroke="rgba(255,255,255,0.05)" stroke-width="1"/><line x1="0" y1="115" x2="760" y2="115" stroke="rgba(255,255,255,0.05)" stroke-width="1"/><line x1="0" y1="140" x2="760" y2="140" stroke="rgba(255,255,255,0.05)" stroke-width="1"/><line x1="0" y1="165" x2="760" y2="165" stroke="rgba(255,255,255,0.05)" stroke-width="1"/><line x1="0" y1="190" x2="760" y2="190" stroke="rgba(255,255,255,0.05)" stroke-width="1"/><line x1="0" y1="215" x2="760" y2="215" stroke="rgba(255,255,255,0.05)" stroke-width="1"/><line x1="0" y1="240" x2="760" y2="240" stroke="rgba(255,255,255,0.05)" stroke-width="1"/><line x1="0" y1="265" x2="760" y2="265" stroke="rgba(255,255,255,0.05)" stroke-width="1"/><line x1="0" y1="290" x2="760" y2="290" stroke="rgba(255,255,255,0.05)" stroke-width="1"/><line x1="0" y1="315" x2="760" y2="315" stroke="rgba(255,255,255,0.05)" stroke-width="1"/><line x1="0" y1="340" x2="760" y2="340" stroke="rgba(255,255,255,0.05)" stroke-width="1"/><line x1="0" y1="365" x2="760" y2="365" stroke="rgba(255,255,255,0.05)" stroke-width="1"/><line x1="0" y1="390" x2="760" y2="390" stroke="rgba(255,255,255,0.05)" stroke-width="1"/><line x1="0" y1="415" x2="760" y2="415" stroke="rgba(255,255,255,0.05)" stroke-width="1"/><line x1="0" y1="440" x2="760" y2="440" stroke="rgba(255,255,255,0.05)" stroke-width="1"/><line x1="0" y1="465" x2="760" y2="465" stroke="rgba(255,255,255,0.05)" stroke-width="1"/><line x1="0" y1="490" x2="760" y2="490" stroke="rgba(255,255,255,0.05)" stroke-width="1"/><line x1="0" y1="515" x2="760" y2="515" stroke="rgba(255,255,255,0.05)" stroke-width="1"/><polygon points="80,60 680,60 680,470 80,470 80,60" fill="#8BBF6E" stroke="#5A9A45" stroke-width="1.5"/><rect x="0" y="0" width="80" height="520" fill="url(#water)" rx="5" opacity="0.85"/><rect x="680" y="0" width="80" height="520" fill="url(#water)" rx="5" opacity="0.85"/><rect x="80" y="60" width="120" height="150" fill="url(#water)" rx="5" opacity="0.85"/><rect x="500" y="380" width="180" height="90" fill="url(#water)" rx="5" opacity="0.85"/><rect x="80" y="440" width="600" height="80" fill="url(#water)" rx="5" opacity="0.85"/><polygon points="420,247 407,270 433,270" fill="#9B8F7A" stroke="#7A6E5C" stroke-width="1"/><polygon points="420,247 415,260 425,260" fill="rgba(255,255,255,0.55)"/><polygon points="400,237 387,260 413,260" fill="#9B8F7A" stroke="#7A6E5C" stroke-width="1"/><polygon points="400,237 395,250 405,250" fill="rgba(255,255,255,0.55)"/><polygon points="380,247 367,270 393,270" fill="#9B8F7A" stroke="#7A6E5C" stroke-width="1"/><polygon points="380,247 375,260 385,260" fill="rgba(255,255,255,0.55)"/><circle cx="240" cy="265" r="8" fill="#4A8A3A" opacity="0.8"/><circle cx="249" cy="269" r="8" fill="#4A8A3A" opacity="0.8"/><circle cx="233" cy="270" r="8" fill="#4A8A3A" opacity="0.8"/><circle cx="260" cy="275" r="8" fill="#4A8A3A" opacity="0.8"/><circle cx="269" cy="279" r="8" fill="#4A8A3A" opacity="0.8"/><circle cx="253" cy="280" r="8" fill="#4A8A3A" opacity="0.8"/><polygon points="540,242 527,265 553,265" fill="#9B8F7A" stroke="#7A6E5C" stroke-width="1"/><polygon points="540,242 535,255 545,255" fill="rgba(255,255,255,0.55)"/><line x1="160" y1="430" x2="270" y2="430" stroke="#A08040" stroke-width="5" stroke-linecap="round" opacity="0.6"/><line x1="160" y1="430" x2="270" y2="430" stroke="#E8D5A3" stroke-width="3" stroke-linecap="round" stroke-dasharray="7,5"/><rect x="195" y="421" width="40" height="15" rx="4" fill="rgba(240,220,160,0.9)"/><text x="215" y="432" text-anchor="middle" font-family="Arial,sans-serif" font-size="7.5" font-weight="bold" fill="#5A3A08">Rt.101</text><line x1="270" y1="430" x2="380" y2="430" stroke="#A08040" stroke-width="5" stroke-linecap="round" opacity="0.6"/><line x1="270" y1="430" x2="380" y2="430" stroke="#E8D5A3" stroke-width="3" stroke-linecap="round" stroke-dasharray="7,5"/><rect x="305" y="421" width="40" height="15" rx="4" fill="rgba(240,220,160,0.9)"/><text x="325" y="432" text-anchor="middle" font-family="Arial,sans-serif" font-size="7.5" font-weight="bold" fill="#5A3A08">Rt.102</text><line x1="380" y1="430" x2="490" y2="430" stroke="#A08040" stroke-width="5" stroke-linecap="round" opacity="0.6"/><line x1="380" y1="430" x2="490" y2="430" stroke="#E8D5A3" stroke-width="3" stroke-linecap="round" stroke-dasharray="7,5"/><rect x="415" y="421" width="40" height="15" rx="4" fill="rgba(240,220,160,0.9)"/><text x="435" y="432" text-anchor="middle" font-family="Arial,sans-serif" font-size="7.5" font-weight="bold" fill="#5A3A08">Rt.104</text><line x1="490" y1="430" x2="490" y2="330" stroke="#A08040" stroke-width="5" stroke-linecap="round" opacity="0.6"/><line x1="490" y1="430" x2="490" y2="330" stroke="#E8D5A3" stroke-width="3" stroke-linecap="round" stroke-dasharray="7,5"/><rect x="470" y="371" width="40" height="15" rx="4" fill="rgba(240,220,160,0.9)"/><text x="490" y="382" text-anchor="middle" font-family="Arial,sans-serif" font-size="7.5" font-weight="bold" fill="#5A3A08">Rt.105</text><line x1="490" y1="330" x2="380" y2="330" stroke="#A08040" stroke-width="5" stroke-linecap="round" opacity="0.6"/><line x1="490" y1="330" x2="380" y2="330" stroke="#E8D5A3" stroke-width="3" stroke-linecap="round" stroke-dasharray="7,5"/><rect x="415" y="321" width="40" height="15" rx="4" fill="rgba(240,220,160,0.9)"/><text x="435" y="332" text-anchor="middle" font-family="Arial,sans-serif" font-size="7.5" font-weight="bold" fill="#5A3A08">Rt.106</text><line x1="380" y1="330" x2="270" y2="330" stroke="#A08040" stroke-width="5" stroke-linecap="round" opacity="0.6"/><line x1="380" y1="330" x2="270" y2="330" stroke="#E8D5A3" stroke-width="3" stroke-linecap="round" stroke-dasharray="7,5"/><rect x="305" y="321" width="40" height="15" rx="4" fill="rgba(240,220,160,0.9)"/><text x="325" y="332" text-anchor="middle" font-family="Arial,sans-serif" font-size="7.5" font-weight="bold" fill="#5A3A08">Rt.108</text><line x1="270" y1="330" x2="160" y2="330" stroke="#A08040" stroke-width="5" stroke-linecap="round" opacity="0.6"/><line x1="270" y1="330" x2="160" y2="330" stroke="#E8D5A3" stroke-width="3" stroke-linecap="round" stroke-dasharray="7,5"/><rect x="195" y="321" width="40" height="15" rx="4" fill="rgba(240,220,160,0.9)"/><text x="215" y="332" text-anchor="middle" font-family="Arial,sans-serif" font-size="7.5" font-weight="bold" fill="#5A3A08">Rt.109</text><line x1="160" y1="330" x2="160" y2="430" stroke="#A08040" stroke-width="5" stroke-linecap="round" opacity="0.6"/><line x1="160" y1="330" x2="160" y2="430" stroke="#E8D5A3" stroke-width="3" stroke-linecap="round" stroke-dasharray="7,5"/><rect x="140" y="371" width="40" height="15" rx="4" fill="rgba(240,220,160,0.9)"/><text x="160" y="382" text-anchor="middle" font-family="Arial,sans-serif" font-size="7.5" font-weight="bold" fill="#5A3A08">Rt.110</text><line x1="490" y1="330" x2="490" y2="220" stroke="#A08040" stroke-width="5" stroke-linecap="round" opacity="0.6"/><line x1="490" y1="330" x2="490" y2="220" stroke="#E8D5A3" stroke-width="3" stroke-linecap="round" stroke-dasharray="7,5"/><rect x="470" y="266" width="40" height="15" rx="4" fill="rgba(240,220,160,0.9)"/><text x="490" y="277" text-anchor="middle" font-family="Arial,sans-serif" font-size="7.5" font-weight="bold" fill="#5A3A08">Rt.111</text><line x1="490" y1="220" x2="380" y2="220" stroke="#A08040" stroke-width="5" stroke-linecap="round" opacity="0.6"/><line x1="490" y1="220" x2="380" y2="220" stroke="#E8D5A3" stroke-width="3" stroke-linecap="round" stroke-dasharray="7,5"/><rect x="415" y="211" width="40" height="15" rx="4" fill="rgba(240,220,160,0.9)"/><text x="435" y="222" text-anchor="middle" font-family="Arial,sans-serif" font-size="7.5" font-weight="bold" fill="#5A3A08">Rt.112</text><line x1="380" y1="220" x2="270" y2="220" stroke="#A08040" stroke-width="5" stroke-linecap="round" opacity="0.6"/><line x1="380" y1="220" x2="270" y2="220" stroke="#E8D5A3" stroke-width="3" stroke-linecap="round" stroke-dasharray="7,5"/><rect x="305" y="211" width="40" height="15" rx="4" fill="rgba(240,220,160,0.9)"/><text x="325" y="222" text-anchor="middle" font-family="Arial,sans-serif" font-size="7.5" font-weight="bold" fill="#5A3A08">Rt.113</text><line x1="270" y1="220" x2="160" y2="220" stroke="#A08040" stroke-width="5" stroke-linecap="round" opacity="0.6"/><line x1="270" y1="220" x2="160" y2="220" stroke="#E8D5A3" stroke-width="3" stroke-linecap="round" stroke-dasharray="7,5"/><rect x="195" y="211" width="40" height="15" rx="4" fill="rgba(240,220,160,0.9)"/><text x="215" y="222" text-anchor="middle" font-family="Arial,sans-serif" font-size="7.5" font-weight="bold" fill="#5A3A08">Rt.114</text><line x1="160" y1="220" x2="160" y2="330" stroke="#A08040" stroke-width="5" stroke-linecap="round" opacity="0.6"/><line x1="160" y1="220" x2="160" y2="330" stroke="#E8D5A3" stroke-width="3" stroke-linecap="round" stroke-dasharray="7,5"/><rect x="140" y="266" width="40" height="15" rx="4" fill="rgba(240,220,160,0.9)"/><text x="160" y="277" text-anchor="middle" font-family="Arial,sans-serif" font-size="7.5" font-weight="bold" fill="#5A3A08">Rt.115</text><line x1="490" y1="220" x2="600" y2="220" stroke="#A08040" stroke-width="5" stroke-linecap="round" opacity="0.6"/><line x1="490" y1="220" x2="600" y2="220" stroke="#E8D5A3" stroke-width="3" stroke-linecap="round" stroke-dasharray="7,5"/><rect x="525" y="211" width="40" height="15" rx="4" fill="rgba(240,220,160,0.9)"/><text x="545" y="222" text-anchor="middle" font-family="Arial,sans-serif" font-size="7.5" font-weight="bold" fill="#5A3A08">Rt.119</text><line x1="600" y1="220" x2="600" y2="330" stroke="#A08040" stroke-width="5" stroke-linecap="round" opacity="0.6"/><line x1="600" y1="220" x2="600" y2="330" stroke="#E8D5A3" stroke-width="3" stroke-linecap="round" stroke-dasharray="7,5"/><rect x="580" y="266" width="40" height="15" rx="4" fill="rgba(240,220,160,0.9)"/><text x="600" y="277" text-anchor="middle" font-family="Arial,sans-serif" font-size="7.5" font-weight="bold" fill="#5A3A08">Rt.120</text><line x1="600" y1="330" x2="490" y2="330" stroke="#A08040" stroke-width="5" stroke-linecap="round" opacity="0.6"/><line x1="600" y1="330" x2="490" y2="330" stroke="#E8D5A3" stroke-width="3" stroke-linecap="round" stroke-dasharray="7,5"/><rect x="525" y="321" width="40" height="15" rx="4" fill="rgba(240,220,160,0.9)"/><text x="545" y="332" text-anchor="middle" font-family="Arial,sans-serif" font-size="7.5" font-weight="bold" fill="#5A3A08">Rt.121</text><line x1="600" y1="330" x2="600" y2="430" stroke="#A08040" stroke-width="5" stroke-linecap="round" opacity="0.6"/><line x1="600" y1="330" x2="600" y2="430" stroke="#E8D5A3" stroke-width="3" stroke-linecap="round" stroke-dasharray="7,5"/><rect x="580" y="371" width="40" height="15" rx="4" fill="rgba(240,220,160,0.9)"/><text x="600" y="382" text-anchor="middle" font-family="Arial,sans-serif" font-size="7.5" font-weight="bold" fill="#5A3A08">Rt.122</text><line x1="380" y1="330" x2="380" y2="220" stroke="#A08040" stroke-width="5" stroke-linecap="round" opacity="0.6"/><line x1="380" y1="330" x2="380" y2="220" stroke="#E8D5A3" stroke-width="3" stroke-linecap="round" stroke-dasharray="7,5"/><rect x="360" y="266" width="40" height="15" rx="4" fill="rgba(240,220,160,0.9)"/><text x="380" y="277" text-anchor="middle" font-family="Arial,sans-serif" font-size="7.5" font-weight="bold" fill="#5A3A08">Rt.117</text><line x1="270" y1="330" x2="270" y2="220" stroke="#A08040" stroke-width="5" stroke-linecap="round" opacity="0.6"/><line x1="270" y1="330" x2="270" y2="220" stroke="#E8D5A3" stroke-width="3" stroke-linecap="round" stroke-dasharray="7,5"/><rect x="250" y="266" width="40" height="15" rx="4" fill="rgba(240,220,160,0.9)"/><text x="270" y="277" text-anchor="middle" font-family="Arial,sans-serif" font-size="7.5" font-weight="bold" fill="#5A3A08">Rt.116</text><line x1="380" y1="430" x2="380" y2="330" stroke="#A08040" stroke-width="5" stroke-linecap="round" opacity="0.6"/><line x1="380" y1="430" x2="380" y2="330" stroke="#E8D5A3" stroke-width="3" stroke-linecap="round" stroke-dasharray="7,5"/><rect x="360" y="371" width="40" height="15" rx="4" fill="rgba(240,220,160,0.9)"/><text x="380" y="382" text-anchor="middle" font-family="Arial,sans-serif" font-size="7.5" font-weight="bold" fill="#5A3A08">Rt.118</text><rect x="152" y="422" width="16" height="16" rx="3" fill="white" stroke="#4592C4" stroke-width="1.5" filter="url(#sh)"/><rect x="156" y="422" width="8" height="5" rx="1" fill="#4592C4" opacity="0.85"/><text x="160" y="450" text-anchor="middle" font-family="Arial,sans-serif" font-size="8" font-weight="600" fill="white" stroke="rgba(0,40,0,0.9)" stroke-width="3" paint-order="stroke">Littleroot Town</text><text x="160" y="450" text-anchor="middle" font-family="Arial,sans-serif" font-size="8" font-weight="600" fill="#111">Littleroot Town</text><rect x="262" y="422" width="16" height="16" rx="3" fill="white" stroke="#4592C4" stroke-width="1.5" filter="url(#sh)"/><rect x="266" y="422" width="8" height="5" rx="1" fill="#4592C4" opacity="0.85"/><text x="270" y="450" text-anchor="middle" font-family="Arial,sans-serif" font-size="8" font-weight="600" fill="white" stroke="rgba(0,40,0,0.9)" stroke-width="3" paint-order="stroke">Oldale Town</text><text x="270" y="450" text-anchor="middle" font-family="Arial,sans-serif" font-size="8" font-weight="600" fill="#111">Oldale Town</text><rect x="369" y="419" width="22" height="22" rx="3" fill="white" stroke="#4592C4" stroke-width="2.5" filter="url(#sh)"/><rect x="376" y="419" width="8" height="6" rx="1" fill="#4592C4" opacity="0.85"/><line x1="380" y1="414" x2="380" y2="419" stroke="#4592C4" stroke-width="1.5"/><text x="380" y="453" text-anchor="middle" font-family="Arial,sans-serif" font-size="9" font-weight="bold" fill="white" stroke="rgba(0,40,0,0.9)" stroke-width="3" paint-order="stroke">Petalburg City</text><text x="380" y="453" text-anchor="middle" font-family="Arial,sans-serif" font-size="9" font-weight="bold" fill="#111">Petalburg City</text><rect x="479" y="419" width="22" height="22" rx="3" fill="white" stroke="#4592C4" stroke-width="2.5" filter="url(#sh)"/><rect x="486" y="419" width="8" height="6" rx="1" fill="#4592C4" opacity="0.85"/><line x1="490" y1="414" x2="490" y2="419" stroke="#4592C4" stroke-width="1.5"/><text x="490" y="453" text-anchor="middle" font-family="Arial,sans-serif" font-size="9" font-weight="bold" fill="white" stroke="rgba(0,40,0,0.9)" stroke-width="3" paint-order="stroke">Rustboro City</text><text x="490" y="453" text-anchor="middle" font-family="Arial,sans-serif" font-size="9" font-weight="bold" fill="#111">Rustboro City</text><rect x="482" y="322" width="16" height="16" rx="3" fill="white" stroke="#4592C4" stroke-width="1.5" filter="url(#sh)"/><rect x="486" y="322" width="8" height="5" rx="1" fill="#4592C4" opacity="0.85"/><text x="490" y="350" text-anchor="middle" font-family="Arial,sans-serif" font-size="8" font-weight="600" fill="white" stroke="rgba(0,40,0,0.9)" stroke-width="3" paint-order="stroke">Dewford Town</text><text x="490" y="350" text-anchor="middle" font-family="Arial,sans-serif" font-size="8" font-weight="600" fill="#111">Dewford Town</text><rect x="369" y="319" width="22" height="22" rx="3" fill="white" stroke="#4592C4" stroke-width="2.5" filter="url(#sh)"/><rect x="376" y="319" width="8" height="6" rx="1" fill="#4592C4" opacity="0.85"/><line x1="380" y1="314" x2="380" y2="319" stroke="#4592C4" stroke-width="1.5"/><text x="380" y="353" text-anchor="middle" font-family="Arial,sans-serif" font-size="9" font-weight="bold" fill="white" stroke="rgba(0,40,0,0.9)" stroke-width="3" paint-order="stroke">Slateport City</text><text x="380" y="353" text-anchor="middle" font-family="Arial,sans-serif" font-size="9" font-weight="bold" fill="#111">Slateport City</text><rect x="259" y="319" width="22" height="22" rx="3" fill="white" stroke="#4592C4" stroke-width="2.5" filter="url(#sh)"/><rect x="266" y="319" width="8" height="6" rx="1" fill="#4592C4" opacity="0.85"/><line x1="270" y1="314" x2="270" y2="319" stroke="#4592C4" stroke-width="1.5"/><text x="270" y="353" text-anchor="middle" font-family="Arial,sans-serif" font-size="9" font-weight="bold" fill="white" stroke="rgba(0,40,0,0.9)" stroke-width="3" paint-order="stroke">Mauville City</text><text x="270" y="353" text-anchor="middle" font-family="Arial,sans-serif" font-size="9" font-weight="bold" fill="#111">Mauville City</text><rect x="152" y="322" width="16" height="16" rx="3" fill="white" stroke="#4592C4" stroke-width="1.5" filter="url(#sh)"/><rect x="156" y="322" width="8" height="5" rx="1" fill="#4592C4" opacity="0.85"/><text x="160" y="350" text-anchor="middle" font-family="Arial,sans-serif" font-size="8" font-weight="600" fill="white" stroke="rgba(0,40,0,0.9)" stroke-width="3" paint-order="stroke">Verdanturf Town</text><text x="160" y="350" text-anchor="middle" font-family="Arial,sans-serif" font-size="8" font-weight="600" fill="#111">Verdanturf Town</text><rect x="482" y="212" width="16" height="16" rx="3" fill="white" stroke="#4592C4" stroke-width="1.5" filter="url(#sh)"/><rect x="486" y="212" width="8" height="5" rx="1" fill="#4592C4" opacity="0.85"/><text x="490" y="240" text-anchor="middle" font-family="Arial,sans-serif" font-size="8" font-weight="600" fill="white" stroke="rgba(0,40,0,0.9)" stroke-width="3" paint-order="stroke">Lavaridge Town</text><text x="490" y="240" text-anchor="middle" font-family="Arial,sans-serif" font-size="8" font-weight="600" fill="#111">Lavaridge Town</text><rect x="372" y="212" width="16" height="16" rx="3" fill="white" stroke="#4592C4" stroke-width="1.5" filter="url(#sh)"/><rect x="376" y="212" width="8" height="5" rx="1" fill="#4592C4" opacity="0.85"/><text x="380" y="240" text-anchor="middle" font-family="Arial,sans-serif" font-size="8" font-weight="600" fill="white" stroke="rgba(0,40,0,0.9)" stroke-width="3" paint-order="stroke">Fallarbor Town</text><text x="380" y="240" text-anchor="middle" font-family="Arial,sans-serif" font-size="8" font-weight="600" fill="#111">Fallarbor Town</text><rect x="259" y="209" width="22" height="22" rx="3" fill="white" stroke="#4592C4" stroke-width="2.5" filter="url(#sh)"/><rect x="266" y="209" width="8" height="6" rx="1" fill="#4592C4" opacity="0.85"/><line x1="270" y1="204" x2="270" y2="209" stroke="#4592C4" stroke-width="1.5"/><text x="270" y="243" text-anchor="middle" font-family="Arial,sans-serif" font-size="9" font-weight="bold" fill="white" stroke="rgba(0,40,0,0.9)" stroke-width="3" paint-order="stroke">Fortree City</text><text x="270" y="243" text-anchor="middle" font-family="Arial,sans-serif" font-size="9" font-weight="bold" fill="#111">Fortree City</text><rect x="149" y="209" width="22" height="22" rx="3" fill="white" stroke="#4592C4" stroke-width="2.5" filter="url(#sh)"/><rect x="156" y="209" width="8" height="6" rx="1" fill="#4592C4" opacity="0.85"/><line x1="160" y1="204" x2="160" y2="209" stroke="#4592C4" stroke-width="1.5"/><text x="160" y="243" text-anchor="middle" font-family="Arial,sans-serif" font-size="9" font-weight="bold" fill="white" stroke="rgba(0,40,0,0.9)" stroke-width="3" paint-order="stroke">Lilycove City</text><text x="160" y="243" text-anchor="middle" font-family="Arial,sans-serif" font-size="9" font-weight="bold" fill="#111">Lilycove City</text><rect x="589" y="209" width="22" height="22" rx="3" fill="white" stroke="#4592C4" stroke-width="2.5" filter="url(#sh)"/><rect x="596" y="209" width="8" height="6" rx="1" fill="#4592C4" opacity="0.85"/><line x1="600" y1="204" x2="600" y2="209" stroke="#4592C4" stroke-width="1.5"/><text x="600" y="243" text-anchor="middle" font-family="Arial,sans-serif" font-size="9" font-weight="bold" fill="white" stroke="rgba(0,40,0,0.9)" stroke-width="3" paint-order="stroke">Mossdeep City</text><text x="600" y="243" text-anchor="middle" font-family="Arial,sans-serif" font-size="9" font-weight="bold" fill="#111">Mossdeep City</text><rect x="589" y="319" width="22" height="22" rx="3" fill="white" stroke="#4592C4" stroke-width="2.5" filter="url(#sh)"/><rect x="596" y="319" width="8" height="6" rx="1" fill="#4592C4" opacity="0.85"/><line x1="600" y1="314" x2="600" y2="319" stroke="#4592C4" stroke-width="1.5"/><text x="600" y="353" text-anchor="middle" font-family="Arial,sans-serif" font-size="9" font-weight="bold" fill="white" stroke="rgba(0,40,0,0.9)" stroke-width="3" paint-order="stroke">Sootopolis City</text><text x="600" y="353" text-anchor="middle" font-family="Arial,sans-serif" font-size="9" font-weight="bold" fill="#111">Sootopolis City</text><rect x="592" y="422" width="16" height="16" rx="3" fill="white" stroke="#4592C4" stroke-width="1.5" filter="url(#sh)"/><rect x="596" y="422" width="8" height="5" rx="1" fill="#4592C4" opacity="0.85"/><text x="600" y="450" text-anchor="middle" font-family="Arial,sans-serif" font-size="8" font-weight="600" fill="white" stroke="rgba(0,40,0,0.9)" stroke-width="3" paint-order="stroke">Ever Grande City</text><text x="600" y="450" text-anchor="middle" font-family="Arial,sans-serif" font-size="8" font-weight="600" fill="#111">Ever Grande City</text><rect x="0" y="494" width="760" height="26" fill="rgba(0,0,0,0.5)"/><text x="10" y="511" font-family="Arial,sans-serif" font-size="11" font-weight="bold" fill="rgba(255,255,255,0.9)">Ruby · Sapphire · Emerald · Omega Ruby · Alpha Sapphire</text>
</svg>