<?xml version="1.0" encoding="UTF-8"?>
<svg width="760" height="520" xmlns="http://www.w3.org/2000/svg">
  <defs>
    <linearGradient id="water" x1="0" y1="0" x2="0" y2="1">
      <stop offset="0%" stop-color="#5B9BD5"/><stop offset="100%" stop-color="#3A7FBF"/>
    </linearGradient>
    <filter id="sh"><feDropShadow dx="0" dy="1" stdDeviation="1.5" flood-opacity="0.35"/></filter>
  </defs><rect width="760" height="520" fill="url(#water)"/><line x1="0" y1="15" x2="760" y2="15" stroke="rgba(255,255,255,0.05)" stroke-width="1"/><line x1="0" y1="40" x2="760" y2="40" stroke="rgba(255,255,255,0.05)" stroke-width="1"/><line x1="0" y1="65" x2="760" y2="65" stroke="rgba(255,255,255,0.05)" stroke-width="1"/><line x1="0" y1="90" x2="760" y2="90" stroke="rgba(255,255,255,0.05)" stroke-width="1"/><line x1="0" y1="115" x2="760" y2="115" stroke="rgba(255,255,255,0.05)" stroke-width="1"/><line x1="0" y1="140" x2="760" y2="140" stroke="rgba(255,255,255,0.05)" stroke-width="1"/><line x1="0" y1="165" x2="760" y2="165" stroke="rgba(255,255,255,0.05)" stroke-width="1"/><line x1="0" y1="190" x2="760" y2="190" stroke="rgba(255,255,255,0.05)" stroke-width="1"/><line x1="0" y1="215" x2="760" y2="215" stroke="rgba(255,255,255,0.05)" stroke-width="1"/><line x1="0" y1="240" x2="760" y2="240" stroke="rgba(255,255,255,0.05)" stroke-width="1"/><line x1="0" y1="265" x2="760" y2="265" stroke="rgba(255,255,255,0.05)" stroke-width="1"/><line x1="0" y1="290" x2="760" y2="290" stroke="rgba(255,255,255,0.05)" stroke-width="1"/><line x1="0" y1="315" x2="760" y2="315" stroke="rgba(255,255,255,0.05)" stroke-width="1"/><line x1="0" y1="340" x2="760" y2="340" stroke="rgba(255,255,255,0.05)" stroke-width="1"/><line x1="0" y1="365" x2="760" y2="365" stroke="rgba(255,255,255,0.05)" stroke-width="1"/><line x1="0" y1="390" x2="760" y2="390" stroke="rgba(255,255,255,0.05)" stroke-width="1"/><line x1="0" y1="415" x2="760" y2="415" stroke="rgba(255,255,255,0.05)" stroke-width="1"/><line x1="0" y1="440" x2="760" y2="440" stroke="rgba(255,255,255,0.05)" stroke-width="1"/><line x1="0" y1="465" x2="760" y2="465" stroke="rgba(255,255,255,0.05)" stroke-width="1"/><line x1="0" y1="490" x2="760" y2="490" stroke="rgba(255,255,255,0.05)" stroke-width="1"/><line x1="0" y1="515" x2="760" y2="515" stroke="rgba(255,255,255,0.05)" stroke-width="1"/><polygon points="80,60 700,60 700,470 80,470 80,60" fill="#8BBF6E" stroke="#5A9A45" stroke-width="1.5"/><rect x="0" y="0" width="80" height="520" fill="url(#water)" rx="5" opacity="0.85"/><rect x="700" y="0" width="60" height="520" fill="url(#water)" rx="5" opacity="0.85"/><rect x="80" y="450" width="620" height="70" fill="url(#water)" rx="5" opacity="0.85"/><rect x="200" y="60" width="100" height="120" fill="url(#water)" rx="5" opacity="0.85"/><polygon points="220,362 207,385 233,385" fill="#9B8F7A" stroke="#7A6E5C" stroke-width="1"/><polygon points="220,362 215,375 225,375" fill="rgba(255,255,255,0.55)"/><polygon points="200,352 187,375 213,375" fill="#9B8F7A" stroke="#7A6E5C" stroke-width="1"/><polygon points="200,352 195,365 205,365" fill="rgba(255,255,255,0.55)"/><polygon points="480,232 467,255 493,255" fill="#9B8F7A" stroke="#7A6E5C" stroke-width="1"/><polygon points="480,232 475,245 485,245" fill="rgba(255,255,255,0.55)"/><polygon points="500,222 487,245 513,245" fill="#9B8F7A" stroke="#7A6E5C" stroke-width="1"/><polygon points="500,222 495,235 505,235" fill="rgba(255,255,255,0.55)"/><circle cx="340" cy="270" r="8" fill="#4A8A3A" opacity="0.8"/><circle cx="349" cy="274" r="8" fill="#4A8A3A" opacity="0.8"/><circle cx="333" cy="275" r="8" fill="#4A8A3A" opacity="0.8"/><circle cx="320" cy="280" r="8" fill="#4A8A3A" opacity="0.8"/><circle cx="329" cy="284" r="8" fill="#4A8A3A" opacity="0.8"/><circle cx="313" cy="285" r="8" fill="#4A8A3A" opacity="0.8"/><line x1="160" y1="430" x2="270" y2="430" stroke="#A08040" stroke-width="5" stroke-linecap="round" opacity="0.6"/><line x1="160" y1="430" x2="270" y2="430" stroke="#E8D5A3" stroke-width="3" stroke-linecap="round" stroke-dasharray="7,5"/><rect x="195" y="421" width="40" height="15" rx="4" fill="rgba(240,220,160,0.9)"/><text x="215" y="432" text-anchor="middle" font-family="Arial,sans-serif" font-size="7.5" font-weight="bold" fill="#5A3A08">Rt.29</text><line x1="270" y1="430" x2="400" y2="430" stroke="#A08040" stroke-width="5" stroke-linecap="round" opacity="0.6"/><line x1="270" y1="430" x2="400" y2="430" stroke="#E8D5A3" stroke-width="3" stroke-linecap="round" stroke-dasharray="7,5"/><rect x="315" y="421" width="40" height="15" rx="4" fill="rgba(240,220,160,0.9)"/><text x="335" y="432" text-anchor="middle" font-family="Arial,sans-serif" font-size="7.5" font-weight="bold" fill="#5A3A08">Rt.30/31</text><line x1="400" y1="430" x2="400" y2="330" stroke="#A08040" stroke-width="5" stroke-linecap="round" opacity="0.6"/><line x1="400" y1="430" x2="400" y2="330" stroke="#E8D5A3" stroke-width="3" stroke-linecap="round" stroke-dasharray="7,5"/><rect x="380" y="371" width="40" height="15" rx="4" fill="rgba(240,220,160,0.9)"/><text x="400" y="382" text-anchor="middle" font-family="Arial,sans-serif" font-size="7.5" font-weight="bold" fill="#5A3A08">Rt.32</text><line x1="400" y1="330" x2="270" y2="330" stroke="#A08040" stroke-width="5" stroke-linecap="round" opacity="0.6"/><line x1="400" y1="330" x2="270" y2="330" stroke="#E8D5A3" stroke-width="3" stroke-linecap="round" stroke-dasharray="7,5"/><rect x="315" y="321" width="40" height="15" rx="4" fill="rgba(240,220,160,0.9)"/><text x="335" y="332" text-anchor="middle" font-family="Arial,sans-serif" font-size="7.5" font-weight="bold" fill="#5A3A08">Rt.35</text><line x1="270" y1="330" x2="160" y2="330" stroke="#A08040" stroke-width="5" stroke-linecap="round" opacity="0.6"/><line x1="270" y1="330" x2="160" y2="330" stroke="#E8D5A3" stroke-width="3" stroke-linecap="round" stroke-dasharray="7,5"/><rect x="195" y="321" width="40" height="15" rx="4" fill="rgba(240,220,160,0.9)"/><text x="215" y="332" text-anchor="middle" font-family="Arial,sans-serif" font-size="7.5" font-weight="bold" fill="#5A3A08">Rt.36/37</text><line x1="160" y1="330" x2="160" y2="220" stroke="#A08040" stroke-width="5" stroke-linecap="round" opacity="0.6"/><line x1="160" y1="330" x2="160" y2="220" stroke="#E8D5A3" stroke-width="3" stroke-linecap="round" stroke-dasharray="7,5"/><rect x="140" y="266" width="40" height="15" rx="4" fill="rgba(240,220,160,0.9)"/><text x="160" y="277" text-anchor="middle" font-family="Arial,sans-serif" font-size="7.5" font-weight="bold" fill="#5A3A08">Rt.38</text><line x1="160" y1="220" x2="270" y2="220" stroke="#A08040" stroke-width="5" stroke-linecap="round" opacity="0.6"/><line x1="160" y1="220" x2="270" y2="220" stroke="#E8D5A3" stroke-width="3" stroke-linecap="round" stroke-dasharray="7,5"/><rect x="195" y="211" width="40" height="15" rx="4" fill="rgba(240,220,160,0.9)"/><text x="215" y="222" text-anchor="middle" font-family="Arial,sans-serif" font-size="7.5" font-weight="bold" fill="#5A3A08">Rt.39</text><line x1="270" y1="220" x2="400" y2="220" stroke="#A08040" stroke-width="5" stroke-linecap="round" opacity="0.6"/><line x1="270" y1="220" x2="400" y2="220" stroke="#E8D5A3" stroke-width="3" stroke-linecap="round" stroke-dasharray="7,5"/><rect x="315" y="211" width="40" height="15" rx="4" fill="rgba(240,220,160,0.9)"/><text x="335" y="222" text-anchor="middle" font-family="Arial,sans-serif" font-size="7.5" font-weight="bold" fill="#5A3A08">Rt.40</text><line x1="400" y1="220" x2="530" y2="220" stroke="#A08040" stroke-width="5" stroke-linecap="round" opacity="0.6"/><line x1="400" y1="220" x2="530" y2="220" stroke="#E8D5A3" stroke-width="3" stroke-linecap="round" stroke-dasharray="7,5"/><rect x="445" y="211" width="40" height="15" rx="4" fill="rgba(240,220,160,0.9)"/><text x="465" y="222" text-anchor="middle" font-family="Arial,sans-serif" font-size="7.5" font-weight="bold" fill="#5A3A08">Rt.47/48</text><line x1="530" y1="220" x2="530" y2="330" stroke="#A08040" stroke-width="5" stroke-linecap="round" opacity="0.6"/><line x1="530" y1="220" x2="530" y2="330" stroke="#E8D5A3" stroke-width="3" stroke-linecap="round" stroke-dasharray="7,5"/><rect x="510" y="266" width="40" height="15" rx="4" fill="rgba(240,220,160,0.9)"/><text x="530" y="277" text-anchor="middle" font-family="Arial,sans-serif" font-size="7.5" font-weight="bold" fill="#5A3A08">Rt.41</text><line x1="400" y1="330" x2="530" y2="330" stroke="#A08040" stroke-width="5" stroke-linecap="round" opacity="0.6"/><line x1="400" y1="330" x2="530" y2="330" stroke="#E8D5A3" stroke-width="3" stroke-linecap="round" stroke-dasharray="7,5"/><rect x="445" y="321" width="40" height="15" rx="4" fill="rgba(240,220,160,0.9)"/><text x="465" y="332" text-anchor="middle" font-family="Arial,sans-serif" font-size="7.5" font-weight="bold" fill="#5A3A08">Rt.42</text><line x1="530" y1="330" x2="650" y2="330" stroke="#A08040" stroke-width="5" stroke-linecap="round" opacity="0.6"/><line x1="530" y1="330" x2="650" y2="330" stroke="#E8D5A3" stroke-width="3" stroke-linecap="round" stroke-dasharray="7,5"/><rect x="570" y="321" width="40" height="15" rx="4" fill="rgba(240,220,160,0.9)"/><text x="590" y="332" text-anchor="middle" font-family="Arial,sans-serif" font-size="7.5" font-weight="bold" fill="#5A3A08">Rt.45</text><line x1="650" y1="330" x2="650" y2="220" stroke="#A08040" stroke-width="5" stroke-linecap="round" opacity="0.6"/><line x1="650" y1="330" x2="650" y2="220" stroke="#E8D5A3" stroke-width="3" stroke-linecap="round" stroke-dasharray="7,5"/><rect x="630" y="266" width="40" height="15" rx="4" fill="rgba(240,220,160,0.9)"/><text x="650" y="277" text-anchor="middle" font-family="Arial,sans-serif" font-size="7.5" font-weight="bold" fill="#5A3A08">Rt.46</text><line x1="650" y1="220" x2="530" y2="220" stroke="#A08040" stroke-width="5" stroke-linecap="round" opacity="0.6"/><line x1="650" y1="220" x2="530" y2="220" stroke="#E8D5A3" stroke-width="3" stroke-linecap="round" stroke-dasharray="7,5"/><rect x="570" y="211" width="40" height="15" rx="4" fill="rgba(240,220,160,0.9)"/><text x="590" y="222" text-anchor="middle" font-family="Arial,sans-serif" font-size="7.5" font-weight="bold" fill="#5A3A08">Rt.44</text><line x1="400" y1="330" x2="400" y2="220" stroke="#A08040" stroke-width="5" stroke-linecap="round" opacity="0.6"/><line x1="400" y1="330" x2="400" y2="220" stroke="#E8D5A3" stroke-width="3" stroke-linecap="round" stroke-dasharray="7,5"/><rect x="380" y="266" width="40" height="15" rx="4" fill="rgba(240,220,160,0.9)"/><text x="400" y="277" text-anchor="middle" font-family="Arial,sans-serif" font-size="7.5" font-weight="bold" fill="#5A3A08">Rt.43</text><line x1="270" y1="330" x2="270" y2="220" stroke="#A08040" stroke-width="5" stroke-linecap="round" opacity="0.6"/><line x1="270" y1="330" x2="270" y2="220" stroke="#E8D5A3" stroke-width="3" stroke-linecap="round" stroke-dasharray="7,5"/><rect x="250" y="266" width="40" height="15" rx="4" fill="rgba(240,220,160,0.9)"/><text x="270" y="277" text-anchor="middle" font-family="Arial,sans-serif" font-size="7.5" font-weight="bold" fill="#5A3A08">Rt.34</text><line x1="160" y1="330" x2="160" y2="220" stroke="#A08040" stroke-width="5" stroke-linecap="round" opacity="0.6"/><line x1="160" y1="330" x2="160" y2="220" stroke="#E8D5A3" stroke-width="3" stroke-linecap="round" stroke-dasharray="7,5"/><rect x="140" y="266" width="40" height="15" rx="4" fill="rgba(240,220,160,0.9)"/><text x="160" y="277" text-anchor="middle" font-family="Arial,sans-serif" font-size="7.5" font-weight="bold" fill="#5A3A08">Rt.33</text><rect x="152" y="422" width="16" height="16" rx="3" fill="white" stroke="#D4AC0D" stroke-width="1.5" filter="url(#sh)"/><rect x="156" y="422" width="8" height="5" rx="1" fill="#D4AC0D" opacity="0.85"/><text x="160" y="450" text-anchor="middle" font-family="Arial,sans-serif" font-size="8" font-weight="600" fill="white" stroke="rgba(0,40,0,0.9)" stroke-width="3" paint-order="stroke">New Bark Town</text><text x="160" y="450" text-anchor="middle" font-family="Arial,sans-serif" font-size="8" font-weight="600" fill="#111">New Bark Town</text><rect x="259" y="419" width="22" height="22" rx="3" fill="white" stroke="#D4AC0D" stroke-width="2.5" filter="url(#sh)"/><rect x="266" y="419" width="8" height="6" rx="1" fill="#D4AC0D" opacity="0.85"/><line x1="270" y1="414" x2="270" y2="419" stroke="#D4AC0D" stroke-width="1.5"/><text x="270" y="453" text-anchor="middle" font-family="Arial,sans-serif" font-size="9" font-weight="bold" fill="white" stroke="rgba(0,40,0,0.9)" stroke-width="3" paint-order="stroke">Cherrygrove City</text><text x="270" y="453" text-anchor="middle" font-family="Arial,sans-serif" font-size="9" font-weight="bold" fill="#111">Cherrygrove City</text><rect x="389" y="419" width="22" height="22" rx="3" fill="white" stroke="#D4AC0D" stroke-width="2.5" filter="url(#sh)"/><rect x="396" y="419" width="8" height="6" rx="1" fill="#D4AC0D" opacity="0.85"/><line x1="400" y1="414" x2="400" y2="419" stroke="#D4AC0D" stroke-width="1.5"/><text x="400" y="453" text-anchor="middle" font-family="Arial,sans-serif" font-size="9" font-weight="bold" fill="white" stroke="rgba(0,40,0,0.9)" stroke-width="3" paint-order="stroke">Violet City</text><text x="400" y="453" text-anchor="middle" font-family="Arial,sans-serif" font-size="9" font-weight="bold" fill="#111">Violet City</text><rect x="259" y="319" width="22" height="22" rx="3" fill="white" stroke="#D4AC0D" stroke-width="2.5" filter="url(#sh)"/><rect x="266" y="319" width="8" height="6" rx="1" fill="#D4AC0D" opacity="0.85"/><line x1="270" y1="314" x2="270" y2="319" stroke="#D4AC0D" stroke-width="1.5"/><text x="270" y="353" text-anchor="middle" font-family="Arial,sans-serif" font-size="9" font-weight="bold" fill="white" stroke="rgba(0,40,0,0.9)" stroke-width="3" paint-order="stroke">Goldenrod City</text><text x="270" y="353" text-anchor="middle" font-family="Arial,sans-serif" font-size="9" font-weight="bold" fill="#111">Goldenrod City</text><rect x="152" y="322" width="16" height="16" rx="3" fill="white" stroke="#D4AC0D" stroke-width="1.5" filter="url(#sh)"/><rect x="156" y="322" width="8" height="5" rx="1" fill="#D4AC0D" opacity="0.85"/><text x="160" y="350" text-anchor="middle" font-family="Arial,sans-serif" font-size="8" font-weight="600" fill="white" stroke="rgba(0,40,0,0.9)" stroke-width="3" paint-order="stroke">Azalea Town</text><text x="160" y="350" text-anchor="middle" font-family="Arial,sans-serif" font-size="8" font-weight="600" fill="#111">Azalea Town</text><rect x="149" y="209" width="22" height="22" rx="3" fill="white" stroke="#D4AC0D" stroke-width="2.5" filter="url(#sh)"/><rect x="156" y="209" width="8" height="6" rx="1" fill="#D4AC0D" opacity="0.85"/><line x1="160" y1="204" x2="160" y2="209" stroke="#D4AC0D" stroke-width="1.5"/><text x="160" y="243" text-anchor="middle" font-family="Arial,sans-serif" font-size="9" font-weight="bold" fill="white" stroke="rgba(0,40,0,0.9)" stroke-width="3" paint-order="stroke">Ecruteak City</text><text x="160" y="243" text-anchor="middle" font-family="Arial,sans-serif" font-size="9" font-weight="bold" fill="#111">Ecruteak City</text><rect x="259" y="209" width="22" height="22" rx="3" fill="white" stroke="#D4AC0D" stroke-width="2.5" filter="url(#sh)"/><rect x="266" y="209" width="8" height="6" rx="1" fill="#D4AC0D" opacity="0.85"/><line x1="270" y1="204" x2="270" y2="209" stroke="#D4AC0D" stroke-width="1.5"/><text x="270" y="243" text-anchor="middle" font-family="Arial,sans-serif" font-size="9" font-weight="bold" fill="white" stroke="rgba(0,40,0,0.9)" stroke-width="3" paint-order="stroke">Olivine City</text><text x="270" y="243" text-anchor="middle" font-family="Arial,sans-serif" font-size="9" font-weight="bold" fill="#111">Olivine City</text><rect x="392" y="212" width="16" height="16" rx="3" fill="white" stroke="#D4AC0D" stroke-width="1.5" filter="url(#sh)"/><rect x="396" y="212" width="8" height="5" rx="1" fill="#D4AC0D" opacity="0.85"/><text x="400" y="240" text-anchor="middle" font-family="Arial,sans-serif" font-size="8" font-weight="600" fill="white" stroke="rgba(0,40,0,0.9)" stroke-width="3" paint-order="stroke">Cianwood City</text><text x="400" y="240" text-anchor="middle" font-family="Arial,sans-serif" font-size="8" font-weight="600" fill="#111">Cianwood City</text><rect x="522" y="212" width="16" height="16" rx="3" fill="white" stroke="#D4AC0D" stroke-width="1.5" filter="url(#sh)"/><rect x="526" y="212" width="8" height="5" rx="1" fill="#D4AC0D" opacity="0.85"/><text x="530" y="240" text-anchor="middle" font-family="Arial,sans-serif" font-size="8" font-weight="600" fill="white" stroke="rgba(0,40,0,0.9)" stroke-width="3" paint-order="stroke">Mahogany Town</text><text x="530" y="240" text-anchor="middle" font-family="Arial,sans-serif" font-size="8" font-weight="600" fill="#111">Mahogany Town</text><rect x="639" y="209" width="22" height="22" rx="3" fill="white" stroke="#D4AC0D" stroke-width="2.5" filter="url(#sh)"/><rect x="646" y="209" width="8" height="6" rx="1" fill="#D4AC0D" opacity="0.85"/><line x1="650" y1="204" x2="650" y2="209" stroke="#D4AC0D" stroke-width="1.5"/><text x="650" y="243" text-anchor="middle" font-family="Arial,sans-serif" font-size="9" font-weight="bold" fill="white" stroke="rgba(0,40,0,0.9)" stroke-width="3" paint-order="stroke">Blackthorn City</text><text x="650" y="243" text-anchor="middle" font-family="Arial,sans-serif" font-size="9" font-weight="bold" fill="#111">Blackthorn City</text><rect x="522" y="322" width="16" height="16" rx="3" fill="white" stroke="#D4AC0D" stroke-width="1.5" filter="url(#sh)"/><rect x="526" y="322" width="8" height="5" rx="1" fill="#D4AC0D" opacity="0.85"/><text x="530" y="350" text-anchor="middle" font-family="Arial,sans-serif" font-size="8" font-weight="600" fill="white" stroke="rgba(0,40,0,0.9)" stroke-width="3" paint-order="stroke">Lake of Rage</text><text x="530" y="350" text-anchor="middle" font-family="Arial,sans-serif" font-size="8" font-weight="600" fill="#111">Lake of Rage</text><rect x="642" y="322" width="16" height="16" rx="3" fill="white" stroke="#D4AC0D" stroke-width="1.5" filter="url(#sh)"/><rect x="646" y="322" width="8" height="5" rx="1" fill="#D4AC0D" opacity="0.85"/><text x="650" y="350" text-anchor="middle" font-family="Arial,sans-serif" font-size="8" font-weight="600" fill="white" stroke="rgba(0,40,0,0.9)" stroke-width="3" paint-order="stroke">Mt. Silver</text><text x="650" y="350" text-anchor="middle" font-family="Arial,sans-serif" font-size="8" font-weight="600" fill="#111">Mt. Silver</text><rect x="392" y="322" width="16" height="16" rx="3" fill="white" stroke="#D4AC0D" stroke-width="1.5" filter="url(#sh)"/><rect x="396" y="322" width="8" height="5" rx="1" fill="#D4AC0D" opacity="0.85"/><text x="400" y="350" text-anchor="middle" font-family="Arial,sans-serif" font-size="8" font-weight="600" fill="white" stroke="rgba(0,40,0,0.9)" stroke-width="3" paint-order="stroke">National Park</text><text x="400" y="350" text-anchor="middle" font-family="Arial,sans-serif" font-size="8" font-weight="600" fill="#111">National Park</text><rect x="0" y="494" width="760" height="26" fill="rgba(0,0,0,0.5)"/><text x="10" y="511" font-family="Arial,sans-serif" font-size="11" font-weight="bold" fill="rgba(255,255,255,0.9)">Gold · Silver · Crystal · HeartGold · SoulSilver</text>
</svg>