<?xml version="1.0" encoding="UTF-8"?>
<svg width="760" height="520" xmlns="http://www.w3.org/2000/svg">
  <defs>
    <linearGradient id="water" x1="0" y1="0" x2="0" y2="1">
      <stop offset="0%" stop-color="#5B9BD5"/><stop offset="100%" stop-color="#3A7FBF"/>
    </linearGradient>
    <filter id="sh"><feDropShadow dx="0" dy="1" stdDeviation="1.5" flood-opacity="0.35"/></filter>
  </defs><rect width="760" height="520" fill="url(#water)"/><line x1="0" y1="15" x2="760" y2="15" stroke="rgba(255,255,255,0.05)" stroke-width="1"/><line x1="0" y1="40" x2="760" y2="40" stroke="rgba(255,255,255,0.05)" stroke-width="1"/><line x1="0" y1="65" x2="760" y2="65" stroke="rgba(255,255,255,0.05)" stroke-width="1"/><line x1="0" y1="90" x2="760" y2="90" stroke="rgba(255,255,255,0.05)" stroke-width="1"/><line x1="0" y1="115" x2="760" y2="115" stroke="rgba(255,255,255,0.05)" stroke-width="1"/><line x1="0" y1="140" x2="760" y2="140" stroke="rgba(255,255,255,0.05)" stroke-width="1"/><line x1="0" y1="165" x2="760" y2="165" stroke="rgba(255,255,255,0.05)" stroke-width="1"/><line x1="0" y1="190" x2="760" y2="190" stroke="rgba(255,255,255,0.05)" stroke-width="1"/><line x1="0" y1="215" x2="760" y2="215" stroke="rgba(255,255,255,0.05)" stroke-width="1"/><line x1="0" y1="240" x2="760" y2="240" stroke="rgba(255,255,255,0.05)" stroke-width="1"/><line x1="0" y1="265" x2="760" y2="265" stroke="rgba(255,255,255,0.05)" stroke-width="1"/><line x1="0" y1="290" x2="760" y2="290" stroke="rgba(255,255,255,0.05)" stroke-width="1"/><line x1="0" y1="315" x2="760" y2="315" stroke="rgba(255,255,255,0.05)" stroke-width="1"/><line x1="0" y1="340" x2="760" y2="340" stroke="rgba(255,255,255,0.05)" stroke-width="1"/><line x1="0" y1="365" x2="760" y2="365" stroke="rgba(255,255,255,0.05)" stroke-width="1"/><line x1="0" y1="390" x2="760" y2="390" stroke="rgba(255,255,255,0.05)" stroke-width="1"/><line x1="0" y1="415" x2="760" y2="415" stroke="rgba(255,255,255,0.05)" stroke-width="1"/><line x1="0" y1="440" x2="760" y2="440" stroke="rgba(255,255,255,0.05)" stroke-width="1"/><line x1="0" y1="465" x2="760" y2="465" stroke="rgba(255,255,255,0.05)" stroke-width="1"/><line x1="0" y1="490" x2="760" y2="490" stroke="rgba(255,255,255,0.05)" stroke-width="1"/><line x1="0" y1="515" x2="760" y2="515" stroke="rgba(255,255,255,0.05)" stroke-width="1"/><polygon points="80,60 620,60 620,470 80,470 80,60" fill="#8BBF6E" stroke="#5A9A45" stroke-width="1.5"/><rect x="0" y="0" width="80" height="520" fill="url(#water)" rx="5" opacity="0.85"/><rect x="620" y="0" width="140" height="520" fill="url(#water)" rx="5" opacity="0.85"/><rect x="80" y="450" width="540" height="70" fill="url(#water)" rx="5" opacity="0.85"/><rect x="80" y="60" width="120" height="100" fill="url(#water)" rx="5" opacity="0.85"/><polygon points="290,362 277,385 303,385" fill="#9B8F7A" stroke="#7A6E5C" stroke-width="1"/><polygon points="290,362 285,375 295,375" fill="rgba(255,255,255,0.55)"/><polygon points="270,352 257,375 283,375" fill="#9B8F7A" stroke="#7A6E5C" stroke-width="1"/><polygon points="270,352 265,365 275,365" fill="rgba(255,255,255,0.55)"/><circle cx="210" cy="295" r="8" fill="#4A8A3A" opacity="0.8"/><circle cx="219" cy="299" r="8" fill="#4A8A3A" opacity="0.8"/><circle cx="203" cy="300" r="8" fill="#4A8A3A" opacity="0.8"/><circle cx="190" cy="305" r="8" fill="#4A8A3A" opacity="0.8"/><circle cx="199" cy="309" r="8" fill="#4A8A3A" opacity="0.8"/><circle cx="183" cy="310" r="8" fill="#4A8A3A" opacity="0.8"/><polygon points="430,167 417,190 443,190" fill="#9B8F7A" stroke="#7A6E5C" stroke-width="1"/><polygon points="430,167 425,180 435,180" fill="rgba(255,255,255,0.55)"/><polygon points="450,157 437,180 463,180" fill="#9B8F7A" stroke="#7A6E5C" stroke-width="1"/><polygon points="450,157 445,170 455,170" fill="rgba(255,255,255,0.55)"/><line x1="140" y1="440" x2="260" y2="440" stroke="#A08040" stroke-width="5" stroke-linecap="round" opacity="0.6"/><line x1="140" y1="440" x2="260" y2="440" stroke="#E8D5A3" stroke-width="3" stroke-linecap="round" stroke-dasharray="7,5"/><rect x="180" y="431" width="40" height="15" rx="4" fill="rgba(240,220,160,0.9)"/><text x="200" y="442" text-anchor="middle" font-family="Arial,sans-serif" font-size="7.5" font-weight="bold" fill="#5A3A08">Rt.1</text><line x1="260" y1="440" x2="380" y2="440" stroke="#A08040" stroke-width="5" stroke-linecap="round" opacity="0.6"/><line x1="260" y1="440" x2="380" y2="440" stroke="#E8D5A3" stroke-width="3" stroke-linecap="round" stroke-dasharray="7,5"/><rect x="300" y="431" width="40" height="15" rx="4" fill="rgba(240,220,160,0.9)"/><text x="320" y="442" text-anchor="middle" font-family="Arial,sans-serif" font-size="7.5" font-weight="bold" fill="#5A3A08">Rt.2</text><line x1="380" y1="440" x2="380" y2="340" stroke="#A08040" stroke-width="5" stroke-linecap="round" opacity="0.6"/><line x1="380" y1="440" x2="380" y2="340" stroke="#E8D5A3" stroke-width="3" stroke-linecap="round" stroke-dasharray="7,5"/><rect x="360" y="381" width="40" height="15" rx="4" fill="rgba(240,220,160,0.9)"/><text x="380" y="392" text-anchor="middle" font-family="Arial,sans-serif" font-size="7.5" font-weight="bold" fill="#5A3A08">Rt.3</text><line x1="380" y1="340" x2="260" y2="340" stroke="#A08040" stroke-width="5" stroke-linecap="round" opacity="0.6"/><line x1="380" y1="340" x2="260" y2="340" stroke="#E8D5A3" stroke-width="3" stroke-linecap="round" stroke-dasharray="7,5"/><rect x="300" y="331" width="40" height="15" rx="4" fill="rgba(240,220,160,0.9)"/><text x="320" y="342" text-anchor="middle" font-family="Arial,sans-serif" font-size="7.5" font-weight="bold" fill="#5A3A08">Rt.5</text><line x1="260" y1="340" x2="140" y2="340" stroke="#A08040" stroke-width="5" stroke-linecap="round" opacity="0.6"/><line x1="260" y1="340" x2="140" y2="340" stroke="#E8D5A3" stroke-width="3" stroke-linecap="round" stroke-dasharray="7,5"/><rect x="180" y="331" width="40" height="15" rx="4" fill="rgba(240,220,160,0.9)"/><text x="200" y="342" text-anchor="middle" font-family="Arial,sans-serif" font-size="7.5" font-weight="bold" fill="#5A3A08">Rt.6</text><line x1="140" y1="340" x2="140" y2="240" stroke="#A08040" stroke-width="5" stroke-linecap="round" opacity="0.6"/><line x1="140" y1="340" x2="140" y2="240" stroke="#E8D5A3" stroke-width="3" stroke-linecap="round" stroke-dasharray="7,5"/><rect x="120" y="281" width="40" height="15" rx="4" fill="rgba(240,220,160,0.9)"/><text x="140" y="292" text-anchor="middle" font-family="Arial,sans-serif" font-size="7.5" font-weight="bold" fill="#5A3A08">Rt.7</text><line x1="140" y1="240" x2="260" y2="240" stroke="#A08040" stroke-width="5" stroke-linecap="round" opacity="0.6"/><line x1="140" y1="240" x2="260" y2="240" stroke="#E8D5A3" stroke-width="3" stroke-linecap="round" stroke-dasharray="7,5"/><rect x="180" y="231" width="40" height="15" rx="4" fill="rgba(240,220,160,0.9)"/><text x="200" y="242" text-anchor="middle" font-family="Arial,sans-serif" font-size="7.5" font-weight="bold" fill="#5A3A08">Rt.8</text><line x1="260" y1="240" x2="380" y2="240" stroke="#A08040" stroke-width="5" stroke-linecap="round" opacity="0.6"/><line x1="260" y1="240" x2="380" y2="240" stroke="#E8D5A3" stroke-width="3" stroke-linecap="round" stroke-dasharray="7,5"/><rect x="300" y="231" width="40" height="15" rx="4" fill="rgba(240,220,160,0.9)"/><text x="320" y="242" text-anchor="middle" font-family="Arial,sans-serif" font-size="7.5" font-weight="bold" fill="#5A3A08">Rt.9</text><line x1="380" y1="240" x2="380" y2="140" stroke="#A08040" stroke-width="5" stroke-linecap="round" opacity="0.6"/><line x1="380" y1="240" x2="380" y2="140" stroke="#E8D5A3" stroke-width="3" stroke-linecap="round" stroke-dasharray="7,5"/><rect x="360" y="181" width="40" height="15" rx="4" fill="rgba(240,220,160,0.9)"/><text x="380" y="192" text-anchor="middle" font-family="Arial,sans-serif" font-size="7.5" font-weight="bold" fill="#5A3A08">Rt.10</text><line x1="380" y1="140" x2="260" y2="140" stroke="#A08040" stroke-width="5" stroke-linecap="round" opacity="0.6"/><line x1="380" y1="140" x2="260" y2="140" stroke="#E8D5A3" stroke-width="3" stroke-linecap="round" stroke-dasharray="7,5"/><rect x="300" y="131" width="40" height="15" rx="4" fill="rgba(240,220,160,0.9)"/><text x="320" y="142" text-anchor="middle" font-family="Arial,sans-serif" font-size="7.5" font-weight="bold" fill="#5A3A08">Rt.11</text><line x1="260" y1="140" x2="140" y2="140" stroke="#A08040" stroke-width="5" stroke-linecap="round" opacity="0.6"/><line x1="260" y1="140" x2="140" y2="140" stroke="#E8D5A3" stroke-width="3" stroke-linecap="round" stroke-dasharray="7,5"/><rect x="180" y="131" width="40" height="15" rx="4" fill="rgba(240,220,160,0.9)"/><text x="200" y="142" text-anchor="middle" font-family="Arial,sans-serif" font-size="7.5" font-weight="bold" fill="#5A3A08">Rt.12</text><line x1="140" y1="140" x2="140" y2="240" stroke="#A08040" stroke-width="5" stroke-linecap="round" opacity="0.6"/><line x1="140" y1="140" x2="140" y2="240" stroke="#E8D5A3" stroke-width="3" stroke-linecap="round" stroke-dasharray="7,5"/><rect x="120" y="181" width="40" height="15" rx="4" fill="rgba(240,220,160,0.9)"/><text x="140" y="192" text-anchor="middle" font-family="Arial,sans-serif" font-size="7.5" font-weight="bold" fill="#5A3A08">Rt.13</text><line x1="380" y1="240" x2="500" y2="240" stroke="#A08040" stroke-width="5" stroke-linecap="round" opacity="0.6"/><line x1="380" y1="240" x2="500" y2="240" stroke="#E8D5A3" stroke-width="3" stroke-linecap="round" stroke-dasharray="7,5"/><rect x="420" y="231" width="40" height="15" rx="4" fill="rgba(240,220,160,0.9)"/><text x="440" y="242" text-anchor="middle" font-family="Arial,sans-serif" font-size="7.5" font-weight="bold" fill="#5A3A08">Rt.15</text><line x1="500" y1="240" x2="500" y2="340" stroke="#A08040" stroke-width="5" stroke-linecap="round" opacity="0.6"/><line x1="500" y1="240" x2="500" y2="340" stroke="#E8D5A3" stroke-width="3" stroke-linecap="round" stroke-dasharray="7,5"/><rect x="480" y="281" width="40" height="15" rx="4" fill="rgba(240,220,160,0.9)"/><text x="500" y="292" text-anchor="middle" font-family="Arial,sans-serif" font-size="7.5" font-weight="bold" fill="#5A3A08">Rt.16</text><line x1="500" y1="340" x2="380" y2="340" stroke="#A08040" stroke-width="5" stroke-linecap="round" opacity="0.6"/><line x1="500" y1="340" x2="380" y2="340" stroke="#E8D5A3" stroke-width="3" stroke-linecap="round" stroke-dasharray="7,5"/><rect x="420" y="331" width="40" height="15" rx="4" fill="rgba(240,220,160,0.9)"/><text x="440" y="342" text-anchor="middle" font-family="Arial,sans-serif" font-size="7.5" font-weight="bold" fill="#5A3A08">Rt.19</text><line x1="500" y1="240" x2="500" y2="140" stroke="#A08040" stroke-width="5" stroke-linecap="round" opacity="0.6"/><line x1="500" y1="240" x2="500" y2="140" stroke="#E8D5A3" stroke-width="3" stroke-linecap="round" stroke-dasharray="7,5"/><rect x="480" y="181" width="40" height="15" rx="4" fill="rgba(240,220,160,0.9)"/><text x="500" y="192" text-anchor="middle" font-family="Arial,sans-serif" font-size="7.5" font-weight="bold" fill="#5A3A08">Rt.17</text><line x1="500" y1="140" x2="380" y2="140" stroke="#A08040" stroke-width="5" stroke-linecap="round" opacity="0.6"/><line x1="500" y1="140" x2="380" y2="140" stroke="#E8D5A3" stroke-width="3" stroke-linecap="round" stroke-dasharray="7,5"/><rect x="420" y="131" width="40" height="15" rx="4" fill="rgba(240,220,160,0.9)"/><text x="440" y="142" text-anchor="middle" font-family="Arial,sans-serif" font-size="7.5" font-weight="bold" fill="#5A3A08">Rt.18</text><line x1="260" y1="340" x2="260" y2="240" stroke="#A08040" stroke-width="5" stroke-linecap="round" opacity="0.6"/><line x1="260" y1="340" x2="260" y2="240" stroke="#E8D5A3" stroke-width="3" stroke-linecap="round" stroke-dasharray="7,5"/><rect x="240" y="281" width="40" height="15" rx="4" fill="rgba(240,220,160,0.9)"/><text x="260" y="292" text-anchor="middle" font-family="Arial,sans-serif" font-size="7.5" font-weight="bold" fill="#5A3A08">Rt.14</text><line x1="260" y1="240" x2="260" y2="140" stroke="#A08040" stroke-width="5" stroke-linecap="round" opacity="0.6"/><line x1="260" y1="240" x2="260" y2="140" stroke="#E8D5A3" stroke-width="3" stroke-linecap="round" stroke-dasharray="7,5"/><rect x="240" y="181" width="40" height="15" rx="4" fill="rgba(240,220,160,0.9)"/><text x="260" y="192" text-anchor="middle" font-family="Arial,sans-serif" font-size="7.5" font-weight="bold" fill="#5A3A08">Rt.14b</text><line x1="380" y1="440" x2="500" y2="440" stroke="#A08040" stroke-width="5" stroke-linecap="round" opacity="0.6"/><line x1="380" y1="440" x2="500" y2="440" stroke="#E8D5A3" stroke-width="3" stroke-linecap="round" stroke-dasharray="7,5"/><rect x="420" y="431" width="40" height="15" rx="4" fill="rgba(240,220,160,0.9)"/><text x="440" y="442" text-anchor="middle" font-family="Arial,sans-serif" font-size="7.5" font-weight="bold" fill="#5A3A08">Rt.4</text><line x1="500" y1="440" x2="500" y2="340" stroke="#A08040" stroke-width="5" stroke-linecap="round" opacity="0.6"/><line x1="500" y1="440" x2="500" y2="340" stroke="#E8D5A3" stroke-width="3" stroke-linecap="round" stroke-dasharray="7,5"/><rect x="480" y="381" width="40" height="15" rx="4" fill="rgba(240,220,160,0.9)"/><text x="500" y="392" text-anchor="middle" font-family="Arial,sans-serif" font-size="7.5" font-weight="bold" fill="#5A3A08">Rt.4b</text><line x1="140" y1="440" x2="140" y2="340" stroke="#A08040" stroke-width="5" stroke-linecap="round" opacity="0.6"/><line x1="140" y1="440" x2="140" y2="340" stroke="#E8D5A3" stroke-width="3" stroke-linecap="round" stroke-dasharray="7,5"/><rect x="120" y="381" width="40" height="15" rx="4" fill="rgba(240,220,160,0.9)"/><text x="140" y="392" text-anchor="middle" font-family="Arial,sans-serif" font-size="7.5" font-weight="bold" fill="#5A3A08">Rt.2b</text><rect x="132" y="432" width="16" height="16" rx="3" fill="white" stroke="#F366B9" stroke-width="1.5" filter="url(#sh)"/><rect x="136" y="432" width="8" height="5" rx="1" fill="#F366B9" opacity="0.85"/><text x="140" y="460" text-anchor="middle" font-family="Arial,sans-serif" font-size="8" font-weight="600" fill="white" stroke="rgba(0,40,0,0.9)" stroke-width="3" paint-order="stroke">Vaniville Town</text><text x="140" y="460" text-anchor="middle" font-family="Arial,sans-serif" font-size="8" font-weight="600" fill="#111">Vaniville Town</text><rect x="252" y="432" width="16" height="16" rx="3" fill="white" stroke="#F366B9" stroke-width="1.5" filter="url(#sh)"/><rect x="256" y="432" width="8" height="5" rx="1" fill="#F366B9" opacity="0.85"/><text x="260" y="460" text-anchor="middle" font-family="Arial,sans-serif" font-size="8" font-weight="600" fill="white" stroke="rgba(0,40,0,0.9)" stroke-width="3" paint-order="stroke">Aquacorde Town</text><text x="260" y="460" text-anchor="middle" font-family="Arial,sans-serif" font-size="8" font-weight="600" fill="#111">Aquacorde Town</text><rect x="369" y="429" width="22" height="22" rx="3" fill="white" stroke="#F366B9" stroke-width="2.5" filter="url(#sh)"/><rect x="376" y="429" width="8" height="6" rx="1" fill="#F366B9" opacity="0.85"/><line x1="380" y1="424" x2="380" y2="429" stroke="#F366B9" stroke-width="1.5"/><text x="380" y="463" text-anchor="middle" font-family="Arial,sans-serif" font-size="9" font-weight="bold" fill="white" stroke="rgba(0,40,0,0.9)" stroke-width="3" paint-order="stroke">Santalune City</text><text x="380" y="463" text-anchor="middle" font-family="Arial,sans-serif" font-size="9" font-weight="bold" fill="#111">Santalune City</text><rect x="489" y="429" width="22" height="22" rx="3" fill="white" stroke="#F366B9" stroke-width="2.5" filter="url(#sh)"/><rect x="496" y="429" width="8" height="6" rx="1" fill="#F366B9" opacity="0.85"/><line x1="500" y1="424" x2="500" y2="429" stroke="#F366B9" stroke-width="1.5"/><text x="500" y="463" text-anchor="middle" font-family="Arial,sans-serif" font-size="9" font-weight="bold" fill="white" stroke="rgba(0,40,0,0.9)" stroke-width="3" paint-order="stroke">Lumiose City</text><text x="500" y="463" text-anchor="middle" font-family="Arial,sans-serif" font-size="9" font-weight="bold" fill="#111">Lumiose City</text><rect x="492" y="332" width="16" height="16" rx="3" fill="white" stroke="#F366B9" stroke-width="1.5" filter="url(#sh)"/><rect x="496" y="332" width="8" height="5" rx="1" fill="#F366B9" opacity="0.85"/><text x="500" y="360" text-anchor="middle" font-family="Arial,sans-serif" font-size="8" font-weight="600" fill="white" stroke="rgba(0,40,0,0.9)" stroke-width="3" paint-order="stroke">Camphrier Town</text><text x="500" y="360" text-anchor="middle" font-family="Arial,sans-serif" font-size="8" font-weight="600" fill="#111">Camphrier Town</text><rect x="369" y="329" width="22" height="22" rx="3" fill="white" stroke="#F366B9" stroke-width="2.5" filter="url(#sh)"/><rect x="376" y="329" width="8" height="6" rx="1" fill="#F366B9" opacity="0.85"/><line x1="380" y1="324" x2="380" y2="329" stroke="#F366B9" stroke-width="1.5"/><text x="380" y="363" text-anchor="middle" font-family="Arial,sans-serif" font-size="9" font-weight="bold" fill="white" stroke="rgba(0,40,0,0.9)" stroke-width="3" paint-order="stroke">Cyllage City</text><text x="380" y="363" text-anchor="middle" font-family="Arial,sans-serif" font-size="9" font-weight="bold" fill="#111">Cyllage City</text><rect x="252" y="332" width="16" height="16" rx="3" fill="white" stroke="#F366B9" stroke-width="1.5" filter="url(#sh)"/><rect x="256" y="332" width="8" height="5" rx="1" fill="#F366B9" opacity="0.85"/><text x="260" y="360" text-anchor="middle" font-family="Arial,sans-serif" font-size="8" font-weight="600" fill="white" stroke="rgba(0,40,0,0.9)" stroke-width="3" paint-order="stroke">Ambrette Town</text><text x="260" y="360" text-anchor="middle" font-family="Arial,sans-serif" font-size="8" font-weight="600" fill="#111">Ambrette Town</text><rect x="132" y="332" width="16" height="16" rx="3" fill="white" stroke="#F366B9" stroke-width="1.5" filter="url(#sh)"/><rect x="136" y="332" width="8" height="5" rx="1" fill="#F366B9" opacity="0.85"/><text x="140" y="360" text-anchor="middle" font-family="Arial,sans-serif" font-size="8" font-weight="600" fill="white" stroke="rgba(0,40,0,0.9)" stroke-width="3" paint-order="stroke">Geosenge Town</text><text x="140" y="360" text-anchor="middle" font-family="Arial,sans-serif" font-size="8" font-weight="600" fill="#111">Geosenge Town</text><rect x="129" y="229" width="22" height="22" rx="3" fill="white" stroke="#F366B9" stroke-width="2.5" filter="url(#sh)"/><rect x="136" y="229" width="8" height="6" rx="1" fill="#F366B9" opacity="0.85"/><line x1="140" y1="224" x2="140" y2="229" stroke="#F366B9" stroke-width="1.5"/><text x="140" y="263" text-anchor="middle" font-family="Arial,sans-serif" font-size="9" font-weight="bold" fill="white" stroke="rgba(0,40,0,0.9)" stroke-width="3" paint-order="stroke">Shalour City</text><text x="140" y="263" text-anchor="middle" font-family="Arial,sans-serif" font-size="9" font-weight="bold" fill="#111">Shalour City</text><rect x="249" y="229" width="22" height="22" rx="3" fill="white" stroke="#F366B9" stroke-width="2.5" filter="url(#sh)"/><rect x="256" y="229" width="8" height="6" rx="1" fill="#F366B9" opacity="0.85"/><line x1="260" y1="224" x2="260" y2="229" stroke="#F366B9" stroke-width="1.5"/><text x="260" y="263" text-anchor="middle" font-family="Arial,sans-serif" font-size="9" font-weight="bold" fill="white" stroke="rgba(0,40,0,0.9)" stroke-width="3" paint-order="stroke">Coumarine City</text><text x="260" y="263" text-anchor="middle" font-family="Arial,sans-serif" font-size="9" font-weight="bold" fill="#111">Coumarine City</text><rect x="369" y="229" width="22" height="22" rx="3" fill="white" stroke="#F366B9" stroke-width="2.5" filter="url(#sh)"/><rect x="376" y="229" width="8" height="6" rx="1" fill="#F366B9" opacity="0.85"/><line x1="380" y1="224" x2="380" y2="229" stroke="#F366B9" stroke-width="1.5"/><text x="380" y="263" text-anchor="middle" font-family="Arial,sans-serif" font-size="9" font-weight="bold" fill="white" stroke="rgba(0,40,0,0.9)" stroke-width="3" paint-order="stroke">Laverre City</text><text x="380" y="263" text-anchor="middle" font-family="Arial,sans-serif" font-size="9" font-weight="bold" fill="#111">Laverre City</text><rect x="492" y="232" width="16" height="16" rx="3" fill="white" stroke="#F366B9" stroke-width="1.5" filter="url(#sh)"/><rect x="496" y="232" width="8" height="5" rx="1" fill="#F366B9" opacity="0.85"/><text x="500" y="260" text-anchor="middle" font-family="Arial,sans-serif" font-size="8" font-weight="600" fill="white" stroke="rgba(0,40,0,0.9)" stroke-width="3" paint-order="stroke">Dendemille Town</text><text x="500" y="260" text-anchor="middle" font-family="Arial,sans-serif" font-size="8" font-weight="600" fill="#111">Dendemille Town</text><rect x="489" y="129" width="22" height="22" rx="3" fill="white" stroke="#F366B9" stroke-width="2.5" filter="url(#sh)"/><rect x="496" y="129" width="8" height="6" rx="1" fill="#F366B9" opacity="0.85"/><line x1="500" y1="124" x2="500" y2="129" stroke="#F366B9" stroke-width="1.5"/><text x="500" y="163" text-anchor="middle" font-family="Arial,sans-serif" font-size="9" font-weight="bold" fill="white" stroke="rgba(0,40,0,0.9)" stroke-width="3" paint-order="stroke">Anistar City</text><text x="500" y="163" text-anchor="middle" font-family="Arial,sans-serif" font-size="9" font-weight="bold" fill="#111">Anistar City</text><rect x="372" y="132" width="16" height="16" rx="3" fill="white" stroke="#F366B9" stroke-width="1.5" filter="url(#sh)"/><rect x="376" y="132" width="8" height="5" rx="1" fill="#F366B9" opacity="0.85"/><text x="380" y="160" text-anchor="middle" font-family="Arial,sans-serif" font-size="8" font-weight="600" fill="white" stroke="rgba(0,40,0,0.9)" stroke-width="3" paint-order="stroke">Couriway Town</text><text x="380" y="160" text-anchor="middle" font-family="Arial,sans-serif" font-size="8" font-weight="600" fill="#111">Couriway Town</text><rect x="249" y="129" width="22" height="22" rx="3" fill="white" stroke="#F366B9" stroke-width="2.5" filter="url(#sh)"/><rect x="256" y="129" width="8" height="6" rx="1" fill="#F366B9" opacity="0.85"/><line x1="260" y1="124" x2="260" y2="129" stroke="#F366B9" stroke-width="1.5"/><text x="260" y="163" text-anchor="middle" font-family="Arial,sans-serif" font-size="9" font-weight="bold" fill="white" stroke="rgba(0,40,0,0.9)" stroke-width="3" paint-order="stroke">Snowbelle City</text><text x="260" y="163" text-anchor="middle" font-family="Arial,sans-serif" font-size="9" font-weight="bold" fill="#111">Snowbelle City</text><rect x="132" y="132" width="16" height="16" rx="3" fill="white" stroke="#F366B9" stroke-width="1.5" filter="url(#sh)"/><rect x="136" y="132" width="8" height="5" rx="1" fill="#F366B9" opacity="0.85"/><text x="140" y="160" text-anchor="middle" font-family="Arial,sans-serif" font-size="8" font-weight="600" fill="white" stroke="rgba(0,40,0,0.9)" stroke-width="3" paint-order="stroke">Pokémon Village</text><text x="140" y="160" text-anchor="middle" font-family="Arial,sans-serif" font-size="8" font-weight="600" fill="#111">Pokémon Village</text><rect x="132" y="432" width="16" height="16" rx="3" fill="white" stroke="#F366B9" stroke-width="1.5" filter="url(#sh)"/><rect x="136" y="432" width="8" height="5" rx="1" fill="#F366B9" opacity="0.85"/><text x="140" y="460" text-anchor="middle" font-family="Arial,sans-serif" font-size="8" font-weight="600" fill="white" stroke="rgba(0,40,0,0.9)" stroke-width="3" paint-order="stroke">Kiloude City</text><text x="140" y="460" text-anchor="middle" font-family="Arial,sans-serif" font-size="8" font-weight="600" fill="#111">Kiloude City</text><rect x="0" y="494" width="760" height="26" fill="rgba(0,0,0,0.5)"/><text x="10" y="511" font-family="Arial,sans-serif" font-size="11" font-weight="bold" fill="rgba(255,255,255,0.9)">X · Y</text>
</svg>