<?xml version="1.0" encoding="UTF-8"?>
<svg width="760" height="520" xmlns="http://www.w3.org/2000/svg">
  <defs>
    <linearGradient id="water" x1="0" y1="0" x2="0" y2="1">
      <stop offset="0%" stop-color="#5B9BD5"/><stop offset="100%" stop-color="#3A7FBF"/>
    </linearGradient>
    <filter id="sh"><feDropShadow dx="0" dy="1" stdDeviation="1.5" flood-opacity="0.35"/></filter>
  </defs><rect width="760" height="520" fill="url(#water)"/><line x1="0" y1="15" x2="760" y2="15" stroke="rgba(255,255,255,0.05)" stroke-width="1"/><line x1="0" y1="40" x2="760" y2="40" stroke="rgba(255,255,255,0.05)" stroke-width="1"/><line x1="0" y1="65" x2="760" y2="65" stroke="rgba(255,255,255,0.05)" stroke-width="1"/><line x1="0" y1="90" x2="760" y2="90" stroke="rgba(255,255,255,0.05)" stroke-width="1"/><line x1="0" y1="115" x2="760" y2="115" stroke="rgba(255,255,255,0.05)" stroke-width="1"/><line x1="0" y1="140" x2="760" y2="140" stroke="rgba(255,255,255,0.05)" stroke-width="1"/><line x1="0" y1="165" x2="760" y2="165" stroke="rgba(255,255,255,0.05)" stroke-width="1"/><line x1="0" y1="190" x2="760" y2="190" stroke="rgba(255,255,255,0.05)" stroke-width="1"/><line x1="0" y1="215" x2="760" y2="215" stroke="rgba(255,255,255,0.05)" stroke-width="1"/><line x1="0" y1="240" x2="760" y2="240" stroke="rgba(255,255,255,0.05)" stroke-width="1"/><line x1="0" y1="265" x2="760" y2="265" stroke="rgba(255,255,255,0.05)" stroke-width="1"/><line x1="0" y1="290" x2="760" y2="290" stroke="rgba(255,255,255,0.05)" stroke-width="1"/><line x1="0" y1="315" x2="760" y2="315" stroke="rgba(255,255,255,0.05)" stroke-width="1"/><line x1="0" y1="340" x2="760" y2="340" stroke="rgba(255,255,255,0.05)" stroke-width="1"/><line x1="0" y1="365" x2="760" y2="365" stroke="rgba(255,255,255,0.05)" stroke-width="1"/><line x1="0" y1="390" x2="760" y2="390" stroke="rgba(255,255,255,0.05)" stroke-width="1"/><line x1="0" y1="415" x2="760" y2="415" stroke="rgba(255,255,255,0.05)" stroke-width="1"/><line x1="0" y1="440" x2="760" y2="440" stroke="rgba(255,255,255,0.05)" stroke-width="1"/><line x1="0" y1="465" x2="760" y2="465" stroke="rgba(255,255,255,0.05)" stroke-width="1"/><line x1="0" y1="490" x2="760" y2="490" stroke="rgba(255,255,255,0.05)" stroke-width="1"/><line x1="0" y1="515" x2="760" y2="515" stroke="rgba(255,255,255,0.05)" stroke-width="1"/><polygon points="80,60 660,60 660,460 80,460 80,60" fill="#8BBF6E" stroke="#5A9A45" stroke-width="1.5"/><rect x="0" y="0" width="80" height="520" fill="url(#water)" rx="5" opacity="0.85"/><rect x="660" y="0" width="100" height="520" fill="url(#water)" rx="5" opacity="0.85"/><rect x="80" y="440" width="580" height="80" fill="url(#water)" rx="5" opacity="0.85"/><rect x="540" y="60" width="120" height="200" fill="url(#water)" rx="5" opacity="0.85"/><polygon points="220,212 207,235 233,235" fill="#9B8F7A" stroke="#7A6E5C" stroke-width="1"/><polygon points="220,212 215,225 225,225" fill="rgba(255,255,255,0.55)"/><polygon points="310,212 297,235 323,235" fill="#9B8F7A" stroke="#7A6E5C" stroke-width="1"/><polygon points="310,212 305,225 315,225" fill="rgba(255,255,255,0.55)"/><circle cx="195" cy="255" r="8" fill="#4A8A3A" opacity="0.8"/><circle cx="204" cy="259" r="8" fill="#4A8A3A" opacity="0.8"/><circle cx="188" cy="260" r="8" fill="#4A8A3A" opacity="0.8"/><circle cx="175" cy="265" r="8" fill="#4A8A3A" opacity="0.8"/><circle cx="184" cy="269" r="8" fill="#4A8A3A" opacity="0.8"/><circle cx="168" cy="270" r="8" fill="#4A8A3A" opacity="0.8"/><polygon points="560,182 547,205 573,205" fill="#9B8F7A" stroke="#7A6E5C" stroke-width="1"/><polygon points="560,182 555,195 565,195" fill="rgba(255,255,255,0.55)"/><polygon points="580,172 567,195 593,195" fill="#9B8F7A" stroke="#7A6E5C" stroke-width="1"/><polygon points="580,172 575,185 585,185" fill="rgba(255,255,255,0.55)"/><line x1="150" y1="410" x2="150" y2="320" stroke="#A08040" stroke-width="5" stroke-linecap="round" opacity="0.6"/><line x1="150" y1="410" x2="150" y2="320" stroke="#E8D5A3" stroke-width="3" stroke-linecap="round" stroke-dasharray="7,5"/><rect x="130" y="356" width="40" height="15" rx="4" fill="rgba(240,220,160,0.9)"/><text x="150" y="367" text-anchor="middle" font-family="Arial,sans-serif" font-size="7.5" font-weight="bold" fill="#5A3A08">Rt.1</text><line x1="150" y1="320" x2="150" y2="230" stroke="#A08040" stroke-width="5" stroke-linecap="round" opacity="0.6"/><line x1="150" y1="320" x2="150" y2="230" stroke="#E8D5A3" stroke-width="3" stroke-linecap="round" stroke-dasharray="7,5"/><rect x="130" y="266" width="40" height="15" rx="4" fill="rgba(240,220,160,0.9)"/><text x="150" y="277" text-anchor="middle" font-family="Arial,sans-serif" font-size="7.5" font-weight="bold" fill="#5A3A08">Rt.2</text><line x1="150" y1="230" x2="260" y2="230" stroke="#A08040" stroke-width="5" stroke-linecap="round" opacity="0.6"/><line x1="150" y1="230" x2="260" y2="230" stroke="#E8D5A3" stroke-width="3" stroke-linecap="round" stroke-dasharray="7,5"/><rect x="185" y="221" width="40" height="15" rx="4" fill="rgba(240,220,160,0.9)"/><text x="205" y="232" text-anchor="middle" font-family="Arial,sans-serif" font-size="7.5" font-weight="bold" fill="#5A3A08">Rt.3</text><line x1="260" y1="230" x2="390" y2="230" stroke="#A08040" stroke-width="5" stroke-linecap="round" opacity="0.6"/><line x1="260" y1="230" x2="390" y2="230" stroke="#E8D5A3" stroke-width="3" stroke-linecap="round" stroke-dasharray="7,5"/><rect x="305" y="221" width="40" height="15" rx="4" fill="rgba(240,220,160,0.9)"/><text x="325" y="232" text-anchor="middle" font-family="Arial,sans-serif" font-size="7.5" font-weight="bold" fill="#5A3A08">Rt.4</text><line x1="390" y1="230" x2="390" y2="140" stroke="#A08040" stroke-width="5" stroke-linecap="round" opacity="0.6"/><line x1="390" y1="230" x2="390" y2="140" stroke="#E8D5A3" stroke-width="3" stroke-linecap="round" stroke-dasharray="7,5"/><rect x="370" y="176" width="40" height="15" rx="4" fill="rgba(240,220,160,0.9)"/><text x="390" y="187" text-anchor="middle" font-family="Arial,sans-serif" font-size="7.5" font-weight="bold" fill="#5A3A08">Rt.24</text><line x1="390" y1="320" x2="390" y2="410" stroke="#A08040" stroke-width="5" stroke-linecap="round" opacity="0.6"/><line x1="390" y1="320" x2="390" y2="410" stroke="#E8D5A3" stroke-width="3" stroke-linecap="round" stroke-dasharray="7,5"/><rect x="370" y="356" width="40" height="15" rx="4" fill="rgba(240,220,160,0.9)"/><text x="390" y="367" text-anchor="middle" font-family="Arial,sans-serif" font-size="7.5" font-weight="bold" fill="#5A3A08">Rt.6</text><line x1="150" y1="320" x2="280" y2="320" stroke="#A08040" stroke-width="5" stroke-linecap="round" opacity="0.6"/><line x1="150" y1="320" x2="280" y2="320" stroke="#E8D5A3" stroke-width="3" stroke-linecap="round" stroke-dasharray="7,5"/><rect x="195" y="311" width="40" height="15" rx="4" fill="rgba(240,220,160,0.9)"/><text x="215" y="322" text-anchor="middle" font-family="Arial,sans-serif" font-size="7.5" font-weight="bold" fill="#5A3A08">Rt.16/17</text><line x1="280" y1="320" x2="390" y2="320" stroke="#A08040" stroke-width="5" stroke-linecap="round" opacity="0.6"/><line x1="280" y1="320" x2="390" y2="320" stroke="#E8D5A3" stroke-width="3" stroke-linecap="round" stroke-dasharray="7,5"/><rect x="315" y="311" width="40" height="15" rx="4" fill="rgba(240,220,160,0.9)"/><text x="335" y="322" text-anchor="middle" font-family="Arial,sans-serif" font-size="7.5" font-weight="bold" fill="#5A3A08">Rt.7</text><line x1="390" y1="320" x2="520" y2="320" stroke="#A08040" stroke-width="5" stroke-linecap="round" opacity="0.6"/><line x1="390" y1="320" x2="520" y2="320" stroke="#E8D5A3" stroke-width="3" stroke-linecap="round" stroke-dasharray="7,5"/><rect x="435" y="311" width="40" height="15" rx="4" fill="rgba(240,220,160,0.9)"/><text x="455" y="322" text-anchor="middle" font-family="Arial,sans-serif" font-size="7.5" font-weight="bold" fill="#5A3A08">Rt.8</text><line x1="520" y1="320" x2="520" y2="230" stroke="#A08040" stroke-width="5" stroke-linecap="round" opacity="0.6"/><line x1="520" y1="320" x2="520" y2="230" stroke="#E8D5A3" stroke-width="3" stroke-linecap="round" stroke-dasharray="7,5"/><rect x="500" y="266" width="40" height="15" rx="4" fill="rgba(240,220,160,0.9)"/><text x="520" y="277" text-anchor="middle" font-family="Arial,sans-serif" font-size="7.5" font-weight="bold" fill="#5A3A08">Rt.11</text><line x1="520" y1="230" x2="390" y2="230" stroke="#A08040" stroke-width="5" stroke-linecap="round" opacity="0.6"/><line x1="520" y1="230" x2="390" y2="230" stroke="#E8D5A3" stroke-width="3" stroke-linecap="round" stroke-dasharray="7,5"/><rect x="435" y="221" width="40" height="15" rx="4" fill="rgba(240,220,160,0.9)"/><text x="455" y="232" text-anchor="middle" font-family="Arial,sans-serif" font-size="7.5" font-weight="bold" fill="#5A3A08">Rt.9</text><line x1="390" y1="230" x2="390" y2="320" stroke="#A08040" stroke-width="5" stroke-linecap="round" opacity="0.6"/><line x1="390" y1="230" x2="390" y2="320" stroke="#E8D5A3" stroke-width="3" stroke-linecap="round" stroke-dasharray="7,5"/><rect x="370" y="266" width="40" height="15" rx="4" fill="rgba(240,220,160,0.9)"/><text x="390" y="277" text-anchor="middle" font-family="Arial,sans-serif" font-size="7.5" font-weight="bold" fill="#5A3A08">Rt.5</text><line x1="520" y1="320" x2="640" y2="320" stroke="#A08040" stroke-width="5" stroke-linecap="round" opacity="0.6"/><line x1="520" y1="320" x2="640" y2="320" stroke="#E8D5A3" stroke-width="3" stroke-linecap="round" stroke-dasharray="7,5"/><rect x="560" y="311" width="40" height="15" rx="4" fill="rgba(240,220,160,0.9)"/><text x="580" y="322" text-anchor="middle" font-family="Arial,sans-serif" font-size="7.5" font-weight="bold" fill="#5A3A08">Rt.12</text><line x1="640" y1="320" x2="640" y2="410" stroke="#A08040" stroke-width="5" stroke-linecap="round" opacity="0.6"/><line x1="640" y1="320" x2="640" y2="410" stroke="#E8D5A3" stroke-width="3" stroke-linecap="round" stroke-dasharray="7,5"/><rect x="620" y="356" width="40" height="15" rx="4" fill="rgba(240,220,160,0.9)"/><text x="640" y="367" text-anchor="middle" font-family="Arial,sans-serif" font-size="7.5" font-weight="bold" fill="#5A3A08">Rt.14</text><line x1="520" y1="410" x2="640" y2="410" stroke="#A08040" stroke-width="5" stroke-linecap="round" opacity="0.6"/><line x1="520" y1="410" x2="640" y2="410" stroke="#E8D5A3" stroke-width="3" stroke-linecap="round" stroke-dasharray="7,5"/><rect x="560" y="401" width="40" height="15" rx="4" fill="rgba(240,220,160,0.9)"/><text x="580" y="412" text-anchor="middle" font-family="Arial,sans-serif" font-size="7.5" font-weight="bold" fill="#5A3A08">Rt.13</text><line x1="390" y1="410" x2="520" y2="410" stroke="#A08040" stroke-width="5" stroke-linecap="round" opacity="0.6"/><line x1="390" y1="410" x2="520" y2="410" stroke="#E8D5A3" stroke-width="3" stroke-linecap="round" stroke-dasharray="7,5"/><rect x="435" y="401" width="40" height="15" rx="4" fill="rgba(240,220,160,0.9)"/><text x="455" y="412" text-anchor="middle" font-family="Arial,sans-serif" font-size="7.5" font-weight="bold" fill="#5A3A08">Rt.21</text><line x1="150" y1="410" x2="390" y2="410" stroke="#A08040" stroke-width="5" stroke-linecap="round" opacity="0.6"/><line x1="150" y1="410" x2="390" y2="410" stroke="#E8D5A3" stroke-width="3" stroke-linecap="round" stroke-dasharray="7,5"/><rect x="250" y="401" width="40" height="15" rx="4" fill="rgba(240,220,160,0.9)"/><text x="270" y="412" text-anchor="middle" font-family="Arial,sans-serif" font-size="7.5" font-weight="bold" fill="#5A3A08">Rt.21b</text><line x1="640" y1="230" x2="640" y2="320" stroke="#A08040" stroke-width="5" stroke-linecap="round" opacity="0.6"/><line x1="640" y1="230" x2="640" y2="320" stroke="#E8D5A3" stroke-width="3" stroke-linecap="round" stroke-dasharray="7,5"/><rect x="620" y="266" width="40" height="15" rx="4" fill="rgba(240,220,160,0.9)"/><text x="640" y="277" text-anchor="middle" font-family="Arial,sans-serif" font-size="7.5" font-weight="bold" fill="#5A3A08">Rt.15</text><line x1="520" y1="230" x2="640" y2="230" stroke="#A08040" stroke-width="5" stroke-linecap="round" opacity="0.6"/><line x1="520" y1="230" x2="640" y2="230" stroke="#E8D5A3" stroke-width="3" stroke-linecap="round" stroke-dasharray="7,5"/><rect x="560" y="221" width="40" height="15" rx="4" fill="rgba(240,220,160,0.9)"/><text x="580" y="232" text-anchor="middle" font-family="Arial,sans-serif" font-size="7.5" font-weight="bold" fill="#5A3A08">Rt.10b</text><rect x="142" y="432" width="16" height="16" rx="3" fill="white" stroke="#e63946" stroke-width="1.5" filter="url(#sh)"/><rect x="146" y="432" width="8" height="5" rx="1" fill="#e63946" opacity="0.85"/><text x="150" y="460" text-anchor="middle" font-family="Arial,sans-serif" font-size="8" font-weight="600" fill="white" stroke="rgba(0,40,0,0.9)" stroke-width="3" paint-order="stroke">Pallet Town</text><text x="150" y="460" text-anchor="middle" font-family="Arial,sans-serif" font-size="8" font-weight="600" fill="#111">Pallet Town</text><rect x="139" y="309" width="22" height="22" rx="3" fill="white" stroke="#e63946" stroke-width="2.5" filter="url(#sh)"/><rect x="146" y="309" width="8" height="6" rx="1" fill="#e63946" opacity="0.85"/><line x1="150" y1="304" x2="150" y2="309" stroke="#e63946" stroke-width="1.5"/><text x="150" y="343" text-anchor="middle" font-family="Arial,sans-serif" font-size="9" font-weight="bold" fill="white" stroke="rgba(0,40,0,0.9)" stroke-width="3" paint-order="stroke">Viridian City</text><text x="150" y="343" text-anchor="middle" font-family="Arial,sans-serif" font-size="9" font-weight="bold" fill="#111">Viridian City</text><rect x="139" y="219" width="22" height="22" rx="3" fill="white" stroke="#e63946" stroke-width="2.5" filter="url(#sh)"/><rect x="146" y="219" width="8" height="6" rx="1" fill="#e63946" opacity="0.85"/><line x1="150" y1="214" x2="150" y2="219" stroke="#e63946" stroke-width="1.5"/><text x="150" y="253" text-anchor="middle" font-family="Arial,sans-serif" font-size="9" font-weight="bold" fill="white" stroke="rgba(0,40,0,0.9)" stroke-width="3" paint-order="stroke">Pewter City</text><text x="150" y="253" text-anchor="middle" font-family="Arial,sans-serif" font-size="9" font-weight="bold" fill="#111">Pewter City</text><rect x="379" y="219" width="22" height="22" rx="3" fill="white" stroke="#e63946" stroke-width="2.5" filter="url(#sh)"/><rect x="386" y="219" width="8" height="6" rx="1" fill="#e63946" opacity="0.85"/><line x1="390" y1="214" x2="390" y2="219" stroke="#e63946" stroke-width="1.5"/><text x="390" y="253" text-anchor="middle" font-family="Arial,sans-serif" font-size="9" font-weight="bold" fill="white" stroke="rgba(0,40,0,0.9)" stroke-width="3" paint-order="stroke">Cerulean City</text><text x="390" y="253" text-anchor="middle" font-family="Arial,sans-serif" font-size="9" font-weight="bold" fill="#111">Cerulean City</text><rect x="379" y="399" width="22" height="22" rx="3" fill="white" stroke="#e63946" stroke-width="2.5" filter="url(#sh)"/><rect x="386" y="399" width="8" height="6" rx="1" fill="#e63946" opacity="0.85"/><line x1="390" y1="394" x2="390" y2="399" stroke="#e63946" stroke-width="1.5"/><text x="390" y="433" text-anchor="middle" font-family="Arial,sans-serif" font-size="9" font-weight="bold" fill="white" stroke="rgba(0,40,0,0.9)" stroke-width="3" paint-order="stroke">Vermilion City</text><text x="390" y="433" text-anchor="middle" font-family="Arial,sans-serif" font-size="9" font-weight="bold" fill="#111">Vermilion City</text><rect x="379" y="309" width="22" height="22" rx="3" fill="white" stroke="#e63946" stroke-width="2.5" filter="url(#sh)"/><rect x="386" y="309" width="8" height="6" rx="1" fill="#e63946" opacity="0.85"/><line x1="390" y1="304" x2="390" y2="309" stroke="#e63946" stroke-width="1.5"/><text x="390" y="343" text-anchor="middle" font-family="Arial,sans-serif" font-size="9" font-weight="bold" fill="white" stroke="rgba(0,40,0,0.9)" stroke-width="3" paint-order="stroke">Saffron City</text><text x="390" y="343" text-anchor="middle" font-family="Arial,sans-serif" font-size="9" font-weight="bold" fill="#111">Saffron City</text><rect x="269" y="309" width="22" height="22" rx="3" fill="white" stroke="#e63946" stroke-width="2.5" filter="url(#sh)"/><rect x="276" y="309" width="8" height="6" rx="1" fill="#e63946" opacity="0.85"/><line x1="280" y1="304" x2="280" y2="309" stroke="#e63946" stroke-width="1.5"/><text x="280" y="343" text-anchor="middle" font-family="Arial,sans-serif" font-size="9" font-weight="bold" fill="white" stroke="rgba(0,40,0,0.9)" stroke-width="3" paint-order="stroke">Celadon City</text><text x="280" y="343" text-anchor="middle" font-family="Arial,sans-serif" font-size="9" font-weight="bold" fill="#111">Celadon City</text><rect x="512" y="222" width="16" height="16" rx="3" fill="white" stroke="#e63946" stroke-width="1.5" filter="url(#sh)"/><rect x="516" y="222" width="8" height="5" rx="1" fill="#e63946" opacity="0.85"/><text x="520" y="250" text-anchor="middle" font-family="Arial,sans-serif" font-size="8" font-weight="600" fill="white" stroke="rgba(0,40,0,0.9)" stroke-width="3" paint-order="stroke">Lavender Town</text><text x="520" y="250" text-anchor="middle" font-family="Arial,sans-serif" font-size="8" font-weight="600" fill="#111">Lavender Town</text><rect x="629" y="309" width="22" height="22" rx="3" fill="white" stroke="#e63946" stroke-width="2.5" filter="url(#sh)"/><rect x="636" y="309" width="8" height="6" rx="1" fill="#e63946" opacity="0.85"/><line x1="640" y1="304" x2="640" y2="309" stroke="#e63946" stroke-width="1.5"/><text x="640" y="343" text-anchor="middle" font-family="Arial,sans-serif" font-size="9" font-weight="bold" fill="white" stroke="rgba(0,40,0,0.9)" stroke-width="3" paint-order="stroke">Fuchsia City</text><text x="640" y="343" text-anchor="middle" font-family="Arial,sans-serif" font-size="9" font-weight="bold" fill="#111">Fuchsia City</text><rect x="382" y="132" width="16" height="16" rx="3" fill="white" stroke="#e63946" stroke-width="1.5" filter="url(#sh)"/><rect x="386" y="132" width="8" height="5" rx="1" fill="#e63946" opacity="0.85"/><text x="390" y="160" text-anchor="middle" font-family="Arial,sans-serif" font-size="8" font-weight="600" fill="white" stroke="rgba(0,40,0,0.9)" stroke-width="3" paint-order="stroke">Bill's Sea Cottage</text><text x="390" y="160" text-anchor="middle" font-family="Arial,sans-serif" font-size="8" font-weight="600" fill="#111">Bill's Sea Cottage</text><rect x="509" y="399" width="22" height="22" rx="3" fill="white" stroke="#e63946" stroke-width="2.5" filter="url(#sh)"/><rect x="516" y="399" width="8" height="6" rx="1" fill="#e63946" opacity="0.85"/><line x1="520" y1="394" x2="520" y2="399" stroke="#e63946" stroke-width="1.5"/><text x="520" y="433" text-anchor="middle" font-family="Arial,sans-serif" font-size="9" font-weight="bold" fill="white" stroke="rgba(0,40,0,0.9)" stroke-width="3" paint-order="stroke">Cinnabar Island</text><text x="520" y="433" text-anchor="middle" font-family="Arial,sans-serif" font-size="9" font-weight="bold" fill="#111">Cinnabar Island</text><rect x="0" y="494" width="760" height="26" fill="rgba(0,0,0,0.5)"/><text x="10" y="511" font-family="Arial,sans-serif" font-size="11" font-weight="bold" fill="rgba(255,255,255,0.9)">Red · Blue · Yellow · FireRed · LeafGreen</text>
</svg>