<?xml version="1.0" encoding="UTF-8"?>
<svg width="760" height="520" xmlns="http://www.w3.org/2000/svg">
  <defs>
    <linearGradient id="water" x1="0" y1="0" x2="0" y2="1">
      <stop offset="0%" stop-color="#5B9BD5"/><stop offset="100%" stop-color="#3A7FBF"/>
    </linearGradient>
    <filter id="sh"><feDropShadow dx="0" dy="1" stdDeviation="1.5" flood-opacity="0.35"/></filter>
  </defs><rect width="760" height="520" fill="url(#water)"/><line x1="0" y1="15" x2="760" y2="15" stroke="rgba(255,255,255,0.05)" stroke-width="1"/><line x1="0" y1="40" x2="760" y2="40" stroke="rgba(255,255,255,0.05)" stroke-width="1"/><line x1="0" y1="65" x2="760" y2="65" stroke="rgba(255,255,255,0.05)" stroke-width="1"/><line x1="0" y1="90" x2="760" y2="90" stroke="rgba(255,255,255,0.05)" stroke-width="1"/><line x1="0" y1="115" x2="760" y2="115" stroke="rgba(255,255,255,0.05)" stroke-width="1"/><line x1="0" y1="140" x2="760" y2="140" stroke="rgba(255,255,255,0.05)" stroke-width="1"/><line x1="0" y1="165" x2="760" y2="165" stroke="rgba(255,255,255,0.05)" stroke-width="1"/><line x1="0" y1="190" x2="760" y2="190" stroke="rgba(255,255,255,0.05)" stroke-width="1"/><line x1="0" y1="215" x2="760" y2="215" stroke="rgba(255,255,255,0.05)" stroke-width="1"/><line x1="0" y1="240" x2="760" y2="240" stroke="rgba(255,255,255,0.05)" stroke-width="1"/><line x1="0" y1="265" x2="760" y2="265" stroke="rgba(255,255,255,0.05)" stroke-width="1"/><line x1="0" y1="290" x2="760" y2="290" stroke="rgba(255,255,255,0.05)" stroke-width="1"/><line x1="0" y1="315" x2="760" y2="315" stroke="rgba(255,255,255,0.05)" stroke-width="1"/><line x1="0" y1="340" x2="760" y2="340" stroke="rgba(255,255,255,0.05)" stroke-width="1"/><line x1="0" y1="365" x2="760" y2="365" stroke="rgba(255,255,255,0.05)" stroke-width="1"/><line x1="0" y1="390" x2="760" y2="390" stroke="rgba(255,255,255,0.05)" stroke-width="1"/><line x1="0" y1="415" x2="760" y2="415" stroke="rgba(255,255,255,0.05)" stroke-width="1"/><line x1="0" y1="440" x2="760" y2="440" stroke="rgba(255,255,255,0.05)" stroke-width="1"/><line x1="0" y1="465" x2="760" y2="465" stroke="rgba(255,255,255,0.05)" stroke-width="1"/><line x1="0" y1="490" x2="760" y2="490" stroke="rgba(255,255,255,0.05)" stroke-width="1"/><line x1="0" y1="515" x2="760" y2="515" stroke="rgba(255,255,255,0.05)" stroke-width="1"/><polygon points="100,60 660,60 700,180 720,340 680,440 500,490 260,490 80,440 40,340 60,180 100,60" fill="#8BBF6E" stroke="#5A9A45" stroke-width="1.5"/><polygon points="360,197 347,220 373,220" fill="#9B8F7A" stroke="#7A6E5C" stroke-width="1"/><polygon points="360,197 355,210 365,210" fill="rgba(255,255,255,0.55)"/><polygon points="380,187 367,210 393,210" fill="#9B8F7A" stroke="#7A6E5C" stroke-width="1"/><polygon points="380,187 375,200 385,200" fill="rgba(255,255,255,0.55)"/><polygon points="400,182 387,205 413,205" fill="#9B8F7A" stroke="#7A6E5C" stroke-width="1"/><polygon points="400,182 395,195 405,195" fill="rgba(255,255,255,0.55)"/><polygon points="420,187 407,210 433,210" fill="#9B8F7A" stroke="#7A6E5C" stroke-width="1"/><polygon points="420,187 415,200 425,200" fill="rgba(255,255,255,0.55)"/><polygon points="440,197 427,220 453,220" fill="#9B8F7A" stroke="#7A6E5C" stroke-width="1"/><polygon points="440,197 435,210 445,210" fill="rgba(255,255,255,0.55)"/><polygon points="260,362 247,385 273,385" fill="#9B8F7A" stroke="#7A6E5C" stroke-width="1"/><polygon points="260,362 255,375 265,375" fill="rgba(255,255,255,0.55)"/><polygon points="280,352 267,375 293,375" fill="#9B8F7A" stroke="#7A6E5C" stroke-width="1"/><polygon points="280,352 275,365 285,365" fill="rgba(255,255,255,0.55)"/><polygon points="300,347 287,370 313,370" fill="#9B8F7A" stroke="#7A6E5C" stroke-width="1"/><polygon points="300,347 295,360 305,360" fill="rgba(255,255,255,0.55)"/><polygon points="540,357 527,380 553,380" fill="#9B8F7A" stroke="#7A6E5C" stroke-width="1"/><polygon points="540,357 535,370 545,370" fill="rgba(255,255,255,0.55)"/><polygon points="560,347 547,370 573,370" fill="#9B8F7A" stroke="#7A6E5C" stroke-width="1"/><polygon points="560,347 555,360 565,360" fill="rgba(255,255,255,0.55)"/><line x1="200" y1="430" x2="300" y2="430" stroke="#A08040" stroke-width="5" stroke-linecap="round" opacity="0.6"/><line x1="200" y1="430" x2="300" y2="430" stroke="#E8D5A3" stroke-width="3" stroke-linecap="round" stroke-dasharray="7,5"/><rect x="230" y="421" width="40" height="15" rx="4" fill="rgba(240,220,160,0.9)"/><text x="250" y="432" text-anchor="middle" font-family="Arial,sans-serif" font-size="7.5" font-weight="bold" fill="#5A3A08">Rt.1</text><line x1="300" y1="430" x2="400" y2="430" stroke="#A08040" stroke-width="5" stroke-linecap="round" opacity="0.6"/><line x1="300" y1="430" x2="400" y2="430" stroke="#E8D5A3" stroke-width="3" stroke-linecap="round" stroke-dasharray="7,5"/><rect x="330" y="421" width="40" height="15" rx="4" fill="rgba(240,220,160,0.9)"/><text x="350" y="432" text-anchor="middle" font-family="Arial,sans-serif" font-size="7.5" font-weight="bold" fill="#5A3A08">Rt.2</text><line x1="400" y1="430" x2="500" y2="430" stroke="#A08040" stroke-width="5" stroke-linecap="round" opacity="0.6"/><line x1="400" y1="430" x2="500" y2="430" stroke="#E8D5A3" stroke-width="3" stroke-linecap="round" stroke-dasharray="7,5"/><rect x="430" y="421" width="40" height="15" rx="4" fill="rgba(240,220,160,0.9)"/><text x="450" y="432" text-anchor="middle" font-family="Arial,sans-serif" font-size="7.5" font-weight="bold" fill="#5A3A08">Rt.3</text><line x1="500" y1="430" x2="580" y2="360" stroke="#A08040" stroke-width="5" stroke-linecap="round" opacity="0.6"/><line x1="500" y1="430" x2="580" y2="360" stroke="#E8D5A3" stroke-width="3" stroke-linecap="round" stroke-dasharray="7,5"/><rect x="520" y="386" width="40" height="15" rx="4" fill="rgba(240,220,160,0.9)"/><text x="540" y="397" text-anchor="middle" font-family="Arial,sans-serif" font-size="7.5" font-weight="bold" fill="#5A3A08">Rt.4</text><line x1="580" y1="360" x2="580" y2="260" stroke="#A08040" stroke-width="5" stroke-linecap="round" opacity="0.6"/><line x1="580" y1="360" x2="580" y2="260" stroke="#E8D5A3" stroke-width="3" stroke-linecap="round" stroke-dasharray="7,5"/><rect x="560" y="301" width="40" height="15" rx="4" fill="rgba(240,220,160,0.9)"/><text x="580" y="312" text-anchor="middle" font-family="Arial,sans-serif" font-size="7.5" font-weight="bold" fill="#5A3A08">Rt.5</text><line x1="580" y1="260" x2="500" y2="190" stroke="#A08040" stroke-width="5" stroke-linecap="round" opacity="0.6"/><line x1="580" y1="260" x2="500" y2="190" stroke="#E8D5A3" stroke-width="3" stroke-linecap="round" stroke-dasharray="7,5"/><rect x="520" y="216" width="40" height="15" rx="4" fill="rgba(240,220,160,0.9)"/><text x="540" y="227" text-anchor="middle" font-family="Arial,sans-serif" font-size="7.5" font-weight="bold" fill="#5A3A08">Rt.6</text><line x1="500" y1="190" x2="400" y2="160" stroke="#A08040" stroke-width="5" stroke-linecap="round" opacity="0.6"/><line x1="500" y1="190" x2="400" y2="160" stroke="#E8D5A3" stroke-width="3" stroke-linecap="round" stroke-dasharray="7,5"/><rect x="430" y="166" width="40" height="15" rx="4" fill="rgba(240,220,160,0.9)"/><text x="450" y="177" text-anchor="middle" font-family="Arial,sans-serif" font-size="7.5" font-weight="bold" fill="#5A3A08">Rt.7</text><line x1="400" y1="160" x2="300" y2="190" stroke="#A08040" stroke-width="5" stroke-linecap="round" opacity="0.6"/><line x1="400" y1="160" x2="300" y2="190" stroke="#E8D5A3" stroke-width="3" stroke-linecap="round" stroke-dasharray="7,5"/><rect x="330" y="166" width="40" height="15" rx="4" fill="rgba(240,220,160,0.9)"/><text x="350" y="177" text-anchor="middle" font-family="Arial,sans-serif" font-size="7.5" font-weight="bold" fill="#5A3A08">Rt.8</text><line x1="300" y1="190" x2="220" y2="260" stroke="#A08040" stroke-width="5" stroke-linecap="round" opacity="0.6"/><line x1="300" y1="190" x2="220" y2="260" stroke="#E8D5A3" stroke-width="3" stroke-linecap="round" stroke-dasharray="7,5"/><rect x="240" y="216" width="40" height="15" rx="4" fill="rgba(240,220,160,0.9)"/><text x="260" y="227" text-anchor="middle" font-family="Arial,sans-serif" font-size="7.5" font-weight="bold" fill="#5A3A08">Rt.9</text><line x1="220" y1="260" x2="200" y2="360" stroke="#A08040" stroke-width="5" stroke-linecap="round" opacity="0.6"/><line x1="220" y1="260" x2="200" y2="360" stroke="#E8D5A3" stroke-width="3" stroke-linecap="round" stroke-dasharray="7,5"/><rect x="190" y="301" width="40" height="15" rx="4" fill="rgba(240,220,160,0.9)"/><text x="210" y="312" text-anchor="middle" font-family="Arial,sans-serif" font-size="7.5" font-weight="bold" fill="#5A3A08">Rt.10</text><line x1="200" y1="360" x2="300" y2="430" stroke="#A08040" stroke-width="5" stroke-linecap="round" opacity="0.6"/><line x1="200" y1="360" x2="300" y2="430" stroke="#E8D5A3" stroke-width="3" stroke-linecap="round" stroke-dasharray="7,5"/><rect x="230" y="386" width="40" height="15" rx="4" fill="rgba(240,220,160,0.9)"/><text x="250" y="397" text-anchor="middle" font-family="Arial,sans-serif" font-size="7.5" font-weight="bold" fill="#5A3A08">Rt.11</text><line x1="300" y1="430" x2="300" y2="340" stroke="#A08040" stroke-width="5" stroke-linecap="round" opacity="0.6"/><line x1="300" y1="430" x2="300" y2="340" stroke="#E8D5A3" stroke-width="3" stroke-linecap="round" stroke-dasharray="7,5"/><rect x="280" y="376" width="40" height="15" rx="4" fill="rgba(240,220,160,0.9)"/><text x="300" y="387" text-anchor="middle" font-family="Arial,sans-serif" font-size="7.5" font-weight="bold" fill="#5A3A08">Rt.12</text><line x1="300" y1="340" x2="400" y2="310" stroke="#A08040" stroke-width="5" stroke-linecap="round" opacity="0.6"/><line x1="300" y1="340" x2="400" y2="310" stroke="#E8D5A3" stroke-width="3" stroke-linecap="round" stroke-dasharray="7,5"/><rect x="330" y="316" width="40" height="15" rx="4" fill="rgba(240,220,160,0.9)"/><text x="350" y="327" text-anchor="middle" font-family="Arial,sans-serif" font-size="7.5" font-weight="bold" fill="#5A3A08">Area Zero</text><line x1="400" y1="310" x2="500" y2="340" stroke="#A08040" stroke-width="5" stroke-linecap="round" opacity="0.6"/><line x1="400" y1="310" x2="500" y2="340" stroke="#E8D5A3" stroke-width="3" stroke-linecap="round" stroke-dasharray="7,5"/><rect x="430" y="316" width="40" height="15" rx="4" fill="rgba(240,220,160,0.9)"/><text x="450" y="327" text-anchor="middle" font-family="Arial,sans-serif" font-size="7.5" font-weight="bold" fill="#5A3A08">Area Zero</text><line x1="500" y1="340" x2="500" y2="430" stroke="#A08040" stroke-width="5" stroke-linecap="round" opacity="0.6"/><line x1="500" y1="340" x2="500" y2="430" stroke="#E8D5A3" stroke-width="3" stroke-linecap="round" stroke-dasharray="7,5"/><rect x="480" y="376" width="40" height="15" rx="4" fill="rgba(240,220,160,0.9)"/><text x="500" y="387" text-anchor="middle" font-family="Arial,sans-serif" font-size="7.5" font-weight="bold" fill="#5A3A08">Rt.13</text><line x1="300" y1="340" x2="300" y2="190" stroke="#A08040" stroke-width="5" stroke-linecap="round" opacity="0.6"/><line x1="300" y1="340" x2="300" y2="190" stroke="#E8D5A3" stroke-width="3" stroke-linecap="round" stroke-dasharray="7,5"/><rect x="280" y="256" width="40" height="15" rx="4" fill="rgba(240,220,160,0.9)"/><text x="300" y="267" text-anchor="middle" font-family="Arial,sans-serif" font-size="7.5" font-weight="bold" fill="#5A3A08">West Cut</text><line x1="500" y1="340" x2="500" y2="190" stroke="#A08040" stroke-width="5" stroke-linecap="round" opacity="0.6"/><line x1="500" y1="340" x2="500" y2="190" stroke="#E8D5A3" stroke-width="3" stroke-linecap="round" stroke-dasharray="7,5"/><rect x="480" y="256" width="40" height="15" rx="4" fill="rgba(240,220,160,0.9)"/><text x="500" y="267" text-anchor="middle" font-family="Arial,sans-serif" font-size="7.5" font-weight="bold" fill="#5A3A08">East Cut</text><line x1="400" y1="160" x2="400" y2="310" stroke="#A08040" stroke-width="5" stroke-linecap="round" opacity="0.6"/><line x1="400" y1="160" x2="400" y2="310" stroke="#E8D5A3" stroke-width="3" stroke-linecap="round" stroke-dasharray="7,5"/><rect x="380" y="226" width="40" height="15" rx="4" fill="rgba(240,220,160,0.9)"/><text x="400" y="237" text-anchor="middle" font-family="Arial,sans-serif" font-size="7.5" font-weight="bold" fill="#5A3A08">Central</text><line x1="580" y1="260" x2="680" y2="220" stroke="#A08040" stroke-width="5" stroke-linecap="round" opacity="0.6"/><line x1="580" y1="260" x2="680" y2="220" stroke="#E8D5A3" stroke-width="3" stroke-linecap="round" stroke-dasharray="7,5"/><rect x="610" y="231" width="40" height="15" rx="4" fill="rgba(240,220,160,0.9)"/><text x="630" y="242" text-anchor="middle" font-family="Arial,sans-serif" font-size="7.5" font-weight="bold" fill="#5A3A08">Rt.14</text><line x1="220" y1="260" x2="120" y2="220" stroke="#A08040" stroke-width="5" stroke-linecap="round" opacity="0.6"/><line x1="220" y1="260" x2="120" y2="220" stroke="#E8D5A3" stroke-width="3" stroke-linecap="round" stroke-dasharray="7,5"/><rect x="150" y="231" width="40" height="15" rx="4" fill="rgba(240,220,160,0.9)"/><text x="170" y="242" text-anchor="middle" font-family="Arial,sans-serif" font-size="7.5" font-weight="bold" fill="#5A3A08">Rt.15</text><rect x="192" y="422" width="16" height="16" rx="3" fill="white" stroke="#7038F8" stroke-width="1.5" filter="url(#sh)"/><rect x="196" y="422" width="8" height="5" rx="1" fill="#7038F8" opacity="0.85"/><text x="200" y="450" text-anchor="middle" font-family="Arial,sans-serif" font-size="8" font-weight="600" fill="white" stroke="rgba(0,40,0,0.9)" stroke-width="3" paint-order="stroke">Cabo Poco</text><text x="200" y="450" text-anchor="middle" font-family="Arial,sans-serif" font-size="8" font-weight="600" fill="#111">Cabo Poco</text><rect x="289" y="419" width="22" height="22" rx="3" fill="white" stroke="#7038F8" stroke-width="2.5" filter="url(#sh)"/><rect x="296" y="419" width="8" height="6" rx="1" fill="#7038F8" opacity="0.85"/><line x1="300" y1="414" x2="300" y2="419" stroke="#7038F8" stroke-width="1.5"/><text x="300" y="453" text-anchor="middle" font-family="Arial,sans-serif" font-size="9" font-weight="bold" fill="white" stroke="rgba(0,40,0,0.9)" stroke-width="3" paint-order="stroke">Cortondo</text><text x="300" y="453" text-anchor="middle" font-family="Arial,sans-serif" font-size="9" font-weight="bold" fill="#111">Cortondo</text><rect x="389" y="419" width="22" height="22" rx="3" fill="white" stroke="#7038F8" stroke-width="2.5" filter="url(#sh)"/><rect x="396" y="419" width="8" height="6" rx="1" fill="#7038F8" opacity="0.85"/><line x1="400" y1="414" x2="400" y2="419" stroke="#7038F8" stroke-width="1.5"/><text x="400" y="453" text-anchor="middle" font-family="Arial,sans-serif" font-size="9" font-weight="bold" fill="white" stroke="rgba(0,40,0,0.9)" stroke-width="3" paint-order="stroke">Mesagoza</text><text x="400" y="453" text-anchor="middle" font-family="Arial,sans-serif" font-size="9" font-weight="bold" fill="#111">Mesagoza</text><rect x="489" y="419" width="22" height="22" rx="3" fill="white" stroke="#7038F8" stroke-width="2.5" filter="url(#sh)"/><rect x="496" y="419" width="8" height="6" rx="1" fill="#7038F8" opacity="0.85"/><line x1="500" y1="414" x2="500" y2="419" stroke="#7038F8" stroke-width="1.5"/><text x="500" y="453" text-anchor="middle" font-family="Arial,sans-serif" font-size="9" font-weight="bold" fill="white" stroke="rgba(0,40,0,0.9)" stroke-width="3" paint-order="stroke">Artazon</text><text x="500" y="453" text-anchor="middle" font-family="Arial,sans-serif" font-size="9" font-weight="bold" fill="#111">Artazon</text><rect x="569" y="349" width="22" height="22" rx="3" fill="white" stroke="#7038F8" stroke-width="2.5" filter="url(#sh)"/><rect x="576" y="349" width="8" height="6" rx="1" fill="#7038F8" opacity="0.85"/><line x1="580" y1="344" x2="580" y2="349" stroke="#7038F8" stroke-width="1.5"/><text x="580" y="383" text-anchor="middle" font-family="Arial,sans-serif" font-size="9" font-weight="bold" fill="white" stroke="rgba(0,40,0,0.9)" stroke-width="3" paint-order="stroke">Levincia</text><text x="580" y="383" text-anchor="middle" font-family="Arial,sans-serif" font-size="9" font-weight="bold" fill="#111">Levincia</text><rect x="569" y="249" width="22" height="22" rx="3" fill="white" stroke="#7038F8" stroke-width="2.5" filter="url(#sh)"/><rect x="576" y="249" width="8" height="6" rx="1" fill="#7038F8" opacity="0.85"/><line x1="580" y1="244" x2="580" y2="249" stroke="#7038F8" stroke-width="1.5"/><text x="580" y="283" text-anchor="middle" font-family="Arial,sans-serif" font-size="9" font-weight="bold" fill="white" stroke="rgba(0,40,0,0.9)" stroke-width="3" paint-order="stroke">Cascarrafa</text><text x="580" y="283" text-anchor="middle" font-family="Arial,sans-serif" font-size="9" font-weight="bold" fill="#111">Cascarrafa</text><rect x="489" y="179" width="22" height="22" rx="3" fill="white" stroke="#7038F8" stroke-width="2.5" filter="url(#sh)"/><rect x="496" y="179" width="8" height="6" rx="1" fill="#7038F8" opacity="0.85"/><line x1="500" y1="174" x2="500" y2="179" stroke="#7038F8" stroke-width="1.5"/><text x="500" y="213" text-anchor="middle" font-family="Arial,sans-serif" font-size="9" font-weight="bold" fill="white" stroke="rgba(0,40,0,0.9)" stroke-width="3" paint-order="stroke">Medali</text><text x="500" y="213" text-anchor="middle" font-family="Arial,sans-serif" font-size="9" font-weight="bold" fill="#111">Medali</text><rect x="389" y="149" width="22" height="22" rx="3" fill="white" stroke="#7038F8" stroke-width="2.5" filter="url(#sh)"/><rect x="396" y="149" width="8" height="6" rx="1" fill="#7038F8" opacity="0.85"/><line x1="400" y1="144" x2="400" y2="149" stroke="#7038F8" stroke-width="1.5"/><text x="400" y="183" text-anchor="middle" font-family="Arial,sans-serif" font-size="9" font-weight="bold" fill="white" stroke="rgba(0,40,0,0.9)" stroke-width="3" paint-order="stroke">Montenevera</text><text x="400" y="183" text-anchor="middle" font-family="Arial,sans-serif" font-size="9" font-weight="bold" fill="#111">Montenevera</text><rect x="289" y="179" width="22" height="22" rx="3" fill="white" stroke="#7038F8" stroke-width="2.5" filter="url(#sh)"/><rect x="296" y="179" width="8" height="6" rx="1" fill="#7038F8" opacity="0.85"/><line x1="300" y1="174" x2="300" y2="179" stroke="#7038F8" stroke-width="1.5"/><text x="300" y="213" text-anchor="middle" font-family="Arial,sans-serif" font-size="9" font-weight="bold" fill="white" stroke="rgba(0,40,0,0.9)" stroke-width="3" paint-order="stroke">Alfornada</text><text x="300" y="213" text-anchor="middle" font-family="Arial,sans-serif" font-size="9" font-weight="bold" fill="#111">Alfornada</text><rect x="209" y="249" width="22" height="22" rx="3" fill="white" stroke="#7038F8" stroke-width="2.5" filter="url(#sh)"/><rect x="216" y="249" width="8" height="6" rx="1" fill="#7038F8" opacity="0.85"/><line x1="220" y1="244" x2="220" y2="249" stroke="#7038F8" stroke-width="1.5"/><text x="220" y="283" text-anchor="middle" font-family="Arial,sans-serif" font-size="9" font-weight="bold" fill="white" stroke="rgba(0,40,0,0.9)" stroke-width="3" paint-order="stroke">Porto Marinada</text><text x="220" y="283" text-anchor="middle" font-family="Arial,sans-serif" font-size="9" font-weight="bold" fill="#111">Porto Marinada</text><rect x="192" y="352" width="16" height="16" rx="3" fill="white" stroke="#7038F8" stroke-width="1.5" filter="url(#sh)"/><rect x="196" y="352" width="8" height="5" rx="1" fill="#7038F8" opacity="0.85"/><text x="200" y="380" text-anchor="middle" font-family="Arial,sans-serif" font-size="8" font-weight="600" fill="white" stroke="rgba(0,40,0,0.9)" stroke-width="3" paint-order="stroke">Zapapico</text><text x="200" y="380" text-anchor="middle" font-family="Arial,sans-serif" font-size="8" font-weight="600" fill="#111">Zapapico</text><rect x="389" y="299" width="22" height="22" rx="3" fill="white" stroke="#7038F8" stroke-width="2.5" filter="url(#sh)"/><rect x="396" y="299" width="8" height="6" rx="1" fill="#7038F8" opacity="0.85"/><line x1="400" y1="294" x2="400" y2="299" stroke="#7038F8" stroke-width="1.5"/><text x="400" y="333" text-anchor="middle" font-family="Arial,sans-serif" font-size="9" font-weight="bold" fill="white" stroke="rgba(0,40,0,0.9)" stroke-width="3" paint-order="stroke">Area Zero</text><text x="400" y="333" text-anchor="middle" font-family="Arial,sans-serif" font-size="9" font-weight="bold" fill="#111">Area Zero</text><rect x="672" y="212" width="16" height="16" rx="3" fill="white" stroke="#7038F8" stroke-width="1.5" filter="url(#sh)"/><rect x="676" y="212" width="8" height="5" rx="1" fill="#7038F8" opacity="0.85"/><text x="680" y="240" text-anchor="middle" font-family="Arial,sans-serif" font-size="8" font-weight="600" fill="white" stroke="rgba(0,40,0,0.9)" stroke-width="3" paint-order="stroke">Glaseado Mountain</text><text x="680" y="240" text-anchor="middle" font-family="Arial,sans-serif" font-size="8" font-weight="600" fill="#111">Glaseado Mountain</text><rect x="109" y="209" width="22" height="22" rx="3" fill="white" stroke="#7038F8" stroke-width="2.5" filter="url(#sh)"/><rect x="116" y="209" width="8" height="6" rx="1" fill="#7038F8" opacity="0.85"/><line x1="120" y1="204" x2="120" y2="209" stroke="#7038F8" stroke-width="1.5"/><text x="120" y="243" text-anchor="middle" font-family="Arial,sans-serif" font-size="9" font-weight="bold" fill="white" stroke="rgba(0,40,0,0.9)" stroke-width="3" paint-order="stroke">Pokémon League</text><text x="120" y="243" text-anchor="middle" font-family="Arial,sans-serif" font-size="9" font-weight="bold" fill="#111">Pokémon League</text><rect x="292" y="332" width="16" height="16" rx="3" fill="white" stroke="#7038F8" stroke-width="1.5" filter="url(#sh)"/><rect x="296" y="332" width="8" height="5" rx="1" fill="#7038F8" opacity="0.85"/><text x="300" y="360" text-anchor="middle" font-family="Arial,sans-serif" font-size="8" font-weight="600" fill="white" stroke="rgba(0,40,0,0.9)" stroke-width="3" paint-order="stroke">West Province</text><text x="300" y="360" text-anchor="middle" font-family="Arial,sans-serif" font-size="8" font-weight="600" fill="#111">West Province</text><rect x="492" y="332" width="16" height="16" rx="3" fill="white" stroke="#7038F8" stroke-width="1.5" filter="url(#sh)"/><rect x="496" y="332" width="8" height="5" rx="1" fill="#7038F8" opacity="0.85"/><text x="500" y="360" text-anchor="middle" font-family="Arial,sans-serif" font-size="8" font-weight="600" fill="white" stroke="rgba(0,40,0,0.9)" stroke-width="3" paint-order="stroke">East Province</text><text x="500" y="360" text-anchor="middle" font-family="Arial,sans-serif" font-size="8" font-weight="600" fill="#111">East Province</text><rect x="0" y="494" width="760" height="26" fill="rgba(0,0,0,0.5)"/><text x="10" y="511" font-family="Arial,sans-serif" font-size="11" font-weight="bold" fill="rgba(255,255,255,0.9)">Scarlet · Violet</text>
</svg>