<?xml version="1.0" encoding="UTF-8"?>
<svg width="760" height="520" xmlns="http://www.w3.org/2000/svg">
  <defs>
    <linearGradient id="water" x1="0" y1="0" x2="0" y2="1">
      <stop offset="0%" stop-color="#5B9BD5"/><stop offset="100%" stop-color="#3A7FBF"/>
    </linearGradient>
    <filter id="sh"><feDropShadow dx="0" dy="1" stdDeviation="1.5" flood-opacity="0.35"/></filter>
  </defs><rect width="760" height="520" fill="url(#water)"/><line x1="0" y1="15" x2="760" y2="15" stroke="rgba(255,255,255,0.05)" stroke-width="1"/><line x1="0" y1="40" x2="760" y2="40" stroke="rgba(255,255,255,0.05)" stroke-width="1"/><line x1="0" y1="65" x2="760" y2="65" stroke="rgba(255,255,255,0.05)" stroke-width="1"/><line x1="0" y1="90" x2="760" y2="90" stroke="rgba(255,255,255,0.05)" stroke-width="1"/><line x1="0" y1="115" x2="760" y2="115" stroke="rgba(255,255,255,0.05)" stroke-width="1"/><line x1="0" y1="140" x2="760" y2="140" stroke="rgba(255,255,255,0.05)" stroke-width="1"/><line x1="0" y1="165" x2="760" y2="165" stroke="rgba(255,255,255,0.05)" stroke-width="1"/><line x1="0" y1="190" x2="760" y2="190" stroke="rgba(255,255,255,0.05)" stroke-width="1"/><line x1="0" y1="215" x2="760" y2="215" stroke="rgba(255,255,255,0.05)" stroke-width="1"/><line x1="0" y1="240" x2="760" y2="240" stroke="rgba(255,255,255,0.05)" stroke-width="1"/><line x1="0" y1="265" x2="760" y2="265" stroke="rgba(255,255,255,0.05)" stroke-width="1"/><line x1="0" y1="290" x2="760" y2="290" stroke="rgba(255,255,255,0.05)" stroke-width="1"/><line x1="0" y1="315" x2="760" y2="315" stroke="rgba(255,255,255,0.05)" stroke-width="1"/><line x1="0" y1="340" x2="760" y2="340" stroke="rgba(255,255,255,0.05)" stroke-width="1"/><line x1="0" y1="365" x2="760" y2="365" stroke="rgba(255,255,255,0.05)" stroke-width="1"/><line x1="0" y1="390" x2="760" y2="390" stroke="rgba(255,255,255,0.05)" stroke-width="1"/><line x1="0" y1="415" x2="760" y2="415" stroke="rgba(255,255,255,0.05)" stroke-width="1"/><line x1="0" y1="440" x2="760" y2="440" stroke="rgba(255,255,255,0.05)" stroke-width="1"/><line x1="0" y1="465" x2="760" y2="465" stroke="rgba(255,255,255,0.05)" stroke-width="1"/><line x1="0" y1="490" x2="760" y2="490" stroke="rgba(255,255,255,0.05)" stroke-width="1"/><line x1="0" y1="515" x2="760" y2="515" stroke="rgba(255,255,255,0.05)" stroke-width="1"/><polygon points="90,60 680,60 680,470 90,470 90,60" fill="#8BBF6E" stroke="#5A9A45" stroke-width="1.5"/><rect x="0" y="0" width="90" height="520" fill="url(#water)" rx="5" opacity="0.85"/><rect x="680" y="0" width="80" height="520" fill="url(#water)" rx="5" opacity="0.85"/><rect x="90" y="440" width="590" height="80" fill="url(#water)" rx="5" opacity="0.85"/><rect x="90" y="60" width="100" height="150" fill="url(#water)" rx="5" opacity="0.85"/><polygon points="325,157 312,180 338,180" fill="#9B8F7A" stroke="#7A6E5C" stroke-width="1"/><polygon points="325,157 320,170 330,170" fill="rgba(255,255,255,0.55)"/><polygon points="345,147 332,170 358,170" fill="#9B8F7A" stroke="#7A6E5C" stroke-width="1"/><polygon points="345,147 340,160 350,160" fill="rgba(255,255,255,0.55)"/><polygon points="365,157 352,180 378,180" fill="#9B8F7A" stroke="#7A6E5C" stroke-width="1"/><polygon points="365,157 360,170 370,170" fill="rgba(255,255,255,0.55)"/><circle cx="240" cy="280" r="8" fill="#4A8A3A" opacity="0.8"/><circle cx="249" cy="284" r="8" fill="#4A8A3A" opacity="0.8"/><circle cx="233" cy="285" r="8" fill="#4A8A3A" opacity="0.8"/><circle cx="260" cy="290" r="8" fill="#4A8A3A" opacity="0.8"/><circle cx="269" cy="294" r="8" fill="#4A8A3A" opacity="0.8"/><circle cx="253" cy="295" r="8" fill="#4A8A3A" opacity="0.8"/><polygon points="450,162 437,185 463,185" fill="#9B8F7A" stroke="#7A6E5C" stroke-width="1"/><polygon points="450,162 445,175 455,175" fill="rgba(255,255,255,0.55)"/><line x1="170" y1="430" x2="280" y2="430" stroke="#A08040" stroke-width="5" stroke-linecap="round" opacity="0.6"/><line x1="170" y1="430" x2="280" y2="430" stroke="#E8D5A3" stroke-width="3" stroke-linecap="round" stroke-dasharray="7,5"/><rect x="205" y="421" width="40" height="15" rx="4" fill="rgba(240,220,160,0.9)"/><text x="225" y="432" text-anchor="middle" font-family="Arial,sans-serif" font-size="7.5" font-weight="bold" fill="#5A3A08">Rt.201</text><line x1="280" y1="430" x2="280" y2="330" stroke="#A08040" stroke-width="5" stroke-linecap="round" opacity="0.6"/><line x1="280" y1="430" x2="280" y2="330" stroke="#E8D5A3" stroke-width="3" stroke-linecap="round" stroke-dasharray="7,5"/><rect x="260" y="371" width="40" height="15" rx="4" fill="rgba(240,220,160,0.9)"/><text x="280" y="382" text-anchor="middle" font-family="Arial,sans-serif" font-size="7.5" font-weight="bold" fill="#5A3A08">Rt.202</text><line x1="280" y1="330" x2="390" y2="330" stroke="#A08040" stroke-width="5" stroke-linecap="round" opacity="0.6"/><line x1="280" y1="330" x2="390" y2="330" stroke="#E8D5A3" stroke-width="3" stroke-linecap="round" stroke-dasharray="7,5"/><rect x="315" y="321" width="40" height="15" rx="4" fill="rgba(240,220,160,0.9)"/><text x="335" y="332" text-anchor="middle" font-family="Arial,sans-serif" font-size="7.5" font-weight="bold" fill="#5A3A08">Rt.203</text><line x1="390" y1="330" x2="390" y2="230" stroke="#A08040" stroke-width="5" stroke-linecap="round" opacity="0.6"/><line x1="390" y1="330" x2="390" y2="230" stroke="#E8D5A3" stroke-width="3" stroke-linecap="round" stroke-dasharray="7,5"/><rect x="370" y="271" width="40" height="15" rx="4" fill="rgba(240,220,160,0.9)"/><text x="390" y="282" text-anchor="middle" font-family="Arial,sans-serif" font-size="7.5" font-weight="bold" fill="#5A3A08">Rt.207</text><line x1="390" y1="230" x2="280" y2="230" stroke="#A08040" stroke-width="5" stroke-linecap="round" opacity="0.6"/><line x1="390" y1="230" x2="280" y2="230" stroke="#E8D5A3" stroke-width="3" stroke-linecap="round" stroke-dasharray="7,5"/><rect x="315" y="221" width="40" height="15" rx="4" fill="rgba(240,220,160,0.9)"/><text x="335" y="232" text-anchor="middle" font-family="Arial,sans-serif" font-size="7.5" font-weight="bold" fill="#5A3A08">Rt.208</text><line x1="280" y1="230" x2="170" y2="230" stroke="#A08040" stroke-width="5" stroke-linecap="round" opacity="0.6"/><line x1="280" y1="230" x2="170" y2="230" stroke="#E8D5A3" stroke-width="3" stroke-linecap="round" stroke-dasharray="7,5"/><rect x="205" y="221" width="40" height="15" rx="4" fill="rgba(240,220,160,0.9)"/><text x="225" y="232" text-anchor="middle" font-family="Arial,sans-serif" font-size="7.5" font-weight="bold" fill="#5A3A08">Rt.210</text><line x1="170" y1="230" x2="170" y2="330" stroke="#A08040" stroke-width="5" stroke-linecap="round" opacity="0.6"/><line x1="170" y1="230" x2="170" y2="330" stroke="#E8D5A3" stroke-width="3" stroke-linecap="round" stroke-dasharray="7,5"/><rect x="150" y="271" width="40" height="15" rx="4" fill="rgba(240,220,160,0.9)"/><text x="170" y="282" text-anchor="middle" font-family="Arial,sans-serif" font-size="7.5" font-weight="bold" fill="#5A3A08">Rt.211</text><line x1="170" y1="330" x2="280" y2="330" stroke="#A08040" stroke-width="5" stroke-linecap="round" opacity="0.6"/><line x1="170" y1="330" x2="280" y2="330" stroke="#E8D5A3" stroke-width="3" stroke-linecap="round" stroke-dasharray="7,5"/><rect x="205" y="321" width="40" height="15" rx="4" fill="rgba(240,220,160,0.9)"/><text x="225" y="332" text-anchor="middle" font-family="Arial,sans-serif" font-size="7.5" font-weight="bold" fill="#5A3A08">Rt.212</text><line x1="280" y1="230" x2="280" y2="130" stroke="#A08040" stroke-width="5" stroke-linecap="round" opacity="0.6"/><line x1="280" y1="230" x2="280" y2="130" stroke="#E8D5A3" stroke-width="3" stroke-linecap="round" stroke-dasharray="7,5"/><rect x="260" y="171" width="40" height="15" rx="4" fill="rgba(240,220,160,0.9)"/><text x="280" y="182" text-anchor="middle" font-family="Arial,sans-serif" font-size="7.5" font-weight="bold" fill="#5A3A08">Rt.209</text><line x1="280" y1="130" x2="390" y2="130" stroke="#A08040" stroke-width="5" stroke-linecap="round" opacity="0.6"/><line x1="280" y1="130" x2="390" y2="130" stroke="#E8D5A3" stroke-width="3" stroke-linecap="round" stroke-dasharray="7,5"/><rect x="315" y="121" width="40" height="15" rx="4" fill="rgba(240,220,160,0.9)"/><text x="335" y="132" text-anchor="middle" font-family="Arial,sans-serif" font-size="7.5" font-weight="bold" fill="#5A3A08">Rt.213</text><line x1="390" y1="130" x2="500" y2="130" stroke="#A08040" stroke-width="5" stroke-linecap="round" opacity="0.6"/><line x1="390" y1="130" x2="500" y2="130" stroke="#E8D5A3" stroke-width="3" stroke-linecap="round" stroke-dasharray="7,5"/><rect x="425" y="121" width="40" height="15" rx="4" fill="rgba(240,220,160,0.9)"/><text x="445" y="132" text-anchor="middle" font-family="Arial,sans-serif" font-size="7.5" font-weight="bold" fill="#5A3A08">Rt.214</text><line x1="500" y1="130" x2="500" y2="230" stroke="#A08040" stroke-width="5" stroke-linecap="round" opacity="0.6"/><line x1="500" y1="130" x2="500" y2="230" stroke="#E8D5A3" stroke-width="3" stroke-linecap="round" stroke-dasharray="7,5"/><rect x="480" y="171" width="40" height="15" rx="4" fill="rgba(240,220,160,0.9)"/><text x="500" y="182" text-anchor="middle" font-family="Arial,sans-serif" font-size="7.5" font-weight="bold" fill="#5A3A08">Rt.215</text><line x1="500" y1="230" x2="500" y2="330" stroke="#A08040" stroke-width="5" stroke-linecap="round" opacity="0.6"/><line x1="500" y1="230" x2="500" y2="330" stroke="#E8D5A3" stroke-width="3" stroke-linecap="round" stroke-dasharray="7,5"/><rect x="480" y="271" width="40" height="15" rx="4" fill="rgba(240,220,160,0.9)"/><text x="500" y="282" text-anchor="middle" font-family="Arial,sans-serif" font-size="7.5" font-weight="bold" fill="#5A3A08">Rt.216</text><line x1="500" y1="330" x2="390" y2="330" stroke="#A08040" stroke-width="5" stroke-linecap="round" opacity="0.6"/><line x1="500" y1="330" x2="390" y2="330" stroke="#E8D5A3" stroke-width="3" stroke-linecap="round" stroke-dasharray="7,5"/><rect x="425" y="321" width="40" height="15" rx="4" fill="rgba(240,220,160,0.9)"/><text x="445" y="332" text-anchor="middle" font-family="Arial,sans-serif" font-size="7.5" font-weight="bold" fill="#5A3A08">Rt.217</text><line x1="390" y1="230" x2="500" y2="230" stroke="#A08040" stroke-width="5" stroke-linecap="round" opacity="0.6"/><line x1="390" y1="230" x2="500" y2="230" stroke="#E8D5A3" stroke-width="3" stroke-linecap="round" stroke-dasharray="7,5"/><rect x="425" y="221" width="40" height="15" rx="4" fill="rgba(240,220,160,0.9)"/><text x="445" y="232" text-anchor="middle" font-family="Arial,sans-serif" font-size="7.5" font-weight="bold" fill="#5A3A08">Rt.218</text><line x1="500" y1="330" x2="610" y2="330" stroke="#A08040" stroke-width="5" stroke-linecap="round" opacity="0.6"/><line x1="500" y1="330" x2="610" y2="330" stroke="#E8D5A3" stroke-width="3" stroke-linecap="round" stroke-dasharray="7,5"/><rect x="535" y="321" width="40" height="15" rx="4" fill="rgba(240,220,160,0.9)"/><text x="555" y="332" text-anchor="middle" font-family="Arial,sans-serif" font-size="7.5" font-weight="bold" fill="#5A3A08">Rt.219</text><line x1="610" y1="330" x2="610" y2="230" stroke="#A08040" stroke-width="5" stroke-linecap="round" opacity="0.6"/><line x1="610" y1="330" x2="610" y2="230" stroke="#E8D5A3" stroke-width="3" stroke-linecap="round" stroke-dasharray="7,5"/><rect x="590" y="271" width="40" height="15" rx="4" fill="rgba(240,220,160,0.9)"/><text x="610" y="282" text-anchor="middle" font-family="Arial,sans-serif" font-size="7.5" font-weight="bold" fill="#5A3A08">Rt.220</text><line x1="610" y1="230" x2="500" y2="230" stroke="#A08040" stroke-width="5" stroke-linecap="round" opacity="0.6"/><line x1="610" y1="230" x2="500" y2="230" stroke="#E8D5A3" stroke-width="3" stroke-linecap="round" stroke-dasharray="7,5"/><rect x="535" y="221" width="40" height="15" rx="4" fill="rgba(240,220,160,0.9)"/><text x="555" y="232" text-anchor="middle" font-family="Arial,sans-serif" font-size="7.5" font-weight="bold" fill="#5A3A08">Rt.221</text><line x1="390" y1="230" x2="390" y2="130" stroke="#A08040" stroke-width="5" stroke-linecap="round" opacity="0.6"/><line x1="390" y1="230" x2="390" y2="130" stroke="#E8D5A3" stroke-width="3" stroke-linecap="round" stroke-dasharray="7,5"/><rect x="370" y="171" width="40" height="15" rx="4" fill="rgba(240,220,160,0.9)"/><text x="390" y="182" text-anchor="middle" font-family="Arial,sans-serif" font-size="7.5" font-weight="bold" fill="#5A3A08">Rt.222</text><line x1="280" y1="130" x2="170" y2="130" stroke="#A08040" stroke-width="5" stroke-linecap="round" opacity="0.6"/><line x1="280" y1="130" x2="170" y2="130" stroke="#E8D5A3" stroke-width="3" stroke-linecap="round" stroke-dasharray="7,5"/><rect x="205" y="121" width="40" height="15" rx="4" fill="rgba(240,220,160,0.9)"/><text x="225" y="132" text-anchor="middle" font-family="Arial,sans-serif" font-size="7.5" font-weight="bold" fill="#5A3A08">Rt.223</text><line x1="170" y1="130" x2="170" y2="230" stroke="#A08040" stroke-width="5" stroke-linecap="round" opacity="0.6"/><line x1="170" y1="130" x2="170" y2="230" stroke="#E8D5A3" stroke-width="3" stroke-linecap="round" stroke-dasharray="7,5"/><rect x="150" y="171" width="40" height="15" rx="4" fill="rgba(240,220,160,0.9)"/><text x="170" y="182" text-anchor="middle" font-family="Arial,sans-serif" font-size="7.5" font-weight="bold" fill="#5A3A08">Rt.224</text><rect x="162" y="422" width="16" height="16" rx="3" fill="white" stroke="#705898" stroke-width="1.5" filter="url(#sh)"/><rect x="166" y="422" width="8" height="5" rx="1" fill="#705898" opacity="0.85"/><text x="170" y="450" text-anchor="middle" font-family="Arial,sans-serif" font-size="8" font-weight="600" fill="white" stroke="rgba(0,40,0,0.9)" stroke-width="3" paint-order="stroke">Twinleaf Town</text><text x="170" y="450" text-anchor="middle" font-family="Arial,sans-serif" font-size="8" font-weight="600" fill="#111">Twinleaf Town</text><rect x="272" y="422" width="16" height="16" rx="3" fill="white" stroke="#705898" stroke-width="1.5" filter="url(#sh)"/><rect x="276" y="422" width="8" height="5" rx="1" fill="#705898" opacity="0.85"/><text x="280" y="450" text-anchor="middle" font-family="Arial,sans-serif" font-size="8" font-weight="600" fill="white" stroke="rgba(0,40,0,0.9)" stroke-width="3" paint-order="stroke">Sandgem Town</text><text x="280" y="450" text-anchor="middle" font-family="Arial,sans-serif" font-size="8" font-weight="600" fill="#111">Sandgem Town</text><rect x="269" y="319" width="22" height="22" rx="3" fill="white" stroke="#705898" stroke-width="2.5" filter="url(#sh)"/><rect x="276" y="319" width="8" height="6" rx="1" fill="#705898" opacity="0.85"/><line x1="280" y1="314" x2="280" y2="319" stroke="#705898" stroke-width="1.5"/><text x="280" y="353" text-anchor="middle" font-family="Arial,sans-serif" font-size="9" font-weight="bold" fill="white" stroke="rgba(0,40,0,0.9)" stroke-width="3" paint-order="stroke">Jubilife City</text><text x="280" y="353" text-anchor="middle" font-family="Arial,sans-serif" font-size="9" font-weight="bold" fill="#111">Jubilife City</text><rect x="379" y="319" width="22" height="22" rx="3" fill="white" stroke="#705898" stroke-width="2.5" filter="url(#sh)"/><rect x="386" y="319" width="8" height="6" rx="1" fill="#705898" opacity="0.85"/><line x1="390" y1="314" x2="390" y2="319" stroke="#705898" stroke-width="1.5"/><text x="390" y="353" text-anchor="middle" font-family="Arial,sans-serif" font-size="9" font-weight="bold" fill="white" stroke="rgba(0,40,0,0.9)" stroke-width="3" paint-order="stroke">Oreburgh City</text><text x="390" y="353" text-anchor="middle" font-family="Arial,sans-serif" font-size="9" font-weight="bold" fill="#111">Oreburgh City</text><rect x="162" y="322" width="16" height="16" rx="3" fill="white" stroke="#705898" stroke-width="1.5" filter="url(#sh)"/><rect x="166" y="322" width="8" height="5" rx="1" fill="#705898" opacity="0.85"/><text x="170" y="350" text-anchor="middle" font-family="Arial,sans-serif" font-size="8" font-weight="600" fill="white" stroke="rgba(0,40,0,0.9)" stroke-width="3" paint-order="stroke">Floaroma Town</text><text x="170" y="350" text-anchor="middle" font-family="Arial,sans-serif" font-size="8" font-weight="600" fill="#111">Floaroma Town</text><rect x="269" y="219" width="22" height="22" rx="3" fill="white" stroke="#705898" stroke-width="2.5" filter="url(#sh)"/><rect x="276" y="219" width="8" height="6" rx="1" fill="#705898" opacity="0.85"/><line x1="280" y1="214" x2="280" y2="219" stroke="#705898" stroke-width="1.5"/><text x="280" y="253" text-anchor="middle" font-family="Arial,sans-serif" font-size="9" font-weight="bold" fill="white" stroke="rgba(0,40,0,0.9)" stroke-width="3" paint-order="stroke">Eterna City</text><text x="280" y="253" text-anchor="middle" font-family="Arial,sans-serif" font-size="9" font-weight="bold" fill="#111">Eterna City</text><rect x="159" y="219" width="22" height="22" rx="3" fill="white" stroke="#705898" stroke-width="2.5" filter="url(#sh)"/><rect x="166" y="219" width="8" height="6" rx="1" fill="#705898" opacity="0.85"/><line x1="170" y1="214" x2="170" y2="219" stroke="#705898" stroke-width="1.5"/><text x="170" y="253" text-anchor="middle" font-family="Arial,sans-serif" font-size="9" font-weight="bold" fill="white" stroke="rgba(0,40,0,0.9)" stroke-width="3" paint-order="stroke">Hearthome City</text><text x="170" y="253" text-anchor="middle" font-family="Arial,sans-serif" font-size="9" font-weight="bold" fill="#111">Hearthome City</text><rect x="382" y="222" width="16" height="16" rx="3" fill="white" stroke="#705898" stroke-width="1.5" filter="url(#sh)"/><rect x="386" y="222" width="8" height="5" rx="1" fill="#705898" opacity="0.85"/><text x="390" y="250" text-anchor="middle" font-family="Arial,sans-serif" font-size="8" font-weight="600" fill="white" stroke="rgba(0,40,0,0.9)" stroke-width="3" paint-order="stroke">Solaceon Town</text><text x="390" y="250" text-anchor="middle" font-family="Arial,sans-serif" font-size="8" font-weight="600" fill="#111">Solaceon Town</text><rect x="489" y="219" width="22" height="22" rx="3" fill="white" stroke="#705898" stroke-width="2.5" filter="url(#sh)"/><rect x="496" y="219" width="8" height="6" rx="1" fill="#705898" opacity="0.85"/><line x1="500" y1="214" x2="500" y2="219" stroke="#705898" stroke-width="1.5"/><text x="500" y="253" text-anchor="middle" font-family="Arial,sans-serif" font-size="9" font-weight="bold" fill="white" stroke="rgba(0,40,0,0.9)" stroke-width="3" paint-order="stroke">Veilstone City</text><text x="500" y="253" text-anchor="middle" font-family="Arial,sans-serif" font-size="9" font-weight="bold" fill="#111">Veilstone City</text><rect x="489" y="319" width="22" height="22" rx="3" fill="white" stroke="#705898" stroke-width="2.5" filter="url(#sh)"/><rect x="496" y="319" width="8" height="6" rx="1" fill="#705898" opacity="0.85"/><line x1="500" y1="314" x2="500" y2="319" stroke="#705898" stroke-width="1.5"/><text x="500" y="353" text-anchor="middle" font-family="Arial,sans-serif" font-size="9" font-weight="bold" fill="white" stroke="rgba(0,40,0,0.9)" stroke-width="3" paint-order="stroke">Pastoria City</text><text x="500" y="353" text-anchor="middle" font-family="Arial,sans-serif" font-size="9" font-weight="bold" fill="#111">Pastoria City</text><rect x="599" y="319" width="22" height="22" rx="3" fill="white" stroke="#705898" stroke-width="2.5" filter="url(#sh)"/><rect x="606" y="319" width="8" height="6" rx="1" fill="#705898" opacity="0.85"/><line x1="610" y1="314" x2="610" y2="319" stroke="#705898" stroke-width="1.5"/><text x="610" y="353" text-anchor="middle" font-family="Arial,sans-serif" font-size="9" font-weight="bold" fill="white" stroke="rgba(0,40,0,0.9)" stroke-width="3" paint-order="stroke">Sunyshore City</text><text x="610" y="353" text-anchor="middle" font-family="Arial,sans-serif" font-size="9" font-weight="bold" fill="#111">Sunyshore City</text><rect x="272" y="122" width="16" height="16" rx="3" fill="white" stroke="#705898" stroke-width="1.5" filter="url(#sh)"/><rect x="276" y="122" width="8" height="5" rx="1" fill="#705898" opacity="0.85"/><text x="280" y="150" text-anchor="middle" font-family="Arial,sans-serif" font-size="8" font-weight="600" fill="white" stroke="rgba(0,40,0,0.9)" stroke-width="3" paint-order="stroke">Celestic Town</text><text x="280" y="150" text-anchor="middle" font-family="Arial,sans-serif" font-size="8" font-weight="600" fill="#111">Celestic Town</text><rect x="379" y="119" width="22" height="22" rx="3" fill="white" stroke="#705898" stroke-width="2.5" filter="url(#sh)"/><rect x="386" y="119" width="8" height="6" rx="1" fill="#705898" opacity="0.85"/><line x1="390" y1="114" x2="390" y2="119" stroke="#705898" stroke-width="1.5"/><text x="390" y="153" text-anchor="middle" font-family="Arial,sans-serif" font-size="9" font-weight="bold" fill="white" stroke="rgba(0,40,0,0.9)" stroke-width="3" paint-order="stroke">Snowpoint City</text><text x="390" y="153" text-anchor="middle" font-family="Arial,sans-serif" font-size="9" font-weight="bold" fill="#111">Snowpoint City</text><rect x="492" y="122" width="16" height="16" rx="3" fill="white" stroke="#705898" stroke-width="1.5" filter="url(#sh)"/><rect x="496" y="122" width="8" height="5" rx="1" fill="#705898" opacity="0.85"/><text x="500" y="150" text-anchor="middle" font-family="Arial,sans-serif" font-size="8" font-weight="600" fill="white" stroke="rgba(0,40,0,0.9)" stroke-width="3" paint-order="stroke">Pokémon League</text><text x="500" y="150" text-anchor="middle" font-family="Arial,sans-serif" font-size="8" font-weight="600" fill="#111">Pokémon League</text><rect x="159" y="119" width="22" height="22" rx="3" fill="white" stroke="#705898" stroke-width="2.5" filter="url(#sh)"/><rect x="166" y="119" width="8" height="6" rx="1" fill="#705898" opacity="0.85"/><line x1="170" y1="114" x2="170" y2="119" stroke="#705898" stroke-width="1.5"/><text x="170" y="153" text-anchor="middle" font-family="Arial,sans-serif" font-size="9" font-weight="bold" fill="white" stroke="rgba(0,40,0,0.9)" stroke-width="3" paint-order="stroke">Canalave City</text><text x="170" y="153" text-anchor="middle" font-family="Arial,sans-serif" font-size="9" font-weight="bold" fill="#111">Canalave City</text><rect x="602" y="222" width="16" height="16" rx="3" fill="white" stroke="#705898" stroke-width="1.5" filter="url(#sh)"/><rect x="606" y="222" width="8" height="5" rx="1" fill="#705898" opacity="0.85"/><text x="610" y="250" text-anchor="middle" font-family="Arial,sans-serif" font-size="8" font-weight="600" fill="white" stroke="rgba(0,40,0,0.9)" stroke-width="3" paint-order="stroke">Fight Area</text><text x="610" y="250" text-anchor="middle" font-family="Arial,sans-serif" font-size="8" font-weight="600" fill="#111">Fight Area</text><rect x="0" y="494" width="760" height="26" fill="rgba(0,0,0,0.5)"/><text x="10" y="511" font-family="Arial,sans-serif" font-size="11" font-weight="bold" fill="rgba(255,255,255,0.9)">Diamond · Pearl · Platinum · Brilliant Diamond · Shining Pearl</text>
</svg>