<?xml version="1.0" encoding="UTF-8"?>
<svg width="760" height="520" xmlns="http://www.w3.org/2000/svg">
  <defs>
    <linearGradient id="water" x1="0" y1="0" x2="0" y2="1">
      <stop offset="0%" stop-color="#5B9BD5"/><stop offset="100%" stop-color="#3A7FBF"/>
    </linearGradient>
    <filter id="sh"><feDropShadow dx="0" dy="1" stdDeviation="1.5" flood-opacity="0.35"/></filter>
  </defs><rect width="760" height="520" fill="url(#water)"/><line x1="0" y1="15" x2="760" y2="15" stroke="rgba(255,255,255,0.05)" stroke-width="1"/><line x1="0" y1="40" x2="760" y2="40" stroke="rgba(255,255,255,0.05)" stroke-width="1"/><line x1="0" y1="65" x2="760" y2="65" stroke="rgba(255,255,255,0.05)" stroke-width="1"/><line x1="0" y1="90" x2="760" y2="90" stroke="rgba(255,255,255,0.05)" stroke-width="1"/><line x1="0" y1="115" x2="760" y2="115" stroke="rgba(255,255,255,0.05)" stroke-width="1"/><line x1="0" y1="140" x2="760" y2="140" stroke="rgba(255,255,255,0.05)" stroke-width="1"/><line x1="0" y1="165" x2="760" y2="165" stroke="rgba(255,255,255,0.05)" stroke-width="1"/><line x1="0" y1="190" x2="760" y2="190" stroke="rgba(255,255,255,0.05)" stroke-width="1"/><line x1="0" y1="215" x2="760" y2="215" stroke="rgba(255,255,255,0.05)" stroke-width="1"/><line x1="0" y1="240" x2="760" y2="240" stroke="rgba(255,255,255,0.05)" stroke-width="1"/><line x1="0" y1="265" x2="760" y2="265" stroke="rgba(255,255,255,0.05)" stroke-width="1"/><line x1="0" y1="290" x2="760" y2="290" stroke="rgba(255,255,255,0.05)" stroke-width="1"/><line x1="0" y1="315" x2="760" y2="315" stroke="rgba(255,255,255,0.05)" stroke-width="1"/><line x1="0" y1="340" x2="760" y2="340" stroke="rgba(255,255,255,0.05)" stroke-width="1"/><line x1="0" y1="365" x2="760" y2="365" stroke="rgba(255,255,255,0.05)" stroke-width="1"/><line x1="0" y1="390" x2="760" y2="390" stroke="rgba(255,255,255,0.05)" stroke-width="1"/><line x1="0" y1="415" x2="760" y2="415" stroke="rgba(255,255,255,0.05)" stroke-width="1"/><line x1="0" y1="440" x2="760" y2="440" stroke="rgba(255,255,255,0.05)" stroke-width="1"/><line x1="0" y1="465" x2="760" y2="465" stroke="rgba(255,255,255,0.05)" stroke-width="1"/><line x1="0" y1="490" x2="760" y2="490" stroke="rgba(255,255,255,0.05)" stroke-width="1"/><line x1="0" y1="515" x2="760" y2="515" stroke="rgba(255,255,255,0.05)" stroke-width="1"/><polygon points="80,60 700,60 700,440 80,440 80,60" fill="#8BBF6E" stroke="#5A9A45" stroke-width="1.5"/><rect x="0" y="0" width="80" height="520" fill="url(#water)" rx="5" opacity="0.85"/><rect x="700" y="0" width="60" height="520" fill="url(#water)" rx="5" opacity="0.85"/><rect x="80" y="420" width="620" height="100" fill="url(#water)" rx="5" opacity="0.85"/><rect x="500" y="60" width="200" height="150" fill="url(#water)" rx="5" opacity="0.85"/><polygon points="330,247 317,270 343,270" fill="#9B8F7A" stroke="#7A6E5C" stroke-width="1"/><polygon points="330,247 325,260 335,260" fill="rgba(255,255,255,0.55)"/><polygon points="310,237 297,260 323,260" fill="#9B8F7A" stroke="#7A6E5C" stroke-width="1"/><polygon points="310,237 305,250 315,250" fill="rgba(255,255,255,0.55)"/><polygon points="440,162 427,185 453,185" fill="#9B8F7A" stroke="#7A6E5C" stroke-width="1"/><polygon points="440,162 435,175 445,175" fill="rgba(255,255,255,0.55)"/><polygon points="460,152 447,175 473,175" fill="#9B8F7A" stroke="#7A6E5C" stroke-width="1"/><polygon points="460,152 455,165 465,165" fill="rgba(255,255,255,0.55)"/><circle cx="220" cy="360" r="8" fill="#4A8A3A" opacity="0.8"/><circle cx="229" cy="364" r="8" fill="#4A8A3A" opacity="0.8"/><circle cx="213" cy="365" r="8" fill="#4A8A3A" opacity="0.8"/><circle cx="200" cy="370" r="8" fill="#4A8A3A" opacity="0.8"/><circle cx="209" cy="374" r="8" fill="#4A8A3A" opacity="0.8"/><circle cx="193" cy="375" r="8" fill="#4A8A3A" opacity="0.8"/><line x1="160" y1="410" x2="280" y2="410" stroke="#A08040" stroke-width="5" stroke-linecap="round" opacity="0.6"/><line x1="160" y1="410" x2="280" y2="410" stroke="#E8D5A3" stroke-width="3" stroke-linecap="round" stroke-dasharray="7,5"/><rect x="200" y="401" width="40" height="15" rx="4" fill="rgba(240,220,160,0.9)"/><text x="220" y="412" text-anchor="middle" font-family="Arial,sans-serif" font-size="7.5" font-weight="bold" fill="#5A3A08">Rt.1</text><line x1="280" y1="410" x2="400" y2="410" stroke="#A08040" stroke-width="5" stroke-linecap="round" opacity="0.6"/><line x1="280" y1="410" x2="400" y2="410" stroke="#E8D5A3" stroke-width="3" stroke-linecap="round" stroke-dasharray="7,5"/><rect x="320" y="401" width="40" height="15" rx="4" fill="rgba(240,220,160,0.9)"/><text x="340" y="412" text-anchor="middle" font-family="Arial,sans-serif" font-size="7.5" font-weight="bold" fill="#5A3A08">Rt.2</text><line x1="400" y1="410" x2="520" y2="410" stroke="#A08040" stroke-width="5" stroke-linecap="round" opacity="0.6"/><line x1="400" y1="410" x2="520" y2="410" stroke="#E8D5A3" stroke-width="3" stroke-linecap="round" stroke-dasharray="7,5"/><rect x="440" y="401" width="40" height="15" rx="4" fill="rgba(240,220,160,0.9)"/><text x="460" y="412" text-anchor="middle" font-family="Arial,sans-serif" font-size="7.5" font-weight="bold" fill="#5A3A08">Rt.3</text><line x1="520" y1="410" x2="520" y2="310" stroke="#A08040" stroke-width="5" stroke-linecap="round" opacity="0.6"/><line x1="520" y1="410" x2="520" y2="310" stroke="#E8D5A3" stroke-width="3" stroke-linecap="round" stroke-dasharray="7,5"/><rect x="500" y="351" width="40" height="15" rx="4" fill="rgba(240,220,160,0.9)"/><text x="520" y="362" text-anchor="middle" font-family="Arial,sans-serif" font-size="7.5" font-weight="bold" fill="#5A3A08">Rt.4</text><line x1="520" y1="310" x2="400" y2="310" stroke="#A08040" stroke-width="5" stroke-linecap="round" opacity="0.6"/><line x1="520" y1="310" x2="400" y2="310" stroke="#E8D5A3" stroke-width="3" stroke-linecap="round" stroke-dasharray="7,5"/><rect x="440" y="301" width="40" height="15" rx="4" fill="rgba(240,220,160,0.9)"/><text x="460" y="312" text-anchor="middle" font-family="Arial,sans-serif" font-size="7.5" font-weight="bold" fill="#5A3A08">Rt.5</text><line x1="400" y1="310" x2="280" y2="310" stroke="#A08040" stroke-width="5" stroke-linecap="round" opacity="0.6"/><line x1="400" y1="310" x2="280" y2="310" stroke="#E8D5A3" stroke-width="3" stroke-linecap="round" stroke-dasharray="7,5"/><rect x="320" y="301" width="40" height="15" rx="4" fill="rgba(240,220,160,0.9)"/><text x="340" y="312" text-anchor="middle" font-family="Arial,sans-serif" font-size="7.5" font-weight="bold" fill="#5A3A08">Rt.6</text><line x1="280" y1="310" x2="280" y2="210" stroke="#A08040" stroke-width="5" stroke-linecap="round" opacity="0.6"/><line x1="280" y1="310" x2="280" y2="210" stroke="#E8D5A3" stroke-width="3" stroke-linecap="round" stroke-dasharray="7,5"/><rect x="260" y="251" width="40" height="15" rx="4" fill="rgba(240,220,160,0.9)"/><text x="280" y="262" text-anchor="middle" font-family="Arial,sans-serif" font-size="7.5" font-weight="bold" fill="#5A3A08">Rt.7</text><line x1="280" y1="210" x2="400" y2="210" stroke="#A08040" stroke-width="5" stroke-linecap="round" opacity="0.6"/><line x1="280" y1="210" x2="400" y2="210" stroke="#E8D5A3" stroke-width="3" stroke-linecap="round" stroke-dasharray="7,5"/><rect x="320" y="201" width="40" height="15" rx="4" fill="rgba(240,220,160,0.9)"/><text x="340" y="212" text-anchor="middle" font-family="Arial,sans-serif" font-size="7.5" font-weight="bold" fill="#5A3A08">Rt.8</text><line x1="400" y1="210" x2="520" y2="210" stroke="#A08040" stroke-width="5" stroke-linecap="round" opacity="0.6"/><line x1="400" y1="210" x2="520" y2="210" stroke="#E8D5A3" stroke-width="3" stroke-linecap="round" stroke-dasharray="7,5"/><rect x="440" y="201" width="40" height="15" rx="4" fill="rgba(240,220,160,0.9)"/><text x="460" y="212" text-anchor="middle" font-family="Arial,sans-serif" font-size="7.5" font-weight="bold" fill="#5A3A08">Rt.9</text><line x1="520" y1="210" x2="640" y2="210" stroke="#A08040" stroke-width="5" stroke-linecap="round" opacity="0.6"/><line x1="520" y1="210" x2="640" y2="210" stroke="#E8D5A3" stroke-width="3" stroke-linecap="round" stroke-dasharray="7,5"/><rect x="560" y="201" width="40" height="15" rx="4" fill="rgba(240,220,160,0.9)"/><text x="580" y="212" text-anchor="middle" font-family="Arial,sans-serif" font-size="7.5" font-weight="bold" fill="#5A3A08">Rt.10</text><line x1="640" y1="210" x2="640" y2="310" stroke="#A08040" stroke-width="5" stroke-linecap="round" opacity="0.6"/><line x1="640" y1="210" x2="640" y2="310" stroke="#E8D5A3" stroke-width="3" stroke-linecap="round" stroke-dasharray="7,5"/><rect x="620" y="251" width="40" height="15" rx="4" fill="rgba(240,220,160,0.9)"/><text x="640" y="262" text-anchor="middle" font-family="Arial,sans-serif" font-size="7.5" font-weight="bold" fill="#5A3A08">Rt.11</text><line x1="640" y1="310" x2="520" y2="310" stroke="#A08040" stroke-width="5" stroke-linecap="round" opacity="0.6"/><line x1="640" y1="310" x2="520" y2="310" stroke="#E8D5A3" stroke-width="3" stroke-linecap="round" stroke-dasharray="7,5"/><rect x="560" y="301" width="40" height="15" rx="4" fill="rgba(240,220,160,0.9)"/><text x="580" y="312" text-anchor="middle" font-family="Arial,sans-serif" font-size="7.5" font-weight="bold" fill="#5A3A08">Rt.12</text><line x1="400" y1="310" x2="400" y2="210" stroke="#A08040" stroke-width="5" stroke-linecap="round" opacity="0.6"/><line x1="400" y1="310" x2="400" y2="210" stroke="#E8D5A3" stroke-width="3" stroke-linecap="round" stroke-dasharray="7,5"/><rect x="380" y="251" width="40" height="15" rx="4" fill="rgba(240,220,160,0.9)"/><text x="400" y="262" text-anchor="middle" font-family="Arial,sans-serif" font-size="7.5" font-weight="bold" fill="#5A3A08">Rt.16</text><line x1="280" y1="410" x2="280" y2="310" stroke="#A08040" stroke-width="5" stroke-linecap="round" opacity="0.6"/><line x1="280" y1="410" x2="280" y2="310" stroke="#E8D5A3" stroke-width="3" stroke-linecap="round" stroke-dasharray="7,5"/><rect x="260" y="351" width="40" height="15" rx="4" fill="rgba(240,220,160,0.9)"/><text x="280" y="362" text-anchor="middle" font-family="Arial,sans-serif" font-size="7.5" font-weight="bold" fill="#5A3A08">Rt.17</text><line x1="400" y1="410" x2="400" y2="310" stroke="#A08040" stroke-width="5" stroke-linecap="round" opacity="0.6"/><line x1="400" y1="410" x2="400" y2="310" stroke="#E8D5A3" stroke-width="3" stroke-linecap="round" stroke-dasharray="7,5"/><rect x="380" y="351" width="40" height="15" rx="4" fill="rgba(240,220,160,0.9)"/><text x="400" y="362" text-anchor="middle" font-family="Arial,sans-serif" font-size="7.5" font-weight="bold" fill="#5A3A08">Rt.18</text><line x1="160" y1="410" x2="160" y2="310" stroke="#A08040" stroke-width="5" stroke-linecap="round" opacity="0.6"/><line x1="160" y1="410" x2="160" y2="310" stroke="#E8D5A3" stroke-width="3" stroke-linecap="round" stroke-dasharray="7,5"/><rect x="140" y="351" width="40" height="15" rx="4" fill="rgba(240,220,160,0.9)"/><text x="160" y="362" text-anchor="middle" font-family="Arial,sans-serif" font-size="7.5" font-weight="bold" fill="#5A3A08">Rt.19</text><line x1="160" y1="310" x2="280" y2="310" stroke="#A08040" stroke-width="5" stroke-linecap="round" opacity="0.6"/><line x1="160" y1="310" x2="280" y2="310" stroke="#E8D5A3" stroke-width="3" stroke-linecap="round" stroke-dasharray="7,5"/><rect x="200" y="301" width="40" height="15" rx="4" fill="rgba(240,220,160,0.9)"/><text x="220" y="312" text-anchor="middle" font-family="Arial,sans-serif" font-size="7.5" font-weight="bold" fill="#5A3A08">Rt.20</text><line x1="160" y1="310" x2="160" y2="210" stroke="#A08040" stroke-width="5" stroke-linecap="round" opacity="0.6"/><line x1="160" y1="310" x2="160" y2="210" stroke="#E8D5A3" stroke-width="3" stroke-linecap="round" stroke-dasharray="7,5"/><rect x="140" y="251" width="40" height="15" rx="4" fill="rgba(240,220,160,0.9)"/><text x="160" y="262" text-anchor="middle" font-family="Arial,sans-serif" font-size="7.5" font-weight="bold" fill="#5A3A08">Rt.21</text><line x1="160" y1="210" x2="280" y2="210" stroke="#A08040" stroke-width="5" stroke-linecap="round" opacity="0.6"/><line x1="160" y1="210" x2="280" y2="210" stroke="#E8D5A3" stroke-width="3" stroke-linecap="round" stroke-dasharray="7,5"/><rect x="200" y="201" width="40" height="15" rx="4" fill="rgba(240,220,160,0.9)"/><text x="220" y="212" text-anchor="middle" font-family="Arial,sans-serif" font-size="7.5" font-weight="bold" fill="#5A3A08">Rt.22</text><rect x="152" y="402" width="16" height="16" rx="3" fill="white" stroke="#6A6A8A" stroke-width="1.5" filter="url(#sh)"/><rect x="156" y="402" width="8" height="5" rx="1" fill="#6A6A8A" opacity="0.85"/><text x="160" y="430" text-anchor="middle" font-family="Arial,sans-serif" font-size="8" font-weight="600" fill="white" stroke="rgba(0,40,0,0.9)" stroke-width="3" paint-order="stroke">Nuvema Town</text><text x="160" y="430" text-anchor="middle" font-family="Arial,sans-serif" font-size="8" font-weight="600" fill="#111">Nuvema Town</text><rect x="272" y="402" width="16" height="16" rx="3" fill="white" stroke="#6A6A8A" stroke-width="1.5" filter="url(#sh)"/><rect x="276" y="402" width="8" height="5" rx="1" fill="#6A6A8A" opacity="0.85"/><text x="280" y="430" text-anchor="middle" font-family="Arial,sans-serif" font-size="8" font-weight="600" fill="white" stroke="rgba(0,40,0,0.9)" stroke-width="3" paint-order="stroke">Accumula Town</text><text x="280" y="430" text-anchor="middle" font-family="Arial,sans-serif" font-size="8" font-weight="600" fill="#111">Accumula Town</text><rect x="389" y="399" width="22" height="22" rx="3" fill="white" stroke="#6A6A8A" stroke-width="2.5" filter="url(#sh)"/><rect x="396" y="399" width="8" height="6" rx="1" fill="#6A6A8A" opacity="0.85"/><line x1="400" y1="394" x2="400" y2="399" stroke="#6A6A8A" stroke-width="1.5"/><text x="400" y="433" text-anchor="middle" font-family="Arial,sans-serif" font-size="9" font-weight="bold" fill="white" stroke="rgba(0,40,0,0.9)" stroke-width="3" paint-order="stroke">Striaton City</text><text x="400" y="433" text-anchor="middle" font-family="Arial,sans-serif" font-size="9" font-weight="bold" fill="#111">Striaton City</text><rect x="509" y="399" width="22" height="22" rx="3" fill="white" stroke="#6A6A8A" stroke-width="2.5" filter="url(#sh)"/><rect x="516" y="399" width="8" height="6" rx="1" fill="#6A6A8A" opacity="0.85"/><line x1="520" y1="394" x2="520" y2="399" stroke="#6A6A8A" stroke-width="1.5"/><text x="520" y="433" text-anchor="middle" font-family="Arial,sans-serif" font-size="9" font-weight="bold" fill="white" stroke="rgba(0,40,0,0.9)" stroke-width="3" paint-order="stroke">Nacrene City</text><text x="520" y="433" text-anchor="middle" font-family="Arial,sans-serif" font-size="9" font-weight="bold" fill="#111">Nacrene City</text><rect x="509" y="299" width="22" height="22" rx="3" fill="white" stroke="#6A6A8A" stroke-width="2.5" filter="url(#sh)"/><rect x="516" y="299" width="8" height="6" rx="1" fill="#6A6A8A" opacity="0.85"/><line x1="520" y1="294" x2="520" y2="299" stroke="#6A6A8A" stroke-width="1.5"/><text x="520" y="333" text-anchor="middle" font-family="Arial,sans-serif" font-size="9" font-weight="bold" fill="white" stroke="rgba(0,40,0,0.9)" stroke-width="3" paint-order="stroke">Castelia City</text><text x="520" y="333" text-anchor="middle" font-family="Arial,sans-serif" font-size="9" font-weight="bold" fill="#111">Castelia City</text><rect x="389" y="299" width="22" height="22" rx="3" fill="white" stroke="#6A6A8A" stroke-width="2.5" filter="url(#sh)"/><rect x="396" y="299" width="8" height="6" rx="1" fill="#6A6A8A" opacity="0.85"/><line x1="400" y1="294" x2="400" y2="299" stroke="#6A6A8A" stroke-width="1.5"/><text x="400" y="333" text-anchor="middle" font-family="Arial,sans-serif" font-size="9" font-weight="bold" fill="white" stroke="rgba(0,40,0,0.9)" stroke-width="3" paint-order="stroke">Nimbasa City</text><text x="400" y="333" text-anchor="middle" font-family="Arial,sans-serif" font-size="9" font-weight="bold" fill="#111">Nimbasa City</text><rect x="269" y="299" width="22" height="22" rx="3" fill="white" stroke="#6A6A8A" stroke-width="2.5" filter="url(#sh)"/><rect x="276" y="299" width="8" height="6" rx="1" fill="#6A6A8A" opacity="0.85"/><line x1="280" y1="294" x2="280" y2="299" stroke="#6A6A8A" stroke-width="1.5"/><text x="280" y="333" text-anchor="middle" font-family="Arial,sans-serif" font-size="9" font-weight="bold" fill="white" stroke="rgba(0,40,0,0.9)" stroke-width="3" paint-order="stroke">Driftveil City</text><text x="280" y="333" text-anchor="middle" font-family="Arial,sans-serif" font-size="9" font-weight="bold" fill="#111">Driftveil City</text><rect x="149" y="299" width="22" height="22" rx="3" fill="white" stroke="#6A6A8A" stroke-width="2.5" filter="url(#sh)"/><rect x="156" y="299" width="8" height="6" rx="1" fill="#6A6A8A" opacity="0.85"/><line x1="160" y1="294" x2="160" y2="299" stroke="#6A6A8A" stroke-width="1.5"/><text x="160" y="333" text-anchor="middle" font-family="Arial,sans-serif" font-size="9" font-weight="bold" fill="white" stroke="rgba(0,40,0,0.9)" stroke-width="3" paint-order="stroke">Mistralton City</text><text x="160" y="333" text-anchor="middle" font-family="Arial,sans-serif" font-size="9" font-weight="bold" fill="#111">Mistralton City</text><rect x="269" y="199" width="22" height="22" rx="3" fill="white" stroke="#6A6A8A" stroke-width="2.5" filter="url(#sh)"/><rect x="276" y="199" width="8" height="6" rx="1" fill="#6A6A8A" opacity="0.85"/><line x1="280" y1="194" x2="280" y2="199" stroke="#6A6A8A" stroke-width="1.5"/><text x="280" y="233" text-anchor="middle" font-family="Arial,sans-serif" font-size="9" font-weight="bold" fill="white" stroke="rgba(0,40,0,0.9)" stroke-width="3" paint-order="stroke">Icirrus City</text><text x="280" y="233" text-anchor="middle" font-family="Arial,sans-serif" font-size="9" font-weight="bold" fill="#111">Icirrus City</text><rect x="389" y="199" width="22" height="22" rx="3" fill="white" stroke="#6A6A8A" stroke-width="2.5" filter="url(#sh)"/><rect x="396" y="199" width="8" height="6" rx="1" fill="#6A6A8A" opacity="0.85"/><line x1="400" y1="194" x2="400" y2="199" stroke="#6A6A8A" stroke-width="1.5"/><text x="400" y="233" text-anchor="middle" font-family="Arial,sans-serif" font-size="9" font-weight="bold" fill="white" stroke="rgba(0,40,0,0.9)" stroke-width="3" paint-order="stroke">Opelucid City</text><text x="400" y="233" text-anchor="middle" font-family="Arial,sans-serif" font-size="9" font-weight="bold" fill="#111">Opelucid City</text><rect x="512" y="202" width="16" height="16" rx="3" fill="white" stroke="#6A6A8A" stroke-width="1.5" filter="url(#sh)"/><rect x="516" y="202" width="8" height="5" rx="1" fill="#6A6A8A" opacity="0.85"/><text x="520" y="230" text-anchor="middle" font-family="Arial,sans-serif" font-size="8" font-weight="600" fill="white" stroke="rgba(0,40,0,0.9)" stroke-width="3" paint-order="stroke">Pokémon League</text><text x="520" y="230" text-anchor="middle" font-family="Arial,sans-serif" font-size="8" font-weight="600" fill="#111">Pokémon League</text><rect x="632" y="202" width="16" height="16" rx="3" fill="white" stroke="#6A6A8A" stroke-width="1.5" filter="url(#sh)"/><rect x="636" y="202" width="8" height="5" rx="1" fill="#6A6A8A" opacity="0.85"/><text x="640" y="230" text-anchor="middle" font-family="Arial,sans-serif" font-size="8" font-weight="600" fill="white" stroke="rgba(0,40,0,0.9)" stroke-width="3" paint-order="stroke">Lacunosa Town</text><text x="640" y="230" text-anchor="middle" font-family="Arial,sans-serif" font-size="8" font-weight="600" fill="#111">Lacunosa Town</text><rect x="632" y="302" width="16" height="16" rx="3" fill="white" stroke="#6A6A8A" stroke-width="1.5" filter="url(#sh)"/><rect x="636" y="302" width="8" height="5" rx="1" fill="#6A6A8A" opacity="0.85"/><text x="640" y="330" text-anchor="middle" font-family="Arial,sans-serif" font-size="8" font-weight="600" fill="white" stroke="rgba(0,40,0,0.9)" stroke-width="3" paint-order="stroke">Undella Town</text><text x="640" y="330" text-anchor="middle" font-family="Arial,sans-serif" font-size="8" font-weight="600" fill="#111">Undella Town</text><rect x="152" y="202" width="16" height="16" rx="3" fill="white" stroke="#6A6A8A" stroke-width="1.5" filter="url(#sh)"/><rect x="156" y="202" width="8" height="5" rx="1" fill="#6A6A8A" opacity="0.85"/><text x="160" y="230" text-anchor="middle" font-family="Arial,sans-serif" font-size="8" font-weight="600" fill="white" stroke="rgba(0,40,0,0.9)" stroke-width="3" paint-order="stroke">Humilau City</text><text x="160" y="230" text-anchor="middle" font-family="Arial,sans-serif" font-size="8" font-weight="600" fill="#111">Humilau City</text><rect x="152" y="402" width="16" height="16" rx="3" fill="white" stroke="#6A6A8A" stroke-width="1.5" filter="url(#sh)"/><rect x="156" y="402" width="8" height="5" rx="1" fill="#6A6A8A" opacity="0.85"/><text x="160" y="430" text-anchor="middle" font-family="Arial,sans-serif" font-size="8" font-weight="600" fill="white" stroke="rgba(0,40,0,0.9)" stroke-width="3" paint-order="stroke">Virbank City</text><text x="160" y="430" text-anchor="middle" font-family="Arial,sans-serif" font-size="8" font-weight="600" fill="#111">Virbank City</text><rect x="0" y="494" width="760" height="26" fill="rgba(0,0,0,0.5)"/><text x="10" y="511" font-family="Arial,sans-serif" font-size="11" font-weight="bold" fill="rgba(255,255,255,0.9)">Black · White · Black 2 · White 2</text>
</svg>